<svg viewBox="0 0 330 200" xmlns="http://www.w3.org/2000/svg"><g><g><g><g><g><line x1="31.125" y1="176" x2="26.125" y2="176" style="visibility: inherit;" fill="rgb(0, 0, 0)" stroke="rgb(204, 204, 204)" stroke-width="1px"></line><line x1="31.125" y1="154" x2="26.125" y2="154" style="visibility: inherit;" fill="rgb(0, 0, 0)" stroke="rgb(204, 204, 204)" stroke-width="1px"></line><line x1="31.125" y1="132" x2="26.125" y2="132" style="visibility: inherit;" fill="rgb(0, 0, 0)" stroke="rgb(204, 204, 204)" stroke-width="1px"></line><line x1="31.125" y1="110" x2="26.125" y2="110" style="visibility: inherit;" fill="rgb(0, 0, 0)" stroke="rgb(204, 204, 204)" stroke-width="1px"></line><line x1="31.125" y1="88" x2="26.125" y2="88" style="visibility: inherit;" fill="rgb(0, 0, 0)" stroke="rgb(204, 204, 204)" stroke-width="1px"></line><line x1="31.125" y1="66" x2="26.125" y2="66" style="visibility: inherit;" fill="rgb(0, 0, 0)" stroke="rgb(204, 204, 204)" stroke-width="1px"></line><line x1="31.125" y1="44" x2="26.125" y2="44" style="visibility: inherit;" fill="rgb(0, 0, 0)" stroke="rgb(204, 204, 204)" stroke-width="1px"></line><line x1="31.125" y1="22" x2="26.125" y2="22" style="visibility: inherit;" fill="rgb(0, 0, 0)" stroke="rgb(204, 204, 204)" stroke-width="1px"></line><line x1="31.125" y1="0" x2="26.125" y2="0" style="visibility: inherit;" fill="rgb(0, 0, 0)" stroke="rgb(204, 204, 204)" stroke-width="1px"></line></g><g transform="translate(21.125, 0)"><text x="0" y="176" dx="0em" dy="0.3em" style="text-anchor: end; visibility: hidden; font-family: &quot;Helvetica Neue&quot;, sans-serif; font-size: 12px; font-weight: 200;" fill="rgb(50, 49, 63)" stroke="none" stroke-width="1px">-5</text><text x="0" y="154" dx="0em" dy="0.3em" style="text-anchor: end; visibility: inherit; font-family: &quot;Helvetica Neue&quot;, sans-serif; font-size: 12px; font-weight: 200;" fill="rgb(50, 49, 63)" stroke="none" stroke-width="1px">0</text><text x="0" y="132" dx="0em" dy="0.3em" style="text-anchor: end; visibility: hidden; font-family: &quot;Helvetica Neue&quot;, sans-serif; font-size: 12px; font-weight: 200;" fill="rgb(50, 49, 63)" stroke="none" stroke-width="1px">5</text><text x="0" y="110" dx="0em" dy="0.3em" style="text-anchor: end; visibility: inherit; font-family: &quot;Helvetica Neue&quot;, sans-serif; font-size: 12px; font-weight: 200;" fill="rgb(50, 49, 63)" stroke="none" stroke-width="1px">10</text><text x="0" y="88" dx="0em" dy="0.3em" style="text-anchor: end; visibility: hidden; font-family: &quot;Helvetica Neue&quot;, sans-serif; font-size: 12px; font-weight: 200;" fill="rgb(50, 49, 63)" stroke="none" stroke-width="1px">15</text><text x="0" y="66" dx="0em" dy="0.3em" style="text-anchor: end; visibility: inherit; font-family: &quot;Helvetica Neue&quot;, sans-serif; font-size: 12px; font-weight: 200;" fill="rgb(50, 49, 63)" stroke="none" stroke-width="1px">20</text><text x="0" y="44" dx="0em" dy="0.3em" style="text-anchor: end; visibility: hidden; font-family: &quot;Helvetica Neue&quot;, sans-serif; font-size: 12px; font-weight: 200;" fill="rgb(50, 49, 63)" stroke="none" stroke-width="1px">25</text><text x="0" y="22" dx="0em" dy="0.3em" style="text-anchor: end; visibility: inherit; font-family: &quot;Helvetica Neue&quot;, sans-serif; font-size: 12px; font-weight: 200;" fill="rgb(50, 49, 63)" stroke="none" stroke-width="1px">30</text><text x="0" y="0" dx="0em" dy="0.3em" style="text-anchor: end; visibility: hidden; font-family: &quot;Helvetica Neue&quot;, sans-serif; font-size: 12px; font-weight: 200;" fill="rgb(50, 49, 63)" stroke="none" stroke-width="1px">35</text></g><line x1="31.125" y1="0" x2="31.125" y2="176" fill="rgb(0, 0, 0)" stroke="rgb(204, 204, 204)" stroke-width="1px"></line></g></g><g transform="translate(31, 0)" clip-path="url(#clip_0)"><clipPath id="clip_0"><rect width="298" height="176"></rect></clipPath><g><g><g><line x1="0" y1="0" x2="0" y2="176" fill="rgb(0, 0, 0)" stroke="rgb(60, 60, 60)" stroke-width="1px" opacity="0.25"></line><line x1="37.359375" y1="0" x2="37.359375" y2="176" fill="rgb(0, 0, 0)" stroke="rgb(60, 60, 60)" stroke-width="1px" opacity="0.25"></line><line x1="74.71875" y1="0" x2="74.71875" y2="176" fill="rgb(0, 0, 0)" stroke="rgb(60, 60, 60)" stroke-width="1px" opacity="0.25"></line><line x1="112.078125" y1="0" x2="112.078125" y2="176" fill="rgb(0, 0, 0)" stroke="rgb(60, 60, 60)" stroke-width="1px" opacity="0.25"></line><line x1="149.4375" y1="0" x2="149.4375" y2="176" fill="rgb(0, 0, 0)" stroke="rgb(60, 60, 60)" stroke-width="1px" opacity="0.25"></line><line x1="186.796875" y1="0" x2="186.796875" y2="176" fill="rgb(0, 0, 0)" stroke="rgb(60, 60, 60)" stroke-width="1px" opacity="0.25"></line><line x1="224.15625" y1="0" x2="224.15625" y2="176" fill="rgb(0, 0, 0)" stroke="rgb(60, 60, 60)" stroke-width="1px" opacity="0.25"></line><line x1="261.515625" y1="0" x2="261.515625" y2="176" fill="rgb(0, 0, 0)" stroke="rgb(60, 60, 60)" stroke-width="1px" opacity="0.25"></line><line x1="298.875" y1="0" x2="298.875" y2="176" fill="rgb(0, 0, 0)" stroke="rgb(60, 60, 60)" stroke-width="1px" opacity="0.25"></line></g><g><line x1="0" y1="176" x2="298.875" y2="176" fill="rgb(0, 0, 0)" stroke="rgb(60, 60, 60)" stroke-width="1px" opacity="0.25"></line><line x1="0" y1="154" x2="298.875" y2="154" fill="rgb(0, 0, 0)" stroke="rgb(60, 60, 60)" stroke-width="1px" opacity="0.25"></line><line x1="0" y1="132" x2="298.875" y2="132" fill="rgb(0, 0, 0)" stroke="rgb(60, 60, 60)" stroke-width="1px" opacity="0.25"></line><line x1="0" y1="110" x2="298.875" y2="110" fill="rgb(0, 0, 0)" stroke="rgb(60, 60, 60)" stroke-width="1px" opacity="0.25"></line><line x1="0" y1="88" x2="298.875" y2="88" fill="rgb(0, 0, 0)" stroke="rgb(60, 60, 60)" stroke-width="1px" opacity="0.25"></line><line x1="0" y1="66" x2="298.875" y2="66" fill="rgb(0, 0, 0)" stroke="rgb(60, 60, 60)" stroke-width="1px" opacity="0.25"></line><line x1="0" y1="44" x2="298.875" y2="44" fill="rgb(0, 0, 0)" stroke="rgb(60, 60, 60)" stroke-width="1px" opacity="0.25"></line><line x1="0" y1="22" x2="298.875" y2="22" fill="rgb(0, 0, 0)" stroke="rgb(60, 60, 60)" stroke-width="1px" opacity="0.25"></line><line x1="0" y1="0" x2="298.875" y2="0" fill="rgb(0, 0, 0)" stroke="rgb(60, 60, 60)" stroke-width="1px" opacity="0.25"></line></g></g></g><g><g><line x1="0" y1="154" x2="298.875" y2="154" fill="rgb(0, 0, 0)" stroke="rgb(153, 153, 153)" stroke-width="1.5px"></line></g></g><g><g><line x1="37.359375" y1="0" x2="37.359375" y2="176" fill="rgb(0, 0, 0)" stroke="rgb(153, 153, 153)" stroke-width="1.5px"></line></g></g><g><g><g><g><g><path stroke="rgb(0, 119, 187)" stroke-width="2px" d="M44.83125,-0.8295061274618831L45.5784375,3.783384334928968L46.325625,9.517401522326736L47.0728125,14.109858235155855L47.82,21.86716820775942L48.5671875,26.639129141911468L49.314375000000005,27.53389749422621L50.0615625,33.29576589576203L50.80875,37.69845657946789L51.5559375,40.21289512758477L52.303124999999994,44.708916943352506L53.0503125,48.556527212722045L53.7975,50.32398948991856L54.5446875,53.15660499194013L55.291875,56.23839039690547L56.0390625,58.03253314823239L56.78625,57.61854351307659L57.5334375,57.510657901945564L58.280625,59.632086745966205L59.0278125,60.60567285607593L59.775000000000006,62.83390968547812L60.5221875,64.64696216651907L61.269375,65.77361650166061L62.0165625,67.50493838321798L62.763749999999995,67.95996743228433L63.5109375,69.88143732733398L64.25812499999999,70.82717630606184L65.0053125,70.22739709000376L65.7525,71.57939785174098L66.49968750000001,72.15682816494144L67.246875,73.53750388249411L67.9940625,74.52802570643799L68.74125000000001,74.58572625151618L69.4884375,73.91861989386054L70.235625,75.05589544717672L70.9828125,75.72361447782035L71.73,75.91709959490258L72.4771875,75.78671117295426L73.224375,77.07509249968834L73.9715625,78.2976449163268L74.71875,78.20378287264718L75.4659375,79.16319654243877L76.213125,79.94597426091383L76.9603125,80.37811037441985L77.7075,80.42534797514021L78.4546875,81.40655613615874L79.201875,82.66112377568965L79.94906250000001,81.47798285916363L80.69625,82.07327409049823L81.4434375,80.98707144892781L82.19062500000001,80.99006269357542L82.9378125,81.23085768450464L83.685,81.52390584605436L84.4321875,82.34116082940994L85.179375,83.44006377669872L85.92656249999999,83.97991213686882L86.67375,84.79125462465062L87.4209375,85.84128307874543L88.16812499999999,85.96200800642696L88.9153125,85.97332327309446L89.6625,86.32664868797777L90.4096875,86.41537062147806L91.156875,85.88317638289661L91.9040625,86.01404309780436L92.65125,86.76843638724706L93.3984375,86.85312558356894L94.145625,86.79633259501442L94.8928125,87.52279528454771L95.64,86.86169749543566L96.3871875,86.49386313227116L97.134375,85.36578672091542L97.8815625,87.57715925789105L98.62875000000001,87.52092446098463L99.3759375,88.16735371833883L100.123125,89.75317498735095L100.87031250000001,91.19583580906097L101.6175,91.4108115745479L102.3646875,91.32199414687719L103.111875,91.19544029305796L103.8590625,91.20195426982892L104.60624999999999,89.98152183557899L105.3534375,88.78868437209934L106.100625,89.70464800118928L106.84781249999999,90.03494288396553L107.595,88.95688919229337L108.3421875,89.65840292455572L109.089375,90.09074152279985L109.8365625,91.5138458536213L110.58375,91.47460634029778L111.3309375,90.42068543503804L112.078125,90.1836487488158L112.8253125,90.7507031653051L113.5725,91.79885100684906L114.3196875,92.83469573594539L115.066875,94.02939898453599L115.8140625,92.25410560776261L116.56125,91.99631239419858L117.30843750000001,92.71191646483946L118.055625,92.28187033788807L118.8028125,92.60260654721525L119.55000000000001,92.2879482056729L120.2971875,93.28864737189008L121.044375,93.7304484023821L121.7915625,94.26609954680035L122.53875,94.09231399443763L123.28593749999999,94.37575674383055L124.033125,94.38609949307568L124.7803125,94.93583801005437L125.52749999999999,94.72184780725334L126.2746875,94.64225007229146L127.021875,93.1621449347323L127.7690625,93.37867413735304L128.51624999999999,93.0469998620505L129.2634375,93.72259399071663L130.010625,93.2876982401331L130.7578125,92.57292350950954L131.505,94.36567732347916L132.2521875,95.21151561649961L132.99937500000001,95.43333682961655L133.7465625,95.9477923199379L134.49375,95.42230957775375L135.2409375,94.72481290119327L135.988125,94.4532545925226L136.7353125,95.30234780556239L137.48250000000002,94.36752333787845L138.2296875,94.4548592480884L138.976875,95.17201756911672L139.7240625,95.02180978463409L140.47125,96.18714974407148L141.2184375,96.49649791529053L141.965625,97.44103732949658L142.71281249999998,97.77800740746358L143.46,98.70951684682188L144.2071875,98.56126262884509L144.954375,97.63339057291252L145.7015625,97.34917145922604L146.44875,98.05659058305515L147.19593749999999,97.6927400553995L147.943125,97.88818355350337L148.6903125,98.21227704494382L149.4375,98.80589604264011L150.1846875,97.97893969467587L150.931875,97.71322441250865L151.6790625,99.00175819486847L152.42625,98.62282585197967L153.17343749999998,98.9911727755921L153.920625,99.40446608600955L154.6678125,97.62793248974049L155.415,97.31283920575835L156.1621875,97.91285565358197L156.909375,98.64103889263745L157.65656249999998,99.49348014710591L158.40375,100.7081234581366L159.1509375,100.73542278093666L159.89812500000002,101.20557083775145L160.6453125,100.58375830465282L161.3925,100.50560593494014L162.1396875,100.89026678972384L162.886875,100.28931754453743L163.6340625,100.66685209288457L164.38125000000002,100.834537525262L165.1284375,101.69569398122165L165.875625,101.58757858966072L166.6228125,101.44366196092534L167.37,101.58625485477786L168.1171875,101.7041815017339L168.864375,101.14219746915558L169.6115625,100.72650851445232L170.35875,101.26630015872023L171.1059375,101.34167142213644L171.85312499999998,102.48092387378968L172.6003125,103.02217325127576L173.3475,102.66384228084358L174.0946875,102.72970322617216L174.841875,103.09970319180682L175.5890625,102.27247175639269L176.33624999999998,102.76569313684342L177.0834375,102.01468565749668L177.830625,101.9942705314609L178.57781250000002,101.81968853957967L179.325,101.61714011959742L180.0721875,102.1988752277643L180.819375,102.24469623040858L181.5665625,101.92629375142874L182.31375,101.45734683801544L183.06093750000002,102.37044783669597L183.808125,103.05794344566993L184.5553125,102.48831282033164L185.3025,102.37868486627126L186.0496875,102.32716331234087L186.796875,103.08666053623264L187.5440625,103.31392457491341L188.29125,104.19510599616876L189.0384375,103.98334915067977L189.785625,102.90849673406021L190.53281249999998,102.79426613125644L191.28,103.31765587016011L192.0271875,103.65719233801403L192.774375,105.0058652380135L193.5215625,104.42285126561083L194.26875,104.53850690194463L195.01593749999998,105.95070561211404L195.763125,105.10636361385046L196.5103125,104.59348934140598L197.25750000000002,105.80854874400374L198.0046875,105.91805222003505L198.751875,105.9123439357808L199.4990625,106.55599477089231L200.24625,106.76498785374632L200.9934375,106.90015405868334L201.74062500000002,107.12579662832525L202.4878125,107.03408896942678L203.235,107.78466129791585L203.9821875,106.97920772845654L204.729375,106.95838340172236L205.4765625,107.20100400953928L206.22375,107.18080427950285L206.9709375,106.34353841486968L207.718125,105.92022125448821L208.4653125,107.37649127320074L209.21249999999998,107.02675169751419L209.9596875,107.04817885664329L210.706875,107.28721526686684L211.4540625,107.85490484371385L212.20125,107.21710840305448L212.9484375,107.43460830355144L213.69562499999998,107.6461614054707L214.4428125,108.0017239428918L215.19,108.23833844288352L215.93718750000002,107.75499769463636L216.684375,107.55072261580526L217.4315625,108.38210242324291L218.17875,109.5801476844145L218.9259375,109.1973333005901L219.673125,109.20527864246344L220.42031250000002,109.15782874553665L221.1675,109.05499433594504L221.9146875,108.83470879028772L222.661875,109.07025429028592L223.4090625,108.54431550752116L224.15625,107.85544108063576L224.9034375,107.82444262689707L225.650625,108.26026326290582L226.3978125,108.90935558957943L227.145,108.87049814989024L227.89218749999998,109.38187942582282L228.639375,109.26768997238821L229.3865625,109.48208355740753L230.13375,109.48980799577264L230.8809375,109.55064779795187L231.628125,110.0192091743766L232.37531249999998,109.95517937425487L233.1225,109.6888777356369L233.8696875,109.39228828078645L234.61687500000002,108.93040684298357L235.3640625,109.42583092829992L236.11125,109.99967824447994L236.8584375,109.983784302645L237.605625,110.28221134696786L238.3528125,110.7614496109151L239.10000000000002,110.91590190155883L239.8471875,110.33015545978294L240.594375,110.29424088939516L241.3415625,109.94859867182069L242.08875,110.39072124532873L242.8359375,110.69536154968748L243.583125,111.05971555652147L244.3303125,111.025282306325L245.0775,110.39556382349227L245.8246875,110.41195087344107L246.57187499999998,110.53575939125214L247.3190625,110.23311121336457L248.06625,110.73723641796015L248.8134375,111.54584313251438L249.560625,110.61450874816097L250.3078125,111.02727183825205L251.05499999999998,110.91534503654498L251.8021875,110.64870653364574L252.549375,110.7860571111054L253.29656250000002,110.4100630691535L254.04375,110.61117822235147L254.7909375,110.86270058575464L255.538125,111.255705983777L256.28531250000003,110.98691846331307L257.03249999999997,111.395690201523L257.7796875,111.51983004498607L258.526875,110.89665419154242L259.2740625,110.73265605862663L260.02125,111.33821622428731L260.7684375,111.38177418647668" style="fill: none;" fill="none"></path></g></g></g></g><g opacity="0.2"><g><g><g><path stroke="rgb(0, 119, 187)" stroke-width="2px" d="M43.336875,-1.1740875244140625L44.084062499999995,0.7001052856445256L44.83125,11.328291320800787L45.5784375,10.67761688232423L46.325625,18.09970474243164L47.0728125,20.989546203613287L47.82,33.494014739990234L48.5671875,33.793704986572266L49.314375000000005,28.87567138671875L50.0615625,41.93710556030274L50.80875,44.30182189941405L51.5559375,43.98432312011718L52.303124999999994,51.452703094482416L53.0503125,54.327816009521484L53.7975,52.97514801025392L54.5446875,57.405494689941406L55.291875,60.86104660034181L56.0390625,60.72373962402344L56.78625,56.9975601196289L57.5334375,57.34882965087891L58.280625,62.81422805786133L59.0278125,62.0660514831543L59.775000000000006,66.17626419067383L60.5221875,67.36654052734374L61.269375,67.46359786987304L62.0165625,70.10192108154297L62.763749999999995,68.64251098632812L63.5109375,72.76364212036134L64.25812499999999,72.24578475952148L65.0053125,69.32772827148438L65.7525,73.6073989868164L66.49968750000001,73.0229736328125L67.246875,75.6085174560547L67.9940625,76.0138084411621L68.74125000000001,74.67227706909179L69.4884375,72.917960357666L70.235625,76.76180877685547L70.9828125,76.72519302368164L71.73,76.20732727050782L72.4771875,75.59112854003905L73.224375,79.0076644897461L73.9715625,80.13147354125977L74.71875,78.0629898071289L75.4659375,80.60231704711913L76.213125,81.12014083862306L76.9603125,81.02631454467775L77.7075,80.4962043762207L78.4546875,82.87836837768555L79.201875,84.54297523498536L79.94906250000001,79.703271484375L80.69625,82.9662109375L81.4434375,79.35776748657227L82.19062500000001,80.99454956054689L82.9378125,81.59205017089843L83.685,81.9634780883789L84.4321875,83.56704330444336L85.179375,85.08841819763182L85.92656249999999,84.78968467712403L86.67375,86.00826835632324L87.4209375,87.41632575988768L88.16812499999999,86.14309539794922L88.9153125,85.99029617309571L89.6625,86.85663681030275L90.4096875,86.5484535217285L91.156875,85.08488502502442L91.9040625,86.21034317016603L92.65125,87.90002632141113L93.3984375,86.98015937805175L94.145625,86.71114311218261L94.8928125,88.61248931884765L95.64,85.87005081176758L96.3871875,85.94211158752441L97.134375,83.67367210388184L97.8815625,90.89421806335449L98.62875000000001,87.43657226562499L99.3759375,89.13699760437012L100.123125,92.13190689086915L100.87031250000001,93.35982704162598L101.6175,91.73327522277832L102.3646875,91.18876800537109L103.111875,91.0056095123291L103.8590625,91.21172523498535L104.60624999999999,88.1508731842041L105.3534375,86.99942817687989L106.100625,91.07859344482422L106.84781249999999,90.53038520812989L107.595,87.33980865478514L108.3421875,90.71067352294922L109.089375,90.73924942016602L109.8365625,93.64850234985352L110.58375,91.4157470703125L111.3309375,88.83980407714844L112.078125,89.82809371948242L112.8253125,91.60128479003906L113.5725,93.37107276916504L114.3196875,94.38846282958984L115.066875,95.82145385742187L115.8140625,89.59116554260254L116.56125,91.60962257385253L117.30843750000001,93.78532257080079L118.055625,91.63680114746094L118.8028125,93.08371086120606L119.55000000000001,91.81596069335937L120.2971875,94.78969612121583L121.044375,94.39314994812011L121.7915625,95.06957626342773L122.53875,93.83163566589356L123.28593749999999,94.80092086791993L124.033125,94.40161361694337L124.7803125,95.76044578552246L125.52749999999999,94.40086250305175L126.2746875,94.52285346984863L127.021875,90.94198722839356L127.7690625,93.70346794128417L128.51624999999999,92.54948844909669L129.2634375,94.73598518371583L130.010625,92.6353546142578L130.7578125,91.50076141357422L131.505,97.0548080444336L132.2521875,96.48027305603027L132.99937500000001,95.766068649292L133.7465625,96.71947555541992L134.49375,94.63408546447754L135.2409375,93.67856788635254L135.988125,94.0459171295166L136.7353125,96.57598762512207L137.48250000000002,92.96528663635254L138.2296875,94.58586311340332L138.976875,96.24775505065918L139.7240625,94.79649810791015L140.47125,97.93515968322754L141.2184375,96.96052017211915L141.965625,98.85784645080567L142.71281249999998,98.28346252441406L143.46,100.10678100585938L144.2071875,98.33888130187988L144.954375,96.24158248901367L145.7015625,96.92284278869629L146.44875,99.11771926879882L147.19593749999999,97.14696426391602L147.943125,98.18134880065918L148.6903125,98.69841728210449L149.4375,99.69632453918457L150.1846875,96.73850517272949L150.931875,97.31465148925781L151.6790625,100.9345588684082L152.42625,98.05442733764649L153.17343749999998,99.54369316101074L153.920625,100.02440605163574L154.6678125,94.96313209533692L155.415,96.84019927978515L156.1621875,98.81288032531738L156.909375,99.7333137512207L157.65656249999998,100.77214202880859L158.40375,102.53008842468262L159.1509375,100.77637176513672L159.89812500000002,101.91079292297363L160.6453125,99.65103950500489L161.3925,100.3883773803711L162.1396875,101.46725807189941L162.886875,99.38789367675781L163.6340625,101.23315391540527L164.38125000000002,101.08606567382813L165.1284375,102.98742866516113L165.875625,101.42540550231934L166.6228125,101.22778701782227L167.37,101.80014419555664L168.1171875,101.88107147216797L168.864375,100.29922142028809L169.6115625,100.10297508239746L170.35875,102.07598762512207L171.1059375,101.45472831726075L171.85312499999998,104.18980255126954L172.6003125,103.83404731750488L173.3475,102.12634582519532L174.0946875,102.82849464416503L174.841875,103.65470314025879L175.5890625,101.03162460327148L176.33624999999998,103.50552520751953L177.0834375,100.88817443847657L177.830625,101.96364784240723L178.57781250000002,101.55781555175781L179.325,101.31331748962403L180.0721875,103.07147789001465L180.819375,102.313427734375L181.5665625,101.44869003295898L182.31375,100.75392646789551L183.06093750000002,103.7400993347168L183.808125,104.08918685913086L184.5553125,101.63386688232421L185.3025,102.21424293518066L186.0496875,102.24988098144532L186.796875,104.22590637207031L187.5440625,103.65482063293457L188.29125,105.51687812805176L189.0384375,103.66571388244628L189.785625,101.29621810913086L190.53281249999998,102.62292022705078L191.28,104.10274047851563L192.0271875,104.16649703979492L192.774375,107.0288745880127L193.5215625,103.54833030700684L194.26875,104.71199035644531L195.01593749999998,108.06900367736816L195.763125,103.83985061645508L196.5103125,103.82417793273926L197.25750000000002,107.63113784790039L198.0046875,106.08230743408203L198.751875,105.90378150939941L199.4990625,107.52147102355957L200.24625,107.07847747802734L200.9934375,107.10290336608887L201.74062500000002,107.46426048278809L202.4878125,106.8965274810791L203.235,108.91051979064942L203.9821875,105.77102737426758L204.729375,106.9271469116211L205.4765625,107.56493492126465L206.22375,107.15050468444824L206.9709375,105.08763961791992L207.718125,105.28524551391601L208.4653125,109.56089630126954L209.21249999999998,106.50214233398438L209.9596875,107.08031959533692L210.706875,107.64576988220215L211.4540625,108.70643920898438L212.20125,106.26041374206542L212.9484375,107.76085815429687L213.69562499999998,107.9634910583496L214.4428125,108.53506774902344L215.19,108.5932601928711L215.93718750000002,107.02998657226563L216.684375,107.24430999755859L217.4315625,109.62917213439941L218.17875,111.37721557617188L218.9259375,108.62311172485352L219.673125,109.21719665527344L220.42031250000002,109.08665390014649L221.1675,108.90074272155762L221.9146875,108.50428047180176L222.661875,109.4235725402832L223.4090625,107.75540733337402L224.15625,106.82212944030762L224.9034375,107.77794494628907L225.650625,108.91399421691895L226.3978125,109.88299407958985L227.145,108.81221199035645L227.89218749999998,110.14895133972168L228.639375,109.09640579223633L229.3865625,109.80367393493653L230.13375,109.50139465332032L230.8809375,109.6419075012207L231.628125,110.72205123901367L232.37531249999998,109.85913467407227L233.1225,109.28942527770997L233.8696875,108.94740409851075L234.61687500000002,108.23758468627929L235.3640625,110.16896705627441L236.11125,110.86044921875L236.8584375,109.95994338989257L237.605625,110.72985191345215L238.3528125,111.48030700683594L239.10000000000002,111.14758033752442L239.8471875,109.45153579711913L240.594375,110.24036903381348L241.3415625,109.43013534545898L242.08875,111.05390510559081L242.8359375,111.15232200622559L243.583125,111.60624656677246L244.3303125,110.97363243103027L245.0775,109.45098609924317L245.8246875,110.43653144836426L246.57187499999998,110.72147216796876L247.3190625,109.77913894653321L248.06625,111.49342422485351L248.8134375,112.75875320434571L249.560625,109.21750717163086L250.3078125,111.64641647338867L251.05499999999998,110.74745483398438L251.8021875,110.24874877929688L252.549375,110.99208297729493L253.29656250000002,109.84607200622558L254.04375,110.91285095214843L254.7909375,111.23998413085937L255.538125,111.84521408081055L256.28531250000003,110.58373718261718L257.03249999999997,112.00884780883788L257.7796875,111.70603981018067L258.526875,109.96189041137696L259.2740625,110.48665885925293L260.02125,112.24655647277832L260.7684375,111.44711112976074" style="fill: none;" fill="none"></path></g></g></g></g></g></g><g transform="translate(31, 176)" clip-path="url(#clip_1)"><clipPath id="clip_1"><rect width="298" height="24"></rect></clipPath><g><g><line x1="0" y1="0" x2="0" y2="5" style="visibility: inherit;" fill="rgb(0, 0, 0)" stroke="rgb(204, 204, 204)" stroke-width="1px"></line><line x1="37.359375" y1="0" x2="37.359375" y2="5" style="visibility: inherit;" fill="rgb(0, 0, 0)" stroke="rgb(204, 204, 204)" stroke-width="1px"></line><line x1="74.71875" y1="0" x2="74.71875" y2="5" style="visibility: inherit;" fill="rgb(0, 0, 0)" stroke="rgb(204, 204, 204)" stroke-width="1px"></line><line x1="112.078125" y1="0" x2="112.078125" y2="5" style="visibility: inherit;" fill="rgb(0, 0, 0)" stroke="rgb(204, 204, 204)" stroke-width="1px"></line><line x1="149.4375" y1="0" x2="149.4375" y2="5" style="visibility: inherit;" fill="rgb(0, 0, 0)" stroke="rgb(204, 204, 204)" stroke-width="1px"></line><line x1="186.796875" y1="0" x2="186.796875" y2="5" style="visibility: inherit;" fill="rgb(0, 0, 0)" stroke="rgb(204, 204, 204)" stroke-width="1px"></line><line x1="224.15625" y1="0" x2="224.15625" y2="5" style="visibility: inherit;" fill="rgb(0, 0, 0)" stroke="rgb(204, 204, 204)" stroke-width="1px"></line><line x1="261.515625" y1="0" x2="261.515625" y2="5" style="visibility: inherit;" fill="rgb(0, 0, 0)" stroke="rgb(204, 204, 204)" stroke-width="1px"></line><line x1="298.875" y1="0" x2="298.875" y2="5" style="visibility: inherit;" fill="rgb(0, 0, 0)" stroke="rgb(204, 204, 204)" stroke-width="1px"></line></g><g transform="translate(0, 8)"><text x="0" y="0" dx="0em" dy="0.95em" style="text-anchor: middle; visibility: hidden; font-family: &quot;Helvetica Neue&quot;, sans-serif; font-size: 12px; font-weight: 200;" fill="rgb(50, 49, 63)" stroke="none" stroke-width="1px">-50</text><text x="37.359375" y="0" dx="0em" dy="0.95em" style="text-anchor: middle; visibility: inherit; font-family: &quot;Helvetica Neue&quot;, sans-serif; font-size: 12px; font-weight: 200;" fill="rgb(50, 49, 63)" stroke="none" stroke-width="1px">0</text><text x="74.71875" y="0" dx="0em" dy="0.95em" style="text-anchor: middle; visibility: inherit; font-family: &quot;Helvetica Neue&quot;, sans-serif; font-size: 12px; font-weight: 200;" fill="rgb(50, 49, 63)" stroke="none" stroke-width="1px">50</text><text x="112.078125" y="0" dx="0em" dy="0.95em" style="text-anchor: middle; visibility: inherit; font-family: &quot;Helvetica Neue&quot;, sans-serif; font-size: 12px; font-weight: 200;" fill="rgb(50, 49, 63)" stroke="none" stroke-width="1px">100</text><text x="149.4375" y="0" dx="0em" dy="0.95em" style="text-anchor: middle; visibility: inherit; font-family: &quot;Helvetica Neue&quot;, sans-serif; font-size: 12px; font-weight: 200;" fill="rgb(50, 49, 63)" stroke="none" stroke-width="1px">150</text><text x="186.796875" y="0" dx="0em" dy="0.95em" style="text-anchor: middle; visibility: inherit; font-family: &quot;Helvetica Neue&quot;, sans-serif; font-size: 12px; font-weight: 200;" fill="rgb(50, 49, 63)" stroke="none" stroke-width="1px">200</text><text x="224.15625" y="0" dx="0em" dy="0.95em" style="text-anchor: middle; visibility: inherit; font-family: &quot;Helvetica Neue&quot;, sans-serif; font-size: 12px; font-weight: 200;" fill="rgb(50, 49, 63)" stroke="none" stroke-width="1px">250</text><text x="261.515625" y="0" dx="0em" dy="0.95em" style="text-anchor: middle; visibility: inherit; font-family: &quot;Helvetica Neue&quot;, sans-serif; font-size: 12px; font-weight: 200;" fill="rgb(50, 49, 63)" stroke="none" stroke-width="1px">300</text><text x="298.875" y="0" dx="0em" dy="0.95em" style="text-anchor: middle; visibility: hidden; font-family: &quot;Helvetica Neue&quot;, sans-serif; font-size: 12px; font-weight: 200;" fill="rgb(50, 49, 63)" stroke="none" stroke-width="1px">350</text></g><line x1="0" y1="0" x2="298.875" y2="0" fill="rgb(0, 0, 0)" stroke="rgb(204, 204, 204)" stroke-width="1px"></line></g></g></g></g></svg>