<svg viewBox="0 0 330 200" xmlns="http://www.w3.org/2000/svg"><g><g><g><g><g><line x1="52.25" y1="176" x2="47.25" y2="176" style="visibility: inherit;" fill="rgb(0, 0, 0)" stroke="rgb(204, 204, 204)" stroke-width="1px"></line><line x1="52.25" y1="156.44444444444446" x2="47.25" y2="156.44444444444446" style="visibility: inherit;" fill="rgb(0, 0, 0)" stroke="rgb(204, 204, 204)" stroke-width="1px"></line><line x1="52.25" y1="136.88888888888889" x2="47.25" y2="136.88888888888889" style="visibility: inherit;" fill="rgb(0, 0, 0)" stroke="rgb(204, 204, 204)" stroke-width="1px"></line><line x1="52.25" y1="117.33333333333333" x2="47.25" y2="117.33333333333333" style="visibility: inherit;" fill="rgb(0, 0, 0)" stroke="rgb(204, 204, 204)" stroke-width="1px"></line><line x1="52.25" y1="97.77777777777777" x2="47.25" y2="97.77777777777777" style="visibility: inherit;" fill="rgb(0, 0, 0)" stroke="rgb(204, 204, 204)" stroke-width="1px"></line><line x1="52.25" y1="78.22222222222221" x2="47.25" y2="78.22222222222221" style="visibility: inherit;" fill="rgb(0, 0, 0)" stroke="rgb(204, 204, 204)" stroke-width="1px"></line><line x1="52.25" y1="58.66666666666667" x2="47.25" y2="58.66666666666667" style="visibility: inherit;" fill="rgb(0, 0, 0)" stroke="rgb(204, 204, 204)" stroke-width="1px"></line><line x1="52.25" y1="39.11111111111114" x2="47.25" y2="39.11111111111114" style="visibility: inherit;" fill="rgb(0, 0, 0)" stroke="rgb(204, 204, 204)" stroke-width="1px"></line><line x1="52.25" y1="19.55555555555557" x2="47.25" y2="19.55555555555557" style="visibility: inherit;" fill="rgb(0, 0, 0)" stroke="rgb(204, 204, 204)" stroke-width="1px"></line><line x1="52.25" y1="0" x2="47.25" y2="0" style="visibility: inherit;" fill="rgb(0, 0, 0)" stroke="rgb(204, 204, 204)" stroke-width="1px"></line></g><g transform="translate(42.25, 0)"><text x="0" y="176" dx="0em" dy="0.3em" style="text-anchor: end; visibility: hidden; font-family: &quot;Helvetica Neue&quot;, sans-serif; font-size: 12px; font-weight: 200;" fill="rgb(50, 49, 63)" stroke="none" stroke-width="1px">-0.1</text><text x="0" y="156.44444444444446" dx="0em" dy="0.3em" style="text-anchor: end; visibility: inherit; font-family: &quot;Helvetica Neue&quot;, sans-serif; font-size: 12px; font-weight: 200;" fill="rgb(50, 49, 63)" stroke="none" stroke-width="1px">0</text><text x="0" y="136.88888888888889" dx="0em" dy="0.3em" style="text-anchor: end; visibility: hidden; font-family: &quot;Helvetica Neue&quot;, sans-serif; font-size: 12px; font-weight: 200;" fill="rgb(50, 49, 63)" stroke="none" stroke-width="1px">0.1</text><text x="0" y="117.33333333333333" dx="0em" dy="0.3em" style="text-anchor: end; visibility: inherit; font-family: &quot;Helvetica Neue&quot;, sans-serif; font-size: 12px; font-weight: 200;" fill="rgb(50, 49, 63)" stroke="none" stroke-width="1px">0.2</text><text x="0" y="97.77777777777777" dx="0em" dy="0.3em" style="text-anchor: end; visibility: hidden; font-family: &quot;Helvetica Neue&quot;, sans-serif; font-size: 12px; font-weight: 200;" fill="rgb(50, 49, 63)" stroke="none" stroke-width="1px">0.3</text><text x="0" y="78.22222222222221" dx="0em" dy="0.3em" style="text-anchor: end; visibility: inherit; font-family: &quot;Helvetica Neue&quot;, sans-serif; font-size: 12px; font-weight: 200;" fill="rgb(50, 49, 63)" stroke="none" stroke-width="1px">0.4</text><text x="0" y="58.66666666666667" dx="0em" dy="0.3em" style="text-anchor: end; visibility: hidden; font-family: &quot;Helvetica Neue&quot;, sans-serif; font-size: 12px; font-weight: 200;" fill="rgb(50, 49, 63)" stroke="none" stroke-width="1px">0.5</text><text x="0" y="39.11111111111114" dx="0em" dy="0.3em" style="text-anchor: end; visibility: inherit; font-family: &quot;Helvetica Neue&quot;, sans-serif; font-size: 12px; font-weight: 200;" fill="rgb(50, 49, 63)" stroke="none" stroke-width="1px">0.6</text><text x="0" y="19.55555555555557" dx="0em" dy="0.3em" style="text-anchor: end; visibility: hidden; font-family: &quot;Helvetica Neue&quot;, sans-serif; font-size: 12px; font-weight: 200;" fill="rgb(50, 49, 63)" stroke="none" stroke-width="1px">0.7</text><text x="0" y="0" dx="0em" dy="0.3em" style="text-anchor: end; visibility: hidden; font-family: &quot;Helvetica Neue&quot;, sans-serif; font-size: 12px; font-weight: 200;" fill="rgb(50, 49, 63)" stroke="none" stroke-width="1px">0.8</text></g><line x1="52.25" y1="0" x2="52.25" y2="176" fill="rgb(0, 0, 0)" stroke="rgb(204, 204, 204)" stroke-width="1px"></line></g></g><g transform="translate(52, 0)" clip-path="url(#clip_0)"><clipPath id="clip_0"><rect width="277" height="176"></rect></clipPath><g><g><g><line x1="0" y1="0" x2="0" y2="176" fill="rgb(0, 0, 0)" stroke="rgb(60, 60, 60)" stroke-width="1px" opacity="0.25"></line><line x1="34.71875" y1="0" x2="34.71875" y2="176" fill="rgb(0, 0, 0)" stroke="rgb(60, 60, 60)" stroke-width="1px" opacity="0.25"></line><line x1="69.4375" y1="0" x2="69.4375" y2="176" fill="rgb(0, 0, 0)" stroke="rgb(60, 60, 60)" stroke-width="1px" opacity="0.25"></line><line x1="104.15625" y1="0" x2="104.15625" y2="176" fill="rgb(0, 0, 0)" stroke="rgb(60, 60, 60)" stroke-width="1px" opacity="0.25"></line><line x1="138.875" y1="0" x2="138.875" y2="176" fill="rgb(0, 0, 0)" stroke="rgb(60, 60, 60)" stroke-width="1px" opacity="0.25"></line><line x1="173.59375" y1="0" x2="173.59375" y2="176" fill="rgb(0, 0, 0)" stroke="rgb(60, 60, 60)" stroke-width="1px" opacity="0.25"></line><line x1="208.3125" y1="0" x2="208.3125" y2="176" fill="rgb(0, 0, 0)" stroke="rgb(60, 60, 60)" stroke-width="1px" opacity="0.25"></line><line x1="243.03125" y1="0" x2="243.03125" y2="176" fill="rgb(0, 0, 0)" stroke="rgb(60, 60, 60)" stroke-width="1px" opacity="0.25"></line><line x1="277.75" y1="0" x2="277.75" y2="176" fill="rgb(0, 0, 0)" stroke="rgb(60, 60, 60)" stroke-width="1px" opacity="0.25"></line></g><g><line x1="0" y1="176" x2="277.75" y2="176" fill="rgb(0, 0, 0)" stroke="rgb(60, 60, 60)" stroke-width="1px" opacity="0.25"></line><line x1="0" y1="156.44444444444446" x2="277.75" y2="156.44444444444446" fill="rgb(0, 0, 0)" stroke="rgb(60, 60, 60)" stroke-width="1px" opacity="0.25"></line><line x1="0" y1="136.88888888888889" x2="277.75" y2="136.88888888888889" fill="rgb(0, 0, 0)" stroke="rgb(60, 60, 60)" stroke-width="1px" opacity="0.25"></line><line x1="0" y1="117.33333333333333" x2="277.75" y2="117.33333333333333" fill="rgb(0, 0, 0)" stroke="rgb(60, 60, 60)" stroke-width="1px" opacity="0.25"></line><line x1="0" y1="97.77777777777777" x2="277.75" y2="97.77777777777777" fill="rgb(0, 0, 0)" stroke="rgb(60, 60, 60)" stroke-width="1px" opacity="0.25"></line><line x1="0" y1="78.22222222222221" x2="277.75" y2="78.22222222222221" fill="rgb(0, 0, 0)" stroke="rgb(60, 60, 60)" stroke-width="1px" opacity="0.25"></line><line x1="0" y1="58.66666666666667" x2="277.75" y2="58.66666666666667" fill="rgb(0, 0, 0)" stroke="rgb(60, 60, 60)" stroke-width="1px" opacity="0.25"></line><line x1="0" y1="39.11111111111114" x2="277.75" y2="39.11111111111114" fill="rgb(0, 0, 0)" stroke="rgb(60, 60, 60)" stroke-width="1px" opacity="0.25"></line><line x1="0" y1="19.55555555555557" x2="277.75" y2="19.55555555555557" fill="rgb(0, 0, 0)" stroke="rgb(60, 60, 60)" stroke-width="1px" opacity="0.25"></line><line x1="0" y1="0" x2="277.75" y2="0" fill="rgb(0, 0, 0)" stroke="rgb(60, 60, 60)" stroke-width="1px" opacity="0.25"></line></g></g></g><g><g><line x1="0" y1="156.44444444444446" x2="277.75" y2="156.44444444444446" fill="rgb(0, 0, 0)" stroke="rgb(153, 153, 153)" stroke-width="1.5px"></line></g></g><g><g><line x1="34.71875" y1="0" x2="34.71875" y2="176" fill="rgb(0, 0, 0)" stroke="rgb(153, 153, 153)" stroke-width="1.5px"></line></g></g><g><g><g><g><g><path stroke="rgb(0, 119, 187)" stroke-width="2px" d="M34.71875,156.44444444444446L35.413125,156.44444444444446L36.1075,156.44444444444446L36.801875,156.44444444444446L37.49625,156.44444444444446L38.190625000000004,156.44444444444446L38.885000000000005,156.44444444444446L39.579375,156.44444444444446L40.27375,156.44444444444446L40.968125,156.44444444444446L41.6625,156.44444444444446L42.356875,156.27940683844088L43.05125,156.01572887537026L43.745625,156.0225420870583L44.44,154.93689395395657L45.134375,154.070394796223L45.82875,155.02017542164353L46.523125,155.01449941035696L47.2175,155.58651228015333L47.911874999999995,154.85945749778975L48.606249999999996,155.32574906865133L49.300625,153.81765178443956L49.995,154.1640761344726L50.689375,154.90336017991842L51.38375,153.7799887552721L52.078125,154.68143223814414L52.7725,155.3866378424354L53.466875,151.8227017479054L54.16125,152.72901166568084L54.855625,148.01180998428515L55.550000000000004,149.26463006762486L56.244375000000005,146.29420313867527L56.93875,147.39630795462827L57.633125,150.0207084006942L58.3275,148.59838825987418L59.021875,144.400514979734L59.71625,146.61156917299024L60.410625,140.88337579174194L61.105,145.3847594766968L61.799375,144.692203922024L62.49375,144.47408742533221L63.188125,144.47199060746917L63.8825,143.42836646212803L64.576875,137.32964073430674L65.27125,132.37390975456952L65.965625,126.81855912618538L66.66,131.01780652519835L67.354375,127.92186945514281L68.04875,131.65263186600703L68.743125,130.92307862199226L69.4375,131.0948142879626L70.131875,124.8741644253867L70.82625,122.50629341519019L71.520625,125.50086980081267L72.215,122.086400506991L72.909375,127.59233130235883L73.60375,127.72411205435776L74.298125,118.98876690505813L74.9925,113.30339320815213L75.686875,125.24211967445106L76.38125000000001,124.13594711628897L77.075625,119.45587651680971L77.77000000000001,109.2575530096951L78.46437499999999,105.74984528068411L79.15875,114.61670419175982L79.85312499999999,110.89695287902887L80.5475,111.63076875636156L81.241875,120.26889118503371L81.93625,117.25577805344102L82.630625,110.42235212666095L83.325,118.43347422697855L84.019375,110.25225999869798L84.71375,108.61069272508955L85.408125,107.49157059653376L86.1025,102.95860961289802L86.796875,97.97419433388738L87.49125,98.25560195799844L88.185625,98.219256297751L88.88,99.76795065297244L89.574375,110.4193353408191L90.26875,117.86757808912145L90.963125,118.90083974592892L91.6575,106.77985134782863L92.351875,116.25430880623541L93.04625,120.36627387983094L93.74062500000001,109.46845007991949L94.435,111.59321578973228L95.12937500000001,96.86084509273586L95.82374999999999,100.86862667098441L96.518125,100.99575604680722L97.21249999999999,101.8293462350315L97.906875,103.29878461751086L98.60125,92.17827941545825L99.295625,86.56561569513269L99.99,92.45504858578079L100.684375,96.55526779384316L101.37875,95.90118601098199L102.073125,90.75526302362208L102.7675,88.38510925222934L103.461875,94.75263919025362L104.15625,92.69431087858631L104.850625,91.71467629630327L105.545,95.07781056565089L106.239375,97.85381728014575L106.93375,86.11145554278363L107.628125,95.51384750779908L108.3225,91.50856286021602L109.016875,95.9739323057021L109.71125,90.55762653599558L110.405625,97.58342846065985L111.10000000000001,94.70780468415687L111.794375,93.28563145788725L112.48875000000001,88.87225049067203L113.18312499999999,99.76170120501384L113.8775,94.63825071704042L114.57187499999999,91.51570770188496L115.26625,87.79474943836459L115.960625,84.3222794013814L116.655,87.66736696096501L117.349375,81.95691775043156L118.04375,90.00134160044068L118.738125,89.0074600387285L119.4325,81.57702741144783L120.126875,83.87961111205695L120.82125,96.99883699923151L121.515625,94.52826507660055L122.21,87.19636256294167L122.904375,81.22396382038491L123.59875,72.7627648533068L124.293125,81.31968809357046L124.9875,85.34672533850991L125.681875,82.67296448709575L126.37625,78.93949824588702L127.070625,72.09643545028555L127.765,81.45055871042469L128.459375,78.95363223519308L129.15375,72.82135307768812L129.848125,95.9817012229353L130.5425,91.0415391121249L131.236875,82.90219253397957L131.93125,71.20357578785737L132.62562499999999,69.5138968256604L133.32,67.8671442816484L134.014375,68.53733169600997L134.70875,75.56814079820494L135.403125,74.68945129716029L136.0975,75.00569746761366L136.791875,68.73194461717844L137.48625,61.87341139243162L138.180625,75.61839739596516L138.875,72.70731472508182L139.56937499999998,82.17746242140703L140.26375,69.90832300338135L140.958125,66.51413107857232L141.6525,69.95657913983274L142.34687499999998,76.69499511844826L143.04125,78.53172574436813L143.735625,72.06614712739346L144.43,73.6770928242334L145.124375,67.95011882150672L145.81875,60.462877875884715L146.513125,53.67429748223114L147.2075,52.7623689488656L147.901875,70.05658188160778L148.59625,65.25024916083858L149.290625,74.03654942258278L149.985,72.73258389108493L150.679375,74.14176701284649L151.37375,68.35843103527678L152.068125,70.12257429533328L152.76250000000002,66.19797207591147L153.456875,62.21918921410699L154.15125,66.58025586516125L154.845625,65.17587920506409L155.54000000000002,66.38934939193494L156.234375,62.8945535777608L156.92874999999998,60.116162620831815L157.623125,81.0218955162925L158.3175,72.86625192532183L159.011875,69.69709876227587L159.70624999999998,63.86636504824551L160.400625,61.15639858488265L161.095,56.64251400987057L161.789375,58.48090037878205L162.48375,62.09703059897332L163.178125,62.21909579909483L163.8725,63.92308896613767L164.566875,65.56285292870062L165.26125,63.285597185754995L165.955625,61.61862101185173L166.65,58.81232810434412L167.344375,59.1002053444587L168.03875,57.54238113446385L168.733125,51.92507662650624L169.4275,55.64131128555543L170.12187500000002,51.81015043913925L170.81625,49.41236377897293L171.510625,59.45671489654771L172.205,57.04069119650069L172.89937500000002,55.365919980487234L173.59375,53.636957349891745L174.28812499999998,53.829588214731075L174.9825,53.87839639197341L175.676875,57.70862064632772L176.37125,57.26940431121787L177.06562499999998,55.08437970831275L177.76,56.62694732877182L178.454375,51.354439203469695L179.14875,49.43769946500717L179.843125,49.422611557937685L180.5375,49.27644206361461L181.231875,47.23187187743741L181.92625,49.27954806678363L182.620625,46.97567120931933L183.315,54.24261504655513L184.009375,50.664169576571325L184.70375,48.73026757778415L185.398125,44.142739624497096L186.0925,46.0886570464539L186.786875,45.55423750518895L187.48125000000002,47.31249745577722L188.175625,49.97187652522416L188.87,54.2151827659917L189.564375,53.3665513371124L190.25875000000002,52.943715609260735L190.953125,50.8208315858798L191.64749999999998,48.7075553920932L192.341875,45.41654297036334L193.03625,46.978562968904214L193.730625,46.668189247542614L194.42499999999998,47.139233962750836L195.119375,47.202298685213435L195.81375,45.10463353784246L196.508125,45.85696355708592L197.2025,44.01623332359617L197.896875,46.18839549139079L198.59125,43.33598617450028L199.285625,42.96489889464158L199.98,38.33791701487198L200.674375,39.50296374719903L201.36875,38.76527549495569L202.063125,40.52208347256479L202.7575,39.658795025758906L203.451875,42.273913354431045L204.14625,43.364364882097675L204.84062500000002,43.77858707229788L205.535,44.78283607448765L206.229375,44.754212024059996L206.92375,44.57492101326412L207.61812500000002,41.31065856431155L208.3125,41.49323260196584L209.00687499999998,40.48162181554693L209.70125,39.64359573947465L210.395625,38.7214384766709L211.09,40.44994046840813L211.78437499999998,40.15373291372177L212.47875,40.139122716711796L213.173125,40.15241444966139L213.8675,41.49298022836348L214.561875,38.96409910774835L215.25625,37.70946913872129L215.950625,39.94035238506112L216.645,39.611129749043414L217.339375,38.98832862999788L218.03375,37.57114981336113L218.728125,38.06677707334654L219.4225,37.718209469783744L220.116875,37.38296010230752L220.81125,38.6615607971701L221.505625,38.76317182986455L222.20000000000002,38.496781475197395L222.894375,38.32246582386628L223.58875,39.40872065100382L224.283125,38.630797491378104L224.97750000000002,38.142358737068605L225.671875,37.1600797184239L226.36624999999998,35.73511558685945L227.060625,35.77091342424569L227.755,36.117492495601L228.449375,36.37983624985628L229.14374999999998,35.685658385791584L229.838125,36.52971286866028L230.5325,37.06215713132531L231.226875,36.5678144000517L231.92125,36.34581194800083L232.615625,36.53909091839358L233.31,35.6199385021809L234.004375,35.737637777144045L234.69875,35.86077004082529L235.393125,36.049554438503435L236.0875,36.29411381748031L236.781875,35.99513724936406L237.47625,35.76432961320893L238.170625,35.54308729361435L238.865,35.819370273032774L239.55937500000002,35.63183212475718L240.25375,35.299462722255555L240.948125,35.333091533092926L241.6425,35.390544769709294L242.33687500000002,35.32836966103346" style="fill: none;" fill="none"></path></g></g></g></g><g opacity="0.2"><g><g><g><path stroke="rgb(0, 119, 187)" stroke-width="2px" d="M34.71875,156.44444444444446L35.413125,156.44444444444446L36.1075,156.44444444444446L36.801875,156.44444444444446L37.49625,156.44444444444446L38.190625000000004,156.44444444444446L38.885000000000005,156.44444444444446L39.579375,156.44444444444446L40.27375,156.44444444444446L40.968125,156.44444444444446L41.6625,156.44444444444446L42.356875,156.03274855679936L43.05125,155.62107288506297L43.745625,156.03274855679936L44.44,153.30969789293079L45.134375,152.77125718196234L45.82875,156.44444444444446L46.523125,155.0059868345658L47.2175,156.44444444444446L47.911874999999995,153.7689417799314L48.606249999999996,156.02516085240575L49.300625,151.55555548270544L49.995,154.68370581997766L50.689375,156.01227749056287L51.38375,152.0949396027459L52.078125,156.0335936182075L52.7725,156.44444444444446L53.466875,146.4768030775918L54.16125,154.08847570750447L54.855625,140.9360100693173L55.550000000000004,151.14385977718564L56.244375000000005,141.83856333626642L56.93875,149.0494650469886L57.633125,153.95730888181262L58.3275,146.46490810977087L59.021875,138.10370516777039L59.71625,149.92815042866602L60.410625,132.29108577304416L61.105,152.1368349790573L61.799375,143.65337059232922L62.49375,144.14691268073187L63.188125,144.46884538067712L63.8825,141.86293024486966L64.576875,128.1815521452162L65.27125,124.9403132862515L65.965625,118.48553318447537L66.66,137.31667762332492L67.354375,123.2779638502333L68.04875,137.24877548217773L68.743125,129.82874875598483L69.4375,131.3524177869161L70.131875,115.54318963156807L70.82625,118.95448689990573L71.520625,129.99273437923856L72.215,116.96469656626384L72.909375,135.8512274954054L73.60375,127.9217831823561L74.298125,105.88574918111166L74.9925,104.77533266279434L75.686875,143.15020937389798L76.38125000000001,122.47668827904596L77.075625,112.43577061759102L77.77000000000001,93.96006774902345L78.46437499999999,100.4882836871677L79.15875,127.91699255837334L79.85312499999999,105.31732590993246L80.5475,112.73149257236057L81.241875,133.22607482804193L81.93625,112.73610835605197L82.630625,100.17221323649089L83.325,130.45015737745496L84.019375,97.98043865627713L84.71375,106.14834181467693L85.408125,105.8128874037001L86.1025,96.1591681374444L86.796875,90.49757141537137L87.49125,98.67771339416505L88.185625,98.16473780737984L88.88,102.0909921858046L89.574375,126.39641237258911L90.26875,129.03994221157498L90.963125,120.45073223114014L91.6575,88.59836875067818L92.351875,130.4659949938456L93.04625,126.53422149022421L93.74062500000001,93.12171438005237L94.435,114.7803643544515L95.12937500000001,74.76228904724121L95.82374999999999,106.88029903835721L96.518125,101.18645011054146L97.21249999999999,103.07973151736789L97.906875,105.50294219122993L98.60125,75.4975216123793L99.295625,78.14662011464438L99.99,101.28919792175294L100.684375,102.70559660593669L101.37875,94.92006333669028L102.073125,83.0363785425822L102.7675,84.82987859514026L103.461875,104.30393409729005L104.15625,89.60681841108536L104.850625,90.24522442287869L105.545,100.12251196967232L106.239375,102.01782735188803L106.93375,68.49791293674045L107.628125,109.61743545532228L108.3225,85.50063588884143L109.016875,102.67198647393121L109.71125,82.43316788143582L110.405625,108.12213134765626L111.10000000000001,90.3943690194024L111.794375,91.15237161848282L112.48875000000001,82.2521790398492L113.18312499999999,116.09587727652656L113.8775,86.95307498508029L114.57187499999999,86.83189317915176L115.26625,82.21331204308406L115.960625,79.11357434590658L116.655,92.68499830034045L117.349375,73.39124393463135L118.04375,102.06797737545438L118.738125,87.51663769616023L119.4325,70.43137847052681L120.126875,87.33348666297066L120.82125,116.67767582999336L121.515625,90.82240719265408L122.21,76.19850879245334L122.904375,72.26536570654976L123.59875,60.07096640268962L124.293125,94.15507295396594L124.9875,91.38728120591907L125.681875,78.66232320997452L126.37625,73.3392988840739L127.070625,61.83184125688342L127.765,95.48174360063342L128.459375,75.20824252234566L129.15375,63.622934341430664L129.848125,130.72222344080606L130.5425,83.6312959459093L131.236875,70.69317266676163L131.93125,53.65565066867404L132.62562499999999,66.97937838236491L133.32,65.39701546563045L134.014375,69.54261281755237L134.70875,86.1143544514974L135.403125,73.37141704559326L136.0975,75.48006672329373L136.791875,59.321315341525604L137.48625,51.58561155531143L138.180625,96.23587640126547L138.875,68.34069071875679L139.56937499999998,96.38268396589493L140.26375,51.50461387634277L140.958125,61.422843191358794L141.6525,75.12025123172336L142.34687499999998,86.80261908637154L143.04125,81.2868216832479L143.735625,62.36777920193143L144.43,76.09351136949329L145.124375,59.35965781741672L145.81875,49.232016457451735L146.513125,43.49142689175079L147.2075,51.39447614881729L147.901875,95.99790128072104L148.59625,58.040750079684784L149.290625,87.21599981519913L149.985,70.77663559383817L150.679375,76.25554169548884L151.37375,59.68342706892227L152.068125,72.76878918541804L152.76250000000002,60.311068746778716L153.456875,56.2510149214003L154.15125,73.12185584174263L154.845625,63.069314214918364L155.54000000000002,68.20955467224121L156.234375,57.65235985649959L156.92874999999998,55.948576185438384L157.623125,112.3804948594835L158.3175,60.632786538865844L159.011875,64.94336901770698L159.70624999999998,55.12026447719998L160.400625,57.09144888983833L161.095,49.871687147352446L161.789375,61.23847993214926L162.48375,67.52122592926025L163.178125,62.40219359927707L163.8725,66.47907871670193L164.566875,68.02249887254504L165.26125,59.86971357133655L165.955625,59.11815675099692L166.65,54.60288874308269L167.344375,59.53202120463054L168.03875,55.20564481947159L168.733125,43.499119864569764L169.4275,61.21566327412924L170.12187500000002,46.06340916951498L170.81625,45.81568378872342L171.510625,74.52324157290988L172.205,53.41665564643013L172.89937500000002,52.85376315646701L173.59375,51.04351340399849L174.28812499999998,54.11853451199002L174.9825,53.951608657836914L175.676875,63.45395702785916L176.37125,56.61057980855307L177.06562499999998,51.80684280395508L177.76,58.94079875946045L178.454375,43.44567701551651L179.14875,46.562589857313384L179.843125,49.39997969733345L180.5375,49.057187822130004L181.231875,44.16501659817166L181.92625,52.35106235080295L182.620625,43.51985592312286L183.315,65.14303080240886L184.009375,45.29650137159561L184.70375,45.82941457960342L185.398125,37.26144769456653L186.0925,49.007533179389114L186.786875,44.752608193291564L187.48125000000002,49.94988738165962L188.175625,53.96094512939453L188.87,60.58014212714302L189.564375,52.09360419379341L190.25875000000002,52.309462017483185L190.953125,47.63650555080838L191.64749999999998,45.5376411014133L192.341875,40.480024337768555L193.03625,49.3215929667155L193.730625,46.202628665500214L194.42499999999998,47.84580103556317L195.119375,47.29689576890735L195.81375,41.95813581678604L196.508125,46.98545858595108L197.2025,41.25513797336154L197.896875,49.44663874308269L198.59125,39.05737219916449L199.285625,42.408267974853516L199.98,31.397444195217588L200.674375,41.250533845689574L201.36875,37.65874311659073L202.063125,43.15729543897842L202.7575,38.36386235555014L203.451875,46.19659084743924L204.14625,45.00004217359756L204.84062500000002,44.399920357598205L205.535,46.28920957777237L206.229375,44.71127594841852L206.92375,44.30598449707031L207.61812500000002,36.41426489088272L208.3125,41.767093658447266L209.00687499999998,38.96420563591852L209.70125,38.38655662536621L210.395625,37.33820258246527L211.09,43.04269345601401L211.78437499999998,39.7094215816922L212.47875,40.11720742119684L213.173125,40.172352049085845L213.8675,43.503828896416564L214.561875,35.17077742682562L215.25625,35.827524185180664L215.950625,43.28667725457086L216.645,39.117295795016815L217.339375,38.054126951429595L218.03375,35.445381588406065L218.728125,38.81021796332465L219.4225,37.195358064439574L220.116875,36.8800860510932L220.81125,40.57946183946399L221.505625,38.91558837890625L222.20000000000002,38.097195943196624L222.894375,38.06099234686957L223.58875,41.03810289171008L224.283125,37.463912751939574L224.97750000000002,37.4097006056044L225.671875,35.686661190456846L226.36624999999998,33.59766938951282L227.060625,35.82461018032501L227.755,36.637361102634L228.449375,36.773351881239165L229.14374999999998,34.64439158969455L229.838125,37.79579459296332L230.5325,37.860823525322814L231.226875,35.826300303141295L231.92125,36.01280826992462L232.615625,36.82900937398276L233.31,34.24120987786188L234.004375,35.914186689588774L234.69875,36.04546843634711L235.393125,36.33273103502063L236.0875,36.66095288594565L236.781875,35.54667239718967L237.47625,35.418118158976256L238.170625,35.21122381422256L238.865,36.23379474216037L239.55937500000002,35.35052490234375L240.25375,34.80090861850314L240.948125,35.38353474934897L241.6425,35.47672462463379L242.33687500000002,35.235106998019745" style="fill: none;" fill="none"></path></g></g></g></g></g></g><g transform="translate(52, 176)" clip-path="url(#clip_1)"><clipPath id="clip_1"><rect width="277" height="24"></rect></clipPath><g><g><line x1="0" y1="0" x2="0" y2="5" style="visibility: inherit;" fill="rgb(0, 0, 0)" stroke="rgb(204, 204, 204)" stroke-width="1px"></line><line x1="34.71875" y1="0" x2="34.71875" y2="5" style="visibility: inherit;" fill="rgb(0, 0, 0)" stroke="rgb(204, 204, 204)" stroke-width="1px"></line><line x1="69.4375" y1="0" x2="69.4375" y2="5" style="visibility: inherit;" fill="rgb(0, 0, 0)" stroke="rgb(204, 204, 204)" stroke-width="1px"></line><line x1="104.15625" y1="0" x2="104.15625" y2="5" style="visibility: inherit;" fill="rgb(0, 0, 0)" stroke="rgb(204, 204, 204)" stroke-width="1px"></line><line x1="138.875" y1="0" x2="138.875" y2="5" style="visibility: inherit;" fill="rgb(0, 0, 0)" stroke="rgb(204, 204, 204)" stroke-width="1px"></line><line x1="173.59375" y1="0" x2="173.59375" y2="5" style="visibility: inherit;" fill="rgb(0, 0, 0)" stroke="rgb(204, 204, 204)" stroke-width="1px"></line><line x1="208.3125" y1="0" x2="208.3125" y2="5" style="visibility: inherit;" fill="rgb(0, 0, 0)" stroke="rgb(204, 204, 204)" stroke-width="1px"></line><line x1="243.03125" y1="0" x2="243.03125" y2="5" style="visibility: inherit;" fill="rgb(0, 0, 0)" stroke="rgb(204, 204, 204)" stroke-width="1px"></line><line x1="277.75" y1="0" x2="277.75" y2="5" style="visibility: inherit;" fill="rgb(0, 0, 0)" stroke="rgb(204, 204, 204)" stroke-width="1px"></line></g><g transform="translate(0, 8)"><text x="0" y="0" dx="0em" dy="0.95em" style="text-anchor: middle; visibility: hidden; font-family: &quot;Helvetica Neue&quot;, sans-serif; font-size: 12px; font-weight: 200;" fill="rgb(50, 49, 63)" stroke="none" stroke-width="1px">-50</text><text x="34.71875" y="0" dx="0em" dy="0.95em" style="text-anchor: middle; visibility: inherit; font-family: &quot;Helvetica Neue&quot;, sans-serif; font-size: 12px; font-weight: 200;" fill="rgb(50, 49, 63)" stroke="none" stroke-width="1px">0</text><text x="69.4375" y="0" dx="0em" dy="0.95em" style="text-anchor: middle; visibility: inherit; font-family: &quot;Helvetica Neue&quot;, sans-serif; font-size: 12px; font-weight: 200;" fill="rgb(50, 49, 63)" stroke="none" stroke-width="1px">50</text><text x="104.15625" y="0" dx="0em" dy="0.95em" style="text-anchor: middle; visibility: inherit; font-family: &quot;Helvetica Neue&quot;, sans-serif; font-size: 12px; font-weight: 200;" fill="rgb(50, 49, 63)" stroke="none" stroke-width="1px">100</text><text x="138.875" y="0" dx="0em" dy="0.95em" style="text-anchor: middle; visibility: inherit; font-family: &quot;Helvetica Neue&quot;, sans-serif; font-size: 12px; font-weight: 200;" fill="rgb(50, 49, 63)" stroke="none" stroke-width="1px">150</text><text x="173.59375" y="0" dx="0em" dy="0.95em" style="text-anchor: middle; visibility: inherit; font-family: &quot;Helvetica Neue&quot;, sans-serif; font-size: 12px; font-weight: 200;" fill="rgb(50, 49, 63)" stroke="none" stroke-width="1px">200</text><text x="208.3125" y="0" dx="0em" dy="0.95em" style="text-anchor: middle; visibility: inherit; font-family: &quot;Helvetica Neue&quot;, sans-serif; font-size: 12px; font-weight: 200;" fill="rgb(50, 49, 63)" stroke="none" stroke-width="1px">250</text><text x="243.03125" y="0" dx="0em" dy="0.95em" style="text-anchor: middle; visibility: inherit; font-family: &quot;Helvetica Neue&quot;, sans-serif; font-size: 12px; font-weight: 200;" fill="rgb(50, 49, 63)" stroke="none" stroke-width="1px">300</text><text x="277.75" y="0" dx="0em" dy="0.95em" style="text-anchor: middle; visibility: hidden; font-family: &quot;Helvetica Neue&quot;, sans-serif; font-size: 12px; font-weight: 200;" fill="rgb(50, 49, 63)" stroke="none" stroke-width="1px">350</text></g><line x1="0" y1="0" x2="277.75" y2="0" fill="rgb(0, 0, 0)" stroke="rgb(204, 204, 204)" stroke-width="1px"></line></g></g></g></g></svg>