<svg viewBox="0 0 330 200" xmlns="http://www.w3.org/2000/svg"><g><g><g><g><g><line x1="41.6875" y1="176" x2="36.6875" y2="176" style="visibility: inherit;" fill="rgb(0, 0, 0)" stroke="rgb(204, 204, 204)" stroke-width="1px"></line><line x1="41.6875" y1="162.46153846153845" x2="36.6875" y2="162.46153846153845" style="visibility: inherit;" fill="rgb(0, 0, 0)" stroke="rgb(204, 204, 204)" stroke-width="1px"></line><line x1="41.6875" y1="148.9230769230769" x2="36.6875" y2="148.9230769230769" style="visibility: inherit;" fill="rgb(0, 0, 0)" stroke="rgb(204, 204, 204)" stroke-width="1px"></line><line x1="41.6875" y1="135.3846153846154" x2="36.6875" y2="135.3846153846154" style="visibility: inherit;" fill="rgb(0, 0, 0)" stroke="rgb(204, 204, 204)" stroke-width="1px"></line><line x1="41.6875" y1="121.84615384615384" x2="36.6875" y2="121.84615384615384" style="visibility: inherit;" fill="rgb(0, 0, 0)" stroke="rgb(204, 204, 204)" stroke-width="1px"></line><line x1="41.6875" y1="108.30769230769232" x2="36.6875" y2="108.30769230769232" style="visibility: inherit;" fill="rgb(0, 0, 0)" stroke="rgb(204, 204, 204)" stroke-width="1px"></line><line x1="41.6875" y1="94.76923076923077" x2="36.6875" y2="94.76923076923077" style="visibility: inherit;" fill="rgb(0, 0, 0)" stroke="rgb(204, 204, 204)" stroke-width="1px"></line><line x1="41.6875" y1="81.23076923076924" x2="36.6875" y2="81.23076923076924" style="visibility: inherit;" fill="rgb(0, 0, 0)" stroke="rgb(204, 204, 204)" stroke-width="1px"></line><line x1="41.6875" y1="67.69230769230768" x2="36.6875" y2="67.69230769230768" style="visibility: inherit;" fill="rgb(0, 0, 0)" stroke="rgb(204, 204, 204)" stroke-width="1px"></line><line x1="41.6875" y1="54.15384615384619" x2="36.6875" y2="54.15384615384619" style="visibility: inherit;" fill="rgb(0, 0, 0)" stroke="rgb(204, 204, 204)" stroke-width="1px"></line><line x1="41.6875" y1="40.61538461538464" x2="36.6875" y2="40.61538461538464" style="visibility: inherit;" fill="rgb(0, 0, 0)" stroke="rgb(204, 204, 204)" stroke-width="1px"></line><line x1="41.6875" y1="27.076923076923094" x2="36.6875" y2="27.076923076923094" style="visibility: inherit;" fill="rgb(0, 0, 0)" stroke="rgb(204, 204, 204)" stroke-width="1px"></line><line x1="41.6875" y1="13.538461538461547" x2="36.6875" y2="13.538461538461547" style="visibility: inherit;" fill="rgb(0, 0, 0)" stroke="rgb(204, 204, 204)" stroke-width="1px"></line><line x1="41.6875" y1="0" x2="36.6875" y2="0" style="visibility: inherit;" fill="rgb(0, 0, 0)" stroke="rgb(204, 204, 204)" stroke-width="1px"></line></g><g transform="translate(31.6875, 0)"><text x="0" y="176" dx="0em" dy="0.3em" style="text-anchor: end; visibility: hidden; font-family: &quot;Helvetica Neue&quot;, sans-serif; font-size: 12px; font-weight: 200;" fill="rgb(50, 49, 63)" stroke="none" stroke-width="1px">2.8</text><text x="0" y="162.46153846153845" dx="0em" dy="0.3em" style="text-anchor: end; visibility: inherit; font-family: &quot;Helvetica Neue&quot;, sans-serif; font-size: 12px; font-weight: 200;" fill="rgb(50, 49, 63)" stroke="none" stroke-width="1px">3</text><text x="0" y="148.9230769230769" dx="0em" dy="0.3em" style="text-anchor: end; visibility: hidden; font-family: &quot;Helvetica Neue&quot;, sans-serif; font-size: 12px; font-weight: 200;" fill="rgb(50, 49, 63)" stroke="none" stroke-width="1px">3.2</text><text x="0" y="135.3846153846154" dx="0em" dy="0.3em" style="text-anchor: end; visibility: inherit; font-family: &quot;Helvetica Neue&quot;, sans-serif; font-size: 12px; font-weight: 200;" fill="rgb(50, 49, 63)" stroke="none" stroke-width="1px">3.4</text><text x="0" y="121.84615384615384" dx="0em" dy="0.3em" style="text-anchor: end; visibility: hidden; font-family: &quot;Helvetica Neue&quot;, sans-serif; font-size: 12px; font-weight: 200;" fill="rgb(50, 49, 63)" stroke="none" stroke-width="1px">3.6</text><text x="0" y="108.30769230769232" dx="0em" dy="0.3em" style="text-anchor: end; visibility: inherit; font-family: &quot;Helvetica Neue&quot;, sans-serif; font-size: 12px; font-weight: 200;" fill="rgb(50, 49, 63)" stroke="none" stroke-width="1px">3.8</text><text x="0" y="94.76923076923077" dx="0em" dy="0.3em" style="text-anchor: end; visibility: hidden; font-family: &quot;Helvetica Neue&quot;, sans-serif; font-size: 12px; font-weight: 200;" fill="rgb(50, 49, 63)" stroke="none" stroke-width="1px">4</text><text x="0" y="81.23076923076924" dx="0em" dy="0.3em" style="text-anchor: end; visibility: inherit; font-family: &quot;Helvetica Neue&quot;, sans-serif; font-size: 12px; font-weight: 200;" fill="rgb(50, 49, 63)" stroke="none" stroke-width="1px">4.2</text><text x="0" y="67.69230769230768" dx="0em" dy="0.3em" style="text-anchor: end; visibility: hidden; font-family: &quot;Helvetica Neue&quot;, sans-serif; font-size: 12px; font-weight: 200;" fill="rgb(50, 49, 63)" stroke="none" stroke-width="1px">4.4</text><text x="0" y="54.15384615384619" dx="0em" dy="0.3em" style="text-anchor: end; visibility: inherit; font-family: &quot;Helvetica Neue&quot;, sans-serif; font-size: 12px; font-weight: 200;" fill="rgb(50, 49, 63)" stroke="none" stroke-width="1px">4.6</text><text x="0" y="40.61538461538464" dx="0em" dy="0.3em" style="text-anchor: end; visibility: hidden; font-family: &quot;Helvetica Neue&quot;, sans-serif; font-size: 12px; font-weight: 200;" fill="rgb(50, 49, 63)" stroke="none" stroke-width="1px">4.8</text><text x="0" y="27.076923076923094" dx="0em" dy="0.3em" style="text-anchor: end; visibility: inherit; font-family: &quot;Helvetica Neue&quot;, sans-serif; font-size: 12px; font-weight: 200;" fill="rgb(50, 49, 63)" stroke="none" stroke-width="1px">5</text><text x="0" y="13.538461538461547" dx="0em" dy="0.3em" style="text-anchor: end; visibility: hidden; font-family: &quot;Helvetica Neue&quot;, sans-serif; font-size: 12px; font-weight: 200;" fill="rgb(50, 49, 63)" stroke="none" stroke-width="1px">5.2</text><text x="0" y="0" dx="0em" dy="0.3em" style="text-anchor: end; visibility: hidden; font-family: &quot;Helvetica Neue&quot;, sans-serif; font-size: 12px; font-weight: 200;" fill="rgb(50, 49, 63)" stroke="none" stroke-width="1px">5.4</text></g><line x1="41.6875" y1="0" x2="41.6875" y2="176" fill="rgb(0, 0, 0)" stroke="rgb(204, 204, 204)" stroke-width="1px"></line></g></g><g transform="translate(41, 0)" clip-path="url(#clip_0)"><clipPath id="clip_0"><rect width="288" height="176"></rect></clipPath><g><g><g><line x1="0" y1="0" x2="0" y2="176" fill="rgb(0, 0, 0)" stroke="rgb(60, 60, 60)" stroke-width="1px" opacity="0.25"></line><line x1="36.0390625" y1="0" x2="36.0390625" y2="176" fill="rgb(0, 0, 0)" stroke="rgb(60, 60, 60)" stroke-width="1px" opacity="0.25"></line><line x1="72.078125" y1="0" x2="72.078125" y2="176" fill="rgb(0, 0, 0)" stroke="rgb(60, 60, 60)" stroke-width="1px" opacity="0.25"></line><line x1="108.1171875" y1="0" x2="108.1171875" y2="176" fill="rgb(0, 0, 0)" stroke="rgb(60, 60, 60)" stroke-width="1px" opacity="0.25"></line><line x1="144.15625" y1="0" x2="144.15625" y2="176" fill="rgb(0, 0, 0)" stroke="rgb(60, 60, 60)" stroke-width="1px" opacity="0.25"></line><line x1="180.1953125" y1="0" x2="180.1953125" y2="176" fill="rgb(0, 0, 0)" stroke="rgb(60, 60, 60)" stroke-width="1px" opacity="0.25"></line><line x1="216.234375" y1="0" x2="216.234375" y2="176" fill="rgb(0, 0, 0)" stroke="rgb(60, 60, 60)" stroke-width="1px" opacity="0.25"></line><line x1="252.2734375" y1="0" x2="252.2734375" y2="176" fill="rgb(0, 0, 0)" stroke="rgb(60, 60, 60)" stroke-width="1px" opacity="0.25"></line><line x1="288.3125" y1="0" x2="288.3125" y2="176" fill="rgb(0, 0, 0)" stroke="rgb(60, 60, 60)" stroke-width="1px" opacity="0.25"></line></g><g><line x1="0" y1="176" x2="288.3125" y2="176" fill="rgb(0, 0, 0)" stroke="rgb(60, 60, 60)" stroke-width="1px" opacity="0.25"></line><line x1="0" y1="162.46153846153845" x2="288.3125" y2="162.46153846153845" fill="rgb(0, 0, 0)" stroke="rgb(60, 60, 60)" stroke-width="1px" opacity="0.25"></line><line x1="0" y1="148.9230769230769" x2="288.3125" y2="148.9230769230769" fill="rgb(0, 0, 0)" stroke="rgb(60, 60, 60)" stroke-width="1px" opacity="0.25"></line><line x1="0" y1="135.3846153846154" x2="288.3125" y2="135.3846153846154" fill="rgb(0, 0, 0)" stroke="rgb(60, 60, 60)" stroke-width="1px" opacity="0.25"></line><line x1="0" y1="121.84615384615384" x2="288.3125" y2="121.84615384615384" fill="rgb(0, 0, 0)" stroke="rgb(60, 60, 60)" stroke-width="1px" opacity="0.25"></line><line x1="0" y1="108.30769230769232" x2="288.3125" y2="108.30769230769232" fill="rgb(0, 0, 0)" stroke="rgb(60, 60, 60)" stroke-width="1px" opacity="0.25"></line><line x1="0" y1="94.76923076923077" x2="288.3125" y2="94.76923076923077" fill="rgb(0, 0, 0)" stroke="rgb(60, 60, 60)" stroke-width="1px" opacity="0.25"></line><line x1="0" y1="81.23076923076924" x2="288.3125" y2="81.23076923076924" fill="rgb(0, 0, 0)" stroke="rgb(60, 60, 60)" stroke-width="1px" opacity="0.25"></line><line x1="0" y1="67.69230769230768" x2="288.3125" y2="67.69230769230768" fill="rgb(0, 0, 0)" stroke="rgb(60, 60, 60)" stroke-width="1px" opacity="0.25"></line><line x1="0" y1="54.15384615384619" x2="288.3125" y2="54.15384615384619" fill="rgb(0, 0, 0)" stroke="rgb(60, 60, 60)" stroke-width="1px" opacity="0.25"></line><line x1="0" y1="40.61538461538464" x2="288.3125" y2="40.61538461538464" fill="rgb(0, 0, 0)" stroke="rgb(60, 60, 60)" stroke-width="1px" opacity="0.25"></line><line x1="0" y1="27.076923076923094" x2="288.3125" y2="27.076923076923094" fill="rgb(0, 0, 0)" stroke="rgb(60, 60, 60)" stroke-width="1px" opacity="0.25"></line><line x1="0" y1="13.538461538461547" x2="288.3125" y2="13.538461538461547" fill="rgb(0, 0, 0)" stroke="rgb(60, 60, 60)" stroke-width="1px" opacity="0.25"></line><line x1="0" y1="0" x2="288.3125" y2="0" fill="rgb(0, 0, 0)" stroke="rgb(60, 60, 60)" stroke-width="1px" opacity="0.25"></line></g></g></g><g><g><line x1="0" y1="365.5384615384615" x2="288.3125" y2="365.5384615384615" fill="rgb(0, 0, 0)" stroke="rgb(153, 153, 153)" stroke-width="1.5px"></line></g></g><g><g><line x1="36.0390625" y1="0" x2="36.0390625" y2="176" fill="rgb(0, 0, 0)" stroke="rgb(153, 153, 153)" stroke-width="1.5px"></line></g></g><g><g><g><g><g><path stroke="rgb(0, 119, 187)" stroke-width="2px" d="M38.201406250000005,-1.965481818531373L38.9221875,3.745570130720637L39.64296875,7.813223247832241L40.36375,11.878909429170733L41.08453125,13.524926266953173L41.8053125,16.929777947436264L42.52609375,18.627161286805148L43.246874999999996,21.4878883620475L43.96765625,23.50343992043591L44.6884375,26.485500920265167L45.40921875,26.35221200811796L46.13,25.857529220324437L46.850781250000004,27.620011414334073L47.5715625,27.903032913489824L48.29234375,29.88298011630181L49.013125,32.63593046103682L49.73390625,32.899050243453075L50.4546875,34.98148820446232L51.17546875,37.680580951976395L51.896249999999995,40.213249037425186L52.61703125,41.45821279602728L53.3378125,41.826110927587735L54.05859375,44.60403639810062L54.779375,45.51616211473501L55.50015625,46.011146218766356L56.220937500000005,47.77176007280306L56.94171875,47.848355038980344L57.6625,49.61843333029452L58.38328125,50.55042479027448L59.1040625,52.556238574964226L59.82484375,55.21744941676327L60.545625,56.96037033356566L61.266406249999996,57.59701594543803L61.9871875,59.32209953624704L62.70796875,60.293936041838236L63.42875,61.011573512594225L64.14953125,62.04533240521245L64.8703125,64.03970977375351L65.59109375,65.43799752395446L66.311875,65.50834858200125L67.03265625,66.17692429166935L67.75343749999999,67.04025491688822L68.47421874999999,68.53009847869642L69.195,68.81624469983372L69.91578125,69.611418291147L70.6365625,70.82859719052487L71.35734375,69.87447272048207L72.078125,70.37094898498097L72.79890625,70.93626614955394L73.5196875,71.96907639646491L74.24046875,74.19735347760484L74.96125,74.58796141235942L75.68203125000001,75.27778459418572L76.40281250000001,77.35651098525287L77.12359375,77.31115953961927L77.844375,78.0042949763257L78.56515625,77.76467039775453L79.2859375,78.85037257932284L80.00671875,79.30045534033715L80.7275,79.18941556635671L81.44828125,80.05879516688735L82.1690625,81.29888418396654L82.88984375,81.10082709241114L83.610625,82.75374365441009L84.33140625,83.35434627152225L85.0521875,83.89188937912432L85.77296874999999,84.50238850089704L86.49374999999999,85.76010877849797L87.21453125,85.4126467349473L87.9353125,85.36599953060181L88.65609375,85.36451807210211L89.376875,85.99194387548785L90.09765625,86.65863208926505L90.8184375,87.19208312788295L91.53921875,87.8137742344521L92.26,87.18151639989604L92.98078125,86.83003715927359L93.70156250000001,86.37108513360496L94.42234375000001,88.51876149745564L95.143125,89.9426775621603L95.86390625,90.97787554270485L96.5846875,93.3686341531845L97.30546875,94.5175304721917L98.02625,94.09033278339015L98.74703125,93.65311418325527L99.4678125,94.84745334412536L100.18859375,94.67735511006597L100.909375,93.68244221267419L101.63015625,94.03841171995727L102.3509375,94.69314614367812L103.07171875,94.46717482375193L103.79249999999999,92.56980872538095L104.51328124999999,94.61535665669044L105.2340625,95.34334154340578L105.95484375,97.54196097134094L106.675625,98.79335484771592L107.39640625,97.31853128960162L108.1171875,96.9188883613511L108.83796875,98.34642050835964L109.55875,99.60326058326098L110.27953125,99.6288261150182L111.0003125,100.12941664069062L111.72109375000001,99.44715775935428L112.44187500000001,98.72505242116245L113.16265625,99.37145007405415L113.8834375,99.98533295383756L114.60421875,100.59033941134999L115.325,100.63783671753566L116.04578125,101.95861896636875L116.7665625,103.75718713628162L117.48734375,104.48698099702591L118.208125,103.95918372009807L118.92890625,104.04161248003061L119.6496875,103.36113680423684L120.37046875,104.44145132270134L121.09125,104.95537560131311L121.81203124999999,105.39195857611988L122.53281249999999,103.35136824212623L123.25359375,103.46282184202303L123.974375,103.47704178967145L124.69515625,104.83764977520008L125.4159375,104.68854109803021L126.13671875,104.35382607013875L126.8575,105.236156866918L127.57828125,106.50222151085089L128.2990625,107.67771335741946L129.01984375,108.91567635899044L129.740625,107.71014800289427L130.46140625,107.38840417038892L131.1821875,108.23572323672106L131.90296875,108.55371198533942L132.62375,107.54677715082653L133.34453125000002,108.28061896853079L134.0653125,110.05132203184716L134.78609375000002,109.46465024190726L135.50687499999998,109.82005636641091L136.22765625,111.69125080921705L136.94843749999998,112.85111969188539L137.66921875,113.72034271826374L138.39,114.55059822316827L139.11078125,114.77051337632133L139.8315625,113.30209602252505L140.55234375,113.21031234327015L141.273125,114.37795355210841L141.99390625,113.42921224638673L142.7146875,114.16876485910007L143.43546875,115.24384525673108L144.15625,114.24189795087608L144.87703125,113.40385271283333L145.5978125,113.7477797908235L146.31859375,113.91891405744934L147.039375,114.76212771256456L147.76015625,115.17153760917186L148.4809375,117.6572136891134L149.20171875,115.71241046538364L149.9225,115.62205840081222L150.64328125,115.87267609930646L151.36406250000002,116.50843349349314L152.08484375,118.48371481082694L152.80562500000002,118.92013893006587L153.52640624999998,119.41074905909869L154.2471875,120.6102670905824L154.96796874999998,120.54024637025992L155.68875,120.34821128463341L156.40953125,120.70144386062378L157.1303125,121.62576990430246L157.85109375,121.95355947676117L158.571875,122.55853317985928L159.29265625,122.78729170310035L160.0134375,122.76620929732597L160.73421875,122.71250197375315L161.455,122.41695196174588L162.17578125,122.69435734366412L162.8965625,122.87848257495598L163.61734375,122.93997876147L164.338125,123.82075147807339L165.05890625,124.53320089153905L165.7796875,124.89995523106225L166.50046875,125.547706997186L167.22125,125.29460918835817L167.94203125,125.35754260792926L168.6628125,126.34510828617432L169.38359375000002,125.73034589305374L170.104375,126.97215165110418L170.82515625000002,125.6909125210486L171.54593749999998,125.63065633361775L172.26671875,126.0902442452578L172.98749999999998,125.95823930650715L173.70828125,126.67366771438807L174.4290625,127.43065831248953L175.14984375,128.553340807055L175.870625,127.97174118795897L176.59140625,129.76113520443704L177.3121875,130.61728750693956L178.03296875,129.86899780464452L178.75375,129.7534255899006L179.47453125,130.20165040915367L180.1953125,131.30049029713732L180.91609375,132.0863699933365L181.636875,132.64071078055719L182.35765625,132.2801988447616L183.0784375,130.8287531569546L183.79921875,131.21426978686355L184.52,131.81167919577348L185.24078125,131.9849318526504L185.9615625,133.6614067105611L186.68234375,133.7723202179307L187.40312500000002,135.02813951563675L188.12390625,136.34220672620899L188.84468750000002,135.2944624775448L189.56546874999998,135.32672514089887L190.28625,136.3283989761409L191.00703124999998,137.48424629955923L191.7278125,137.5609697908909L192.44859375,137.89457689312678L193.169375,137.7706292159918L193.89015625,138.0304756271762L194.6109375,138.64495351407615L195.33171875,138.77414240122664L196.0525,138.47003048468127L196.77328125,138.25662144491784L197.4940625,138.59007692250208L198.21484375,139.02148812315266L198.935625,139.6202179142687L199.65640625,139.00945046009969L200.3771875,138.85128771709043L201.09796875,139.96234909791502L201.81875,140.15781447396085L202.53953125,140.09325118907154L203.2603125,139.45905129938043L203.98109375,140.7115052566039L204.701875,140.5774766496805L205.42265625000002,140.9743960756331L206.1434375,141.54225025524315L206.86421875000002,142.45399007858907L207.58499999999998,143.08645502127453L208.30578125,143.33135968362558L209.02656249999998,142.93615125000406L209.74734375,142.88758902317701L210.468125,143.4947649054176L211.18890625,144.2725026293984L211.9096875,144.17802735795001L212.63046875,145.69142522636855L213.35125,145.6348878131048L214.07203125,145.3670516500774L214.7928125,145.3031071074593L215.51359375,145.7274032988055L216.234375,145.38173546448465L216.95515625,145.05281376779837L217.6759375,145.88146231322557L218.39671875,146.95913627089806L219.1175,146.38526933672003L219.83828125,146.1487842122709L220.5590625,146.6709720701435L221.27984375,147.47207305860505L222.000625,148.10092935856295L222.72140625,149.15756384072372L223.44218750000002,149.57905708917733L224.16296875,148.87933275204153L224.88375000000002,148.3439292551537L225.60453124999998,148.00759386713216L226.3253125,148.28058570166453L227.04609374999998,149.4350958292394L227.766875,149.2932682143781L228.48765625,149.66683852027347L229.2084375,149.51206036877466L229.92921875,149.08366150953856L230.65,149.93093068915164L231.37078125,149.23430151651834L232.0915625,150.24716531214207L232.81234375,149.672552210873L233.533125,149.69031381131197L234.25390625,150.0368061550639L234.9746875,150.06872722894582L235.69546875,149.73556969261085L236.41625,149.49989800547036L237.13703125,149.63395076147782L237.8578125,149.8541018646391L238.57859375,149.52115393353705L239.299375,149.8300187151027L240.02015625,150.21397121816918L240.7409375,150.51015152972965L241.46171875000002,150.99017740934923L242.1825,151.01801121668075L242.90328125000002,151.1021277655403L243.62406249999998,151.20432675040743L244.34484375,150.79734099371652L245.06562499999998,150.19805697754L245.78640625,150.27566906764628L246.5071875,150.23116658669653L247.22796875,150.97621767568828L247.94875,151.36409528577653L248.66953125,151.66382495523243L249.3903125,151.41895901216438L250.11109375,150.64167832947413L250.831875,151.3842837310829L251.55265625,150.77043746370984" style="fill: none;" fill="none"></path></g></g></g></g><g opacity="0.2"><g><g><g><path stroke="rgb(0, 119, 187)" stroke-width="2px" d="M36.75984375,-2.9287050687349563L37.480625,4.437181912935728L38.201406250000005,4.307939969576353L38.9221875,11.201919555664091L39.64296875,13.440251863919798L40.36375,17.692905719463653L41.08453125,15.924834618201658L41.8053125,21.951272817758422L42.52609375,21.14757772592401L43.246874999999996,25.753032390887938L43.96765625,26.51579871544473L44.6884375,30.948855473445036L45.40921875,26.15253976675183L46.13,25.116086519681517L46.850781250000004,30.262491666353696L47.5715625,28.32744539701025L48.29234375,32.852398212139434L49.013125,36.7649365938627L49.73390625,33.293705866887024L50.4546875,38.10503094012921L51.17546875,41.72913125845105L51.896249999999995,44.012201162484985L52.61703125,43.325643686147856L53.3378125,42.37795551006613L54.05859375,48.77091275728668L54.779375,46.88434835580679L55.50015625,46.75362161489636L56.220937500000005,50.412679232083846L56.94171875,47.96324744591348L57.6625,52.27355018028847L58.38328125,51.9484117948092L59.1040625,55.564959012545074L59.82484375,59.209265488844665L60.545625,59.574751633864196L61.266406249999996,58.55198434682994L61.9871875,61.90972489577075L62.70796875,61.751690791203444L63.42875,62.08802971473108L64.14953125,63.59597074068512L64.8703125,67.03127582256612L65.59109375,67.53542914757362L66.311875,65.61387516902045L67.03265625,67.17978785588193L67.75343749999999,68.3352508544922L68.47421874999999,70.76486382117639L69.195,69.24546403151292L69.91578125,70.80417867807242L70.6365625,72.65436553955078L71.35734375,68.44328601543721L72.078125,71.11566338172327L72.79890625,71.78424189640927L73.5196875,73.51829176682693L74.24046875,77.53976909930891L74.96125,75.17387331449069L75.68203125000001,76.31251936692459L76.40281250000001,80.47460057185248L77.12359375,77.24313237116888L77.844375,79.04399813138522L78.56515625,77.40523352989784L79.2859375,80.47892585167519L80.00671875,79.97557948185849L80.7275,79.02285590538612L81.44828125,81.3628645676833L82.1690625,83.15901770958534L82.88984375,80.80374145507812L83.610625,85.23311849740836L84.33140625,84.25525019719052L85.0521875,84.69820404052734L85.77296874999999,85.41813718355618L86.49374999999999,87.64668919489935L87.21453125,84.89145366962141L87.9353125,85.29602872408353L88.65609375,85.36229588435248L89.376875,86.9330825805664L90.09765625,87.65866440993089L90.8184375,87.9922596858098L91.53921875,88.74631089430589L92.26,86.2331296480619L92.98078125,86.30281829833984L93.70156250000001,85.68265709510217L94.42234375000001,91.74027604323167L95.143125,92.07855165921725L95.86390625,92.53067251352164L96.5846875,96.954772068904L97.30546875,96.24087495070238L98.02625,93.4495362501878L98.74703125,92.99728628305289L99.4678125,96.63896208543045L100.18859375,94.42220775897687L100.909375,92.19007286658653L101.63015625,94.57236598088191L102.3509375,95.67524777925932L103.07171875,94.12821784386269L103.79249999999999,89.72375957782452L104.51328124999999,97.6836785536546L105.2340625,96.43531887347882L105.95484375,100.8398901132437L106.675625,100.6704456622784L107.39640625,95.10629595243014L108.1171875,96.31942396897537L108.83796875,100.48771872887245L109.55875,101.48852069561299L110.27953125,99.667174412654L111.0003125,100.88030242919922L111.72109375000001,98.42376943734976L112.44187500000001,97.64189441387471L113.16265625,100.34104655339168L113.8834375,100.90615727351263L114.60421875,101.4978490976187L115.325,100.70908267681416L116.04578125,103.93979233961839L116.7665625,106.45503939115085L117.48734375,105.58167178814229L118.208125,103.16748780470628L118.92890625,104.1652556199294L119.6496875,102.34042329054613L120.37046875,106.06192310039815L121.09125,105.72626201923077L121.81203124999999,106.04683303833008L122.53281249999999,100.29048274113582L123.25359375,103.63000224186824L123.974375,103.49837171114409L124.69515625,106.8785617534931L125.4159375,104.46487808227539L126.13671875,103.85175352830153L126.8575,106.55965306208685L127.57828125,108.4013184767503L128.2990625,109.4409511272724L129.01984375,110.77262086134691L129.740625,105.90185546875L130.46140625,106.90578842163086L131.1821875,109.50670183621921L131.90296875,109.03069510826698L132.62375,106.03637489905724L133.34453125000002,109.38138169508714L134.0653125,112.70737662682166L134.78609375000002,108.58464255699745L135.50687499999998,110.35316555316632L136.22765625,114.49804247342624L136.94843749999998,114.59092301588792L137.66921875,115.02417725783128L138.39,115.79598148052509L139.11078125,115.10038610605093L139.8315625,111.09946999183067L140.55234375,113.07263682438777L141.273125,116.12941536536584L141.99390625,112.00610028780423L142.7146875,115.27809377817007L143.43546875,116.85646585317758L144.15625,112.7389769920936L144.87703125,112.14678485576923L145.5978125,114.26367040780875L146.31859375,114.17561545738806L147.039375,116.02694819523738L147.76015625,115.78565245408278L148.4809375,121.3857278090257L149.20171875,112.79520562978891L149.9225,115.48653030395508L150.64328125,116.24860264704778L151.36406250000002,117.46206958477313L152.08484375,121.44663678682767L152.80562500000002,119.57477510892429L153.52640624999998,120.14666425264798L154.2471875,122.40954413780798L154.96796874999998,120.43521528977614L155.68875,120.06015865619366L156.40953125,121.23129272460938L157.1303125,123.01225896982046L157.85109375,122.44524383544922L158.571875,123.46599373450647L159.29265625,123.13042948796198L160.0134375,122.73458568866437L160.73421875,122.63194098839392L161.455,121.97362694373498L162.17578125,123.11046541654147L162.8965625,123.15467042189378L163.61734375,123.03222304124098L164.338125,125.14191055297852L165.05890625,125.60187501173753L165.7796875,125.45008674034705L166.50046875,126.5193346463717L167.22125,124.91496247511644L167.94203125,125.4519427372859L168.6628125,127.82645680354192L169.38359375000002,124.8082023033729L170.104375,128.83486028817984L170.82515625000002,123.7690538259653L171.54593749999998,125.54027205247145L172.26671875,126.77962611271784L172.98749999999998,125.76023189838116L173.70828125,127.74681032620943L174.4290625,128.56614420964166L175.14984375,130.23736454890326L175.870625,127.0993417593149L176.59140625,132.44522622915414L177.3121875,131.90151596069336L178.03296875,128.7465632512019L178.75375,129.5800672677847L179.47453125,130.87398763803336L180.1953125,132.94875012911282L180.91609375,133.26518953763522L181.636875,133.47222196138821L182.35765625,131.7394309410682L183.0784375,128.65158462524414L183.79921875,131.792544731727L184.52,132.70779330913837L185.24078125,132.24481083796576L185.9615625,136.17611899742712L186.68234375,133.9386904789851L187.40312500000002,136.91186846219577L188.12390625,138.31330754206732L188.84468750000002,133.72284610454852L189.56546874999998,135.37511913593L190.28625,137.8309097290039L191.00703124999998,139.21801728468674L191.7278125,137.67605502788837L192.44859375,138.39498754648062L193.169375,137.58470770028921L193.89015625,138.42024524395282L194.6109375,139.5666703444261L195.33171875,138.96792573195236L196.0525,138.01386260986328L196.77328125,137.93650788527268L197.4940625,139.09026013887845L198.21484375,139.6686049241286L198.935625,140.51831260094275L199.65640625,138.09329927884616L200.3771875,138.6140436025766L201.09796875,141.6289411691519L201.81875,140.4510125380296L202.53953125,139.99640626173752L203.2603125,138.50775146484375L203.98109375,142.59018619243915L204.701875,140.37643373929535L205.42265625000002,141.56977521456204L206.1434375,142.3940315246582L206.86421875000002,143.82159981360803L207.58499999999998,144.03515243530273L208.30578125,143.6987166771522L209.02656249999998,142.3433385995718L209.74734375,142.81474568293646L210.468125,144.40552872877853L211.18890625,145.43910921536957L211.9096875,144.0363144507775L212.63046875,147.9615220289964L213.35125,145.55008169320914L214.07203125,144.96529740553635L214.7928125,145.20719029353214L215.51359375,146.36384758582483L216.234375,144.8632337130033L216.95515625,144.55943122276892L217.6759375,147.12443513136643L218.39671875,148.57564720740686L219.1175,145.52446893545297L219.83828125,145.7940565255972L220.5590625,147.45425385695236L221.27984375,148.6737245412973L222.000625,149.04421380849985L222.72140625,150.74251556396484L223.44218750000002,150.21129696185773L224.16296875,147.8297462463379L224.88375000000002,147.54082400982196L225.60453124999998,147.50309078509991L226.3253125,148.69007345346304L227.04609374999998,151.16686102060171L227.766875,149.0805267920861L228.48765625,150.22719397911658L229.2084375,149.27989314152643L229.92921875,148.44106322068433L230.65,151.2018344585712L231.37078125,148.18935775756836L232.0915625,151.76646100557767L232.81234375,148.81063255896936L233.533125,149.7169562119704L234.25390625,150.55654467069184L234.9746875,150.11660883976862L235.69546875,149.23583338810846L236.41625,149.1463904747596L237.13703125,149.83502989548901L237.8578125,150.184328519381L238.57859375,149.021732036884L239.299375,150.29331588745117L240.02015625,150.78989997276892L240.7409375,150.9544219970703L241.46171875000002,151.71021622877853L242.1825,151.05976192767804L242.90328125000002,151.22830258882962L243.62406249999998,151.35762522770807L244.34484375,150.18686235868012L245.06562499999998,149.29913095327524L245.78640625,150.39208720280573L246.5071875,150.1644128652719L247.22796875,152.09379430917593L247.94875,151.94591170090894L248.66953125,152.11341945941632L249.3903125,151.05166009756235L250.11109375,149.4757573054387L250.831875,152.4981918334961L251.55265625,149.84966806265024" style="fill: none;" fill="none"></path></g></g></g></g></g><g><g><span fill="rgb(0, 0, 0)" stroke="none" stroke-width="1px">Alt + Scroll to Zoom</span></g></g></g><g transform="translate(41, 176)" clip-path="url(#clip_1)"><clipPath id="clip_1"><rect width="288" height="24"></rect></clipPath><g><g><line x1="0" y1="0" x2="0" y2="5" style="visibility: inherit;" fill="rgb(0, 0, 0)" stroke="rgb(204, 204, 204)" stroke-width="1px"></line><line x1="36.0390625" y1="0" x2="36.0390625" y2="5" style="visibility: inherit;" fill="rgb(0, 0, 0)" stroke="rgb(204, 204, 204)" stroke-width="1px"></line><line x1="72.078125" y1="0" x2="72.078125" y2="5" style="visibility: inherit;" fill="rgb(0, 0, 0)" stroke="rgb(204, 204, 204)" stroke-width="1px"></line><line x1="108.1171875" y1="0" x2="108.1171875" y2="5" style="visibility: inherit;" fill="rgb(0, 0, 0)" stroke="rgb(204, 204, 204)" stroke-width="1px"></line><line x1="144.15625" y1="0" x2="144.15625" y2="5" style="visibility: inherit;" fill="rgb(0, 0, 0)" stroke="rgb(204, 204, 204)" stroke-width="1px"></line><line x1="180.1953125" y1="0" x2="180.1953125" y2="5" style="visibility: inherit;" fill="rgb(0, 0, 0)" stroke="rgb(204, 204, 204)" stroke-width="1px"></line><line x1="216.234375" y1="0" x2="216.234375" y2="5" style="visibility: inherit;" fill="rgb(0, 0, 0)" stroke="rgb(204, 204, 204)" stroke-width="1px"></line><line x1="252.2734375" y1="0" x2="252.2734375" y2="5" style="visibility: inherit;" fill="rgb(0, 0, 0)" stroke="rgb(204, 204, 204)" stroke-width="1px"></line><line x1="288.3125" y1="0" x2="288.3125" y2="5" style="visibility: inherit;" fill="rgb(0, 0, 0)" stroke="rgb(204, 204, 204)" stroke-width="1px"></line></g><g transform="translate(0, 8)"><text x="0" y="0" dx="0em" dy="0.95em" style="text-anchor: middle; visibility: hidden; font-family: &quot;Helvetica Neue&quot;, sans-serif; font-size: 12px; font-weight: 200;" fill="rgb(50, 49, 63)" stroke="none" stroke-width="1px">-50</text><text x="36.0390625" y="0" dx="0em" dy="0.95em" style="text-anchor: middle; visibility: inherit; font-family: &quot;Helvetica Neue&quot;, sans-serif; font-size: 12px; font-weight: 200;" fill="rgb(50, 49, 63)" stroke="none" stroke-width="1px">0</text><text x="72.078125" y="0" dx="0em" dy="0.95em" style="text-anchor: middle; visibility: inherit; font-family: &quot;Helvetica Neue&quot;, sans-serif; font-size: 12px; font-weight: 200;" fill="rgb(50, 49, 63)" stroke="none" stroke-width="1px">50</text><text x="108.1171875" y="0" dx="0em" dy="0.95em" style="text-anchor: middle; visibility: inherit; font-family: &quot;Helvetica Neue&quot;, sans-serif; font-size: 12px; font-weight: 200;" fill="rgb(50, 49, 63)" stroke="none" stroke-width="1px">100</text><text x="144.15625" y="0" dx="0em" dy="0.95em" style="text-anchor: middle; visibility: inherit; font-family: &quot;Helvetica Neue&quot;, sans-serif; font-size: 12px; font-weight: 200;" fill="rgb(50, 49, 63)" stroke="none" stroke-width="1px">150</text><text x="180.1953125" y="0" dx="0em" dy="0.95em" style="text-anchor: middle; visibility: inherit; font-family: &quot;Helvetica Neue&quot;, sans-serif; font-size: 12px; font-weight: 200;" fill="rgb(50, 49, 63)" stroke="none" stroke-width="1px">200</text><text x="216.234375" y="0" dx="0em" dy="0.95em" style="text-anchor: middle; visibility: inherit; font-family: &quot;Helvetica Neue&quot;, sans-serif; font-size: 12px; font-weight: 200;" fill="rgb(50, 49, 63)" stroke="none" stroke-width="1px">250</text><text x="252.2734375" y="0" dx="0em" dy="0.95em" style="text-anchor: middle; visibility: inherit; font-family: &quot;Helvetica Neue&quot;, sans-serif; font-size: 12px; font-weight: 200;" fill="rgb(50, 49, 63)" stroke="none" stroke-width="1px">300</text><text x="288.3125" y="0" dx="0em" dy="0.95em" style="text-anchor: middle; visibility: hidden; font-family: &quot;Helvetica Neue&quot;, sans-serif; font-size: 12px; font-weight: 200;" fill="rgb(50, 49, 63)" stroke="none" stroke-width="1px">350</text></g><line x1="0" y1="0" x2="288.3125" y2="0" fill="rgb(0, 0, 0)" stroke="rgb(204, 204, 204)" stroke-width="1px"></line></g></g></g></g></svg>