<svg viewBox="0 0 330 200" xmlns="http://www.w3.org/2000/svg"><g><g><g><g><g><line x1="52.25" y1="176" x2="47.25" y2="176" style="visibility: inherit;" fill="rgb(0, 0, 0)" stroke="rgb(204, 204, 204)" stroke-width="1px"></line><line x1="52.25" y1="158.4" x2="47.25" y2="158.4" style="visibility: inherit;" fill="rgb(0, 0, 0)" stroke="rgb(204, 204, 204)" stroke-width="1px"></line><line x1="52.25" y1="140.8" x2="47.25" y2="140.8" style="visibility: inherit;" fill="rgb(0, 0, 0)" stroke="rgb(204, 204, 204)" stroke-width="1px"></line><line x1="52.25" y1="123.19999999999999" x2="47.25" y2="123.19999999999999" style="visibility: inherit;" fill="rgb(0, 0, 0)" stroke="rgb(204, 204, 204)" stroke-width="1px"></line><line x1="52.25" y1="105.6" x2="47.25" y2="105.6" style="visibility: inherit;" fill="rgb(0, 0, 0)" stroke="rgb(204, 204, 204)" stroke-width="1px"></line><line x1="52.25" y1="88" x2="47.25" y2="88" style="visibility: inherit;" fill="rgb(0, 0, 0)" stroke="rgb(204, 204, 204)" stroke-width="1px"></line><line x1="52.25" y1="70.4" x2="47.25" y2="70.4" style="visibility: inherit;" fill="rgb(0, 0, 0)" stroke="rgb(204, 204, 204)" stroke-width="1px"></line><line x1="52.25" y1="52.80000000000001" x2="47.25" y2="52.80000000000001" style="visibility: inherit;" fill="rgb(0, 0, 0)" stroke="rgb(204, 204, 204)" stroke-width="1px"></line><line x1="52.25" y1="35.20000000000002" x2="47.25" y2="35.20000000000002" style="visibility: inherit;" fill="rgb(0, 0, 0)" stroke="rgb(204, 204, 204)" stroke-width="1px"></line><line x1="52.25" y1="17.599999999999994" x2="47.25" y2="17.599999999999994" style="visibility: inherit;" fill="rgb(0, 0, 0)" stroke="rgb(204, 204, 204)" stroke-width="1px"></line><line x1="52.25" y1="0" x2="47.25" y2="0" style="visibility: inherit;" fill="rgb(0, 0, 0)" stroke="rgb(204, 204, 204)" stroke-width="1px"></line></g><g transform="translate(42.25, 0)"><text x="0" y="176" dx="0em" dy="0.3em" style="text-anchor: end; visibility: hidden; font-family: &quot;Helvetica Neue&quot;, sans-serif; font-size: 12px; font-weight: 200;" fill="rgb(50, 49, 63)" stroke="none" stroke-width="1px">-0.1</text><text x="0" y="158.4" dx="0em" dy="0.3em" style="text-anchor: end; visibility: inherit; font-family: &quot;Helvetica Neue&quot;, sans-serif; font-size: 12px; font-weight: 200;" fill="rgb(50, 49, 63)" stroke="none" stroke-width="1px">0</text><text x="0" y="140.8" dx="0em" dy="0.3em" style="text-anchor: end; visibility: hidden; font-family: &quot;Helvetica Neue&quot;, sans-serif; font-size: 12px; font-weight: 200;" fill="rgb(50, 49, 63)" stroke="none" stroke-width="1px">0.1</text><text x="0" y="123.19999999999999" dx="0em" dy="0.3em" style="text-anchor: end; visibility: inherit; font-family: &quot;Helvetica Neue&quot;, sans-serif; font-size: 12px; font-weight: 200;" fill="rgb(50, 49, 63)" stroke="none" stroke-width="1px">0.2</text><text x="0" y="105.6" dx="0em" dy="0.3em" style="text-anchor: end; visibility: hidden; font-family: &quot;Helvetica Neue&quot;, sans-serif; font-size: 12px; font-weight: 200;" fill="rgb(50, 49, 63)" stroke="none" stroke-width="1px">0.3</text><text x="0" y="88" dx="0em" dy="0.3em" style="text-anchor: end; visibility: inherit; font-family: &quot;Helvetica Neue&quot;, sans-serif; font-size: 12px; font-weight: 200;" fill="rgb(50, 49, 63)" stroke="none" stroke-width="1px">0.4</text><text x="0" y="70.4" dx="0em" dy="0.3em" style="text-anchor: end; visibility: hidden; font-family: &quot;Helvetica Neue&quot;, sans-serif; font-size: 12px; font-weight: 200;" fill="rgb(50, 49, 63)" stroke="none" stroke-width="1px">0.5</text><text x="0" y="52.80000000000001" dx="0em" dy="0.3em" style="text-anchor: end; visibility: inherit; font-family: &quot;Helvetica Neue&quot;, sans-serif; font-size: 12px; font-weight: 200;" fill="rgb(50, 49, 63)" stroke="none" stroke-width="1px">0.6</text><text x="0" y="35.20000000000002" dx="0em" dy="0.3em" style="text-anchor: end; visibility: hidden; font-family: &quot;Helvetica Neue&quot;, sans-serif; font-size: 12px; font-weight: 200;" fill="rgb(50, 49, 63)" stroke="none" stroke-width="1px">0.7</text><text x="0" y="17.599999999999994" dx="0em" dy="0.3em" style="text-anchor: end; visibility: inherit; font-family: &quot;Helvetica Neue&quot;, sans-serif; font-size: 12px; font-weight: 200;" fill="rgb(50, 49, 63)" stroke="none" stroke-width="1px">0.8</text><text x="0" y="0" dx="0em" dy="0.3em" style="text-anchor: end; visibility: hidden; font-family: &quot;Helvetica Neue&quot;, sans-serif; font-size: 12px; font-weight: 200;" fill="rgb(50, 49, 63)" stroke="none" stroke-width="1px">0.9</text></g><line x1="52.25" y1="0" x2="52.25" y2="176" fill="rgb(0, 0, 0)" stroke="rgb(204, 204, 204)" stroke-width="1px"></line></g></g><g transform="translate(52, 0)" clip-path="url(#clip_0)"><clipPath id="clip_0"><rect width="277" height="176"></rect></clipPath><g><g><g><line x1="0" y1="0" x2="0" y2="176" fill="rgb(0, 0, 0)" stroke="rgb(60, 60, 60)" stroke-width="1px" opacity="0.25"></line><line x1="34.71875" y1="0" x2="34.71875" y2="176" fill="rgb(0, 0, 0)" stroke="rgb(60, 60, 60)" stroke-width="1px" opacity="0.25"></line><line x1="69.4375" y1="0" x2="69.4375" y2="176" fill="rgb(0, 0, 0)" stroke="rgb(60, 60, 60)" stroke-width="1px" opacity="0.25"></line><line x1="104.15625" y1="0" x2="104.15625" y2="176" fill="rgb(0, 0, 0)" stroke="rgb(60, 60, 60)" stroke-width="1px" opacity="0.25"></line><line x1="138.875" y1="0" x2="138.875" y2="176" fill="rgb(0, 0, 0)" stroke="rgb(60, 60, 60)" stroke-width="1px" opacity="0.25"></line><line x1="173.59375" y1="0" x2="173.59375" y2="176" fill="rgb(0, 0, 0)" stroke="rgb(60, 60, 60)" stroke-width="1px" opacity="0.25"></line><line x1="208.3125" y1="0" x2="208.3125" y2="176" fill="rgb(0, 0, 0)" stroke="rgb(60, 60, 60)" stroke-width="1px" opacity="0.25"></line><line x1="243.03125" y1="0" x2="243.03125" y2="176" fill="rgb(0, 0, 0)" stroke="rgb(60, 60, 60)" stroke-width="1px" opacity="0.25"></line><line x1="277.75" y1="0" x2="277.75" y2="176" fill="rgb(0, 0, 0)" stroke="rgb(60, 60, 60)" stroke-width="1px" opacity="0.25"></line></g><g><line x1="0" y1="176" x2="277.75" y2="176" fill="rgb(0, 0, 0)" stroke="rgb(60, 60, 60)" stroke-width="1px" opacity="0.25"></line><line x1="0" y1="158.4" x2="277.75" y2="158.4" fill="rgb(0, 0, 0)" stroke="rgb(60, 60, 60)" stroke-width="1px" opacity="0.25"></line><line x1="0" y1="140.8" x2="277.75" y2="140.8" fill="rgb(0, 0, 0)" stroke="rgb(60, 60, 60)" stroke-width="1px" opacity="0.25"></line><line x1="0" y1="123.19999999999999" x2="277.75" y2="123.19999999999999" fill="rgb(0, 0, 0)" stroke="rgb(60, 60, 60)" stroke-width="1px" opacity="0.25"></line><line x1="0" y1="105.6" x2="277.75" y2="105.6" fill="rgb(0, 0, 0)" stroke="rgb(60, 60, 60)" stroke-width="1px" opacity="0.25"></line><line x1="0" y1="88" x2="277.75" y2="88" fill="rgb(0, 0, 0)" stroke="rgb(60, 60, 60)" stroke-width="1px" opacity="0.25"></line><line x1="0" y1="70.4" x2="277.75" y2="70.4" fill="rgb(0, 0, 0)" stroke="rgb(60, 60, 60)" stroke-width="1px" opacity="0.25"></line><line x1="0" y1="52.80000000000001" x2="277.75" y2="52.80000000000001" fill="rgb(0, 0, 0)" stroke="rgb(60, 60, 60)" stroke-width="1px" opacity="0.25"></line><line x1="0" y1="35.20000000000002" x2="277.75" y2="35.20000000000002" fill="rgb(0, 0, 0)" stroke="rgb(60, 60, 60)" stroke-width="1px" opacity="0.25"></line><line x1="0" y1="17.599999999999994" x2="277.75" y2="17.599999999999994" fill="rgb(0, 0, 0)" stroke="rgb(60, 60, 60)" stroke-width="1px" opacity="0.25"></line><line x1="0" y1="0" x2="277.75" y2="0" fill="rgb(0, 0, 0)" stroke="rgb(60, 60, 60)" stroke-width="1px" opacity="0.25"></line></g></g></g><g><g><line x1="0" y1="158.4" x2="277.75" y2="158.4" fill="rgb(0, 0, 0)" stroke="rgb(153, 153, 153)" stroke-width="1.5px"></line></g></g><g><g><line x1="34.71875" y1="0" x2="34.71875" y2="176" fill="rgb(0, 0, 0)" stroke="rgb(153, 153, 153)" stroke-width="1.5px"></line></g></g><g><g><g><g><g><path stroke="rgb(0, 119, 187)" stroke-width="2px" d="M34.71875,158.4L35.413125,158.4L36.1075,158.4L36.801875,158.39671942527235L37.49625,158.39814229772537L38.190625000000004,158.39892174450412L38.885000000000005,158.399365468124L39.579375,158.39962361678053L40.27375,158.39977570274442L40.968125,158.39986596744276L41.6625,158.3881437192868L42.356875,158.12249231421356L43.05125,157.61621974815932L43.745625,156.46599211898132L44.44,156.15042256017472L45.134375,155.73492750385452L45.82875,156.7955371872859L46.523125,156.46643143505935L47.2175,157.21545247531122L47.911874999999995,157.02741007471738L48.606249999999996,156.7315528702078L49.300625,151.69459129491065L49.995,153.81063539007812L50.689375,153.7356481087624L51.38375,150.0535882511812L52.078125,152.1109397434081L52.7725,154.62656642076453L53.466875,152.45823864506957L54.16125,152.70705270378681L54.855625,149.2699924095163L55.550000000000004,147.2737928570116L56.244375000000005,141.63022771866804L56.93875,145.15942779341754L57.633125,146.33454026227017L58.3275,144.82074066805146L59.021875,143.53378779995597L59.71625,143.01251330594377L60.410625,143.19936051569317L61.105,146.7761057230166L61.799375,141.92595258137925L62.49375,143.4030776058442L63.188125,143.09956670953966L63.8825,143.47763115628032L64.576875,140.71698408116836L65.27125,134.10451663896217L65.965625,134.03598236420189L66.66,132.73752232176236L67.354375,131.1360699497231L68.04875,127.71204850207533L68.743125,129.00537542541338L69.4375,126.4407694675769L70.131875,128.20985482325148L70.82625,128.20092992657416L71.520625,132.59117373391845L72.215,128.88406459191125L72.909375,136.57117832481364L73.60375,135.93441485392736L74.298125,130.51437888519501L74.9925,125.96182038531586L75.686875,134.77645234910224L76.38125000000001,130.65094283966752L77.075625,129.27578714697677L77.77000000000001,122.44656832700434L78.46437499999999,118.07659879496966L79.15875,125.39523911935854L79.85312499999999,119.03746005334116L80.5475,119.62734020970856L81.241875,117.03584336532708L81.93625,116.4399603420112L82.630625,111.36922652564128L83.325,118.30801248932887L84.019375,112.70283704987173L84.71375,115.5835160231054L85.408125,119.04972610327366L86.1025,116.78614971073128L86.796875,109.72905310768877L87.49125,111.10141345488425L88.185625,110.50391940014002L88.88,114.16323188147805L89.574375,119.16072175980725L90.26875,117.53797278214168L90.963125,122.27984902267856L91.6575,114.4902070439172L92.351875,112.55297104336691L93.04625,116.99757820020838L93.74062500000001,113.91386594325736L94.435,117.07291993826885L95.12937500000001,106.996599787058L95.82374999999999,106.53720677470062L96.518125,107.02411941394146L97.21249999999999,108.7930869895514L97.906875,114.60964684476234L98.60125,103.91331252091989L99.295625,99.4894465579621L99.99,106.81781349981023L100.684375,107.54328930380458L101.37875,108.31999381543704L102.073125,100.27294412709182L102.7675,95.00891929302755L103.461875,101.1454968394884L104.15625,99.8173983157902L104.850625,99.72153827078517L105.545,99.42912920789345L106.239375,101.86804057405249L106.93375,92.48712393549594L107.628125,101.4794590384216L108.3225,98.68707666817014L109.016875,101.73296873344603L109.71125,100.00597707136644L110.405625,104.57073975386723L111.10000000000001,99.95159336556497L111.794375,97.40296605962219L112.48875000000001,95.06661079727235L113.18312499999999,106.71593651773108L113.8775,102.01234194756492L114.57187499999999,95.6154097003993L115.26625,90.13007437248568L115.960625,89.76242664253438L116.655,92.8012841486676L117.349375,89.35800414703748L118.04375,98.37693299664534L118.738125,100.4952013934462L119.4325,92.23613847522786L120.126875,94.55259937541993L120.82125,107.86266176758593L121.515625,97.94719831024639L122.21,93.99498310968298L122.904375,86.80712357094896L123.59875,79.56015205699808L124.293125,87.89619938086634L124.9875,90.64906831473807L125.681875,85.64758437568366L126.37625,81.00151121195805L127.070625,79.36760972247512L127.765,91.25945587102171L128.459375,87.30434177365063L129.15375,81.10363678721285L129.848125,102.7700188528758L130.5425,98.72228711433779L131.236875,89.80430519096595L131.93125,82.15438998408641L132.62562499999999,81.11478418271258L133.32,75.10746433592148L134.014375,74.91461284074967L134.70875,74.728039173566L135.403125,71.89754524486227L136.0975,74.8167928710995L136.791875,71.3650503167759L137.48625,68.97260776574913L138.180625,82.00461125979128L138.875,79.12257205372633L139.56937499999998,90.02719538525092L140.26375,81.68465654084294L140.958125,77.52149067896133L141.6525,73.10230267153696L142.34687499999998,77.899603114763L143.04125,79.63339491023963L143.735625,76.19343298038451L144.43,76.27257468080883L145.124375,75.13983947859028L145.81875,70.0685466314901L146.513125,65.32860181007082L147.2075,64.95185941978274L147.901875,80.58231918885694L148.59625,73.27076465174191L149.290625,85.13582377365013L149.985,81.37316388088931L150.679375,75.99345605253262L151.37375,70.94336191582133L152.068125,70.52387939314515L152.76250000000002,66.75206735146325L153.456875,62.259162163807645L154.15125,64.57697419647795L154.845625,61.16049894049419L155.54000000000002,65.04139438840541L156.234375,66.05449414952275L156.92874999999998,61.937587465665786L157.623125,76.5467893492115L158.3175,71.62398364370658L159.011875,67.12434418097492L159.70624999999998,65.9812209647617L160.400625,63.9448904157711L161.095,59.0285978389402L161.789375,56.98393551305651L162.48375,52.89024968979193L163.178125,57.267764697298006L163.8725,64.4544770633129L164.566875,65.7671913191645L165.26125,65.50999946862271L165.955625,63.02722709816581L166.65,58.90699078465633L167.344375,59.35037099972446L168.03875,61.2963429764216L168.733125,57.57245010347992L169.4275,54.44035704023737L170.12187500000002,53.96818089894711L170.81625,51.448733627869245L171.510625,56.77200026278112L172.205,52.656207970168666L172.89937500000002,51.4701008959928L173.59375,49.30530402209274L174.28812499999998,48.5024044438953L174.9825,48.23031778840749L175.676875,51.488981230905836L176.37125,55.224176549822786L177.06562499999998,50.71880135530871L177.76,56.106600255934254L178.454375,51.97862781713478L179.14875,48.357356591403914L179.843125,46.211747252571854L180.5375,44.02331353403821L181.231875,44.44703842865047L181.92625,46.029217548767434L182.620625,45.72546563363059L183.315,46.81653296599379L184.009375,47.37237461358066L184.70375,44.756876382528304L185.398125,43.72192993718298L186.0925,45.02960014675804L186.786875,43.7692422505304L187.48125000000002,45.06350129819421L188.175625,45.838726541855976L188.87,45.1032292112464L189.564375,44.610418666884556L190.25875000000002,44.34066465227917L190.953125,45.06910040574738L191.64749999999998,43.110200859293144L192.341875,42.44368834089326L193.03625,41.912126090473464L193.730625,38.54415729185732L194.42499999999998,38.35581276500699L195.119375,40.870391269233664L195.81375,39.858782002751155L196.508125,37.74149005736359L197.2025,37.19935547545819L197.896875,35.95008714696925L198.59125,37.30069514096476L199.285625,36.03601339805542L199.98,36.7866453465725L200.674375,37.089021509701325L201.36875,35.9454990874614L202.063125,35.931082869224895L202.7575,36.62811093369314L203.451875,35.60318621658794L204.14625,35.184901537081686L204.84062500000002,34.55005698059864L205.535,35.88549164685526L206.229375,35.85841229768346L206.92375,34.52518089301438L207.61812500000002,34.59468365482718L208.3125,36.184854855371896L209.00687499999998,36.395690516372554L209.70125,35.04915266736748L210.395625,34.948200172808185L211.09,35.30522282280114L211.78437499999998,34.74507995222558L212.47875,34.1337634406957L213.173125,33.454644432215275L213.8675,33.05696268471982L214.561875,31.421336348014506L215.25625,30.025152654145643L215.950625,30.87130550545126L216.645,29.505903801928014L217.339375,28.645750151640215L218.03375,27.7978544488943L218.728125,29.289979530298496L219.4225,28.406021028115617L220.116875,29.851440528246314L220.81125,30.531329175956586L221.505625,30.983431218342474L222.20000000000002,31.65749510185509L222.894375,29.865823278764424L223.58875,31.011729685032094L224.283125,29.22862075779662L224.97750000000002,28.468730453335212L225.671875,27.864285528470845L226.36624999999998,27.119507214909675L227.060625,26.46385154574267L227.755,26.581601637894835L228.449375,27.819868728098214L229.14374999999998,27.01675125394877L229.838125,26.860364854542127L230.5325,26.485368845586606L231.226875,26.329905923440833L231.92125,26.199769039293983L232.615625,26.153640720451392L233.31,25.9897603447464L234.004375,26.08085548968475L234.69875,26.008834491320613L235.393125,26.054563847868536L236.0875,26.24767033081585L236.781875,26.42131544006665L237.47625,26.453429141359322L238.170625,26.63169852180289L238.865,26.677677255171574L239.55937500000002,26.604447387038505L240.25375,26.441841863619572L240.948125,26.331912445442242L241.6425,26.219129767070058L242.33687500000002,26.068052948743002" style="fill: none;" fill="none"></path></g></g></g></g><g opacity="0.2"><g><g><g><path stroke="rgb(0, 119, 187)" stroke-width="2px" d="M34.71875,158.4L35.413125,158.4L36.1075,158.4L36.801875,158.39286146939267L37.49625,158.4L38.190625000000004,158.4L38.885000000000005,158.4L39.579375,158.4L40.27375,158.4L40.968125,158.4L41.6625,158.37066666698084L42.356875,157.72546086981893L43.05125,156.85846396684647L43.745625,154.74290409088135L44.44,155.67743916213513L45.134375,155.1119779586792L45.82875,158.38600289796014L46.523125,155.97285636663437L47.2175,158.33886992987246L47.911874999999995,156.74536366164685L48.606249999999996,156.2877832889557L49.300625,144.13931467533112L49.995,156.98465975522996L50.689375,153.6231680750847L51.38375,144.53052463531495L52.078125,155.1969582080841L52.7725,158.4L53.466875,149.205750310421L54.16125,153.08027356266976L54.855625,144.11440386772156L55.550000000000004,144.27949419021607L56.244375000000005,133.1648811340332L56.93875,150.45322748422623L57.633125,148.09720888137818L58.3275,142.55004134178162L59.021875,141.60335853099824L59.71625,142.23060157299042L60.410625,143.47963132858277L61.105,152.14122351408005L61.799375,134.65072288513184L62.49375,145.61876513957978L63.188125,142.644300365448L63.8825,144.04472782611847L64.576875,136.57601346969605L65.27125,124.18581547737122L65.965625,133.93318095207215L66.66,130.7898322582245L67.354375,128.73389139175416L68.04875,122.576016330719L68.743125,130.9453658103943L69.4375,122.59386053085328L70.131875,130.8634828567505L70.82625,128.18754258155823L71.520625,139.1765394449234L72.215,123.32340087890626L72.909375,148.10184892416L73.60375,134.97926964759827L74.298125,122.3843249320984L74.9925,119.13298263549805L75.686875,147.99840029478074L76.38125000000001,124.46267857551575L77.075625,127.21305360794068L77.77000000000001,112.2027400970459L78.46437499999999,111.52164449691773L79.15875,136.37319960594178L79.85312499999999,109.50079145431519L80.5475,120.51216044425965L81.241875,113.14859809875489L81.93625,115.54613580703736L82.630625,103.76312580108643L83.325,128.71619143486024L84.019375,104.29507389068604L84.71375,119.90453448295594L85.408125,124.249041223526L86.1025,113.39078512191773L86.796875,99.143408203125L87.49125,113.1599539756775L88.185625,109.60767831802369L88.88,119.65220060348511L89.574375,126.65695657730103L90.26875,115.10384931564332L90.963125,129.3926633834839L91.6575,102.80574407577515L92.351875,109.64711704254151L93.04625,123.66448893547059L93.74062500000001,109.28829755783082L94.435,121.81150093078614L95.12937500000001,91.8821195602417L95.82374999999999,105.84811725616456L96.518125,107.75448837280274L97.21249999999999,111.44653835296631L97.906875,123.33448662757874L98.60125,87.86881103515626L99.295625,92.8536476135254L99.99,117.8103639125824L100.684375,108.63150300979615L101.37875,109.48505058288575L102.073125,88.20236959457398L102.7675,87.11288204193116L103.461875,110.3503631591797L104.15625,97.82525053024293L104.850625,99.5777482032776L105.545,98.99051561355591L106.239375,105.52640762329102L106.93375,78.41574897766114L107.628125,114.96796169281006L108.3225,94.49850311279297L109.016875,106.30180683135987L109.71125,97.41548957824708L110.405625,111.41788377761841L111.10000000000001,93.02287378311158L111.794375,93.58002510070801L112.48875000000001,91.56207790374756L113.18312499999999,124.1899250984192L113.8775,94.95695009231568L114.57187499999999,86.02001132965088L115.26625,81.90207138061524L115.960625,89.21095504760743L116.655,97.35957040786744L117.349375,84.19308414459229L118.04375,111.90532627105713L118.738125,103.67260398864747L119.4325,79.8475440979004L120.126875,98.02729072570801L120.82125,127.82775535583497L121.515625,83.07400312423707L122.21,88.0666603088379L122.904375,76.0253342628479L123.59875,68.68969478607178L124.293125,100.4002703666687L124.9875,94.77837171554566L125.681875,78.14535846710206L126.37625,74.03240146636963L127.070625,76.91675748825074L127.765,109.09722509384156L128.459375,81.371670627594L129.15375,71.80257930755616L129.848125,135.26959195137024L130.5425,92.65068950653077L131.236875,76.42733230590821L131.93125,70.6795171737671L132.62562499999999,79.55537548065186L133.32,66.09648456573487L134.014375,74.62533559799195L134.70875,74.44817867279053L135.403125,67.65180435180665L136.0975,79.19566431045533L136.791875,66.18743648529053L137.48625,65.38394393920899L138.180625,101.5526165008545L138.875,74.79951324462891L139.56937499999998,106.38413038253785L140.26375,69.17084827423096L140.958125,71.27674188613892L141.6525,66.4735206604004L142.34687499999998,85.09555377960206L143.04125,82.2340826034546L143.735625,71.03349008560181L144.43,76.39128723144532L145.124375,73.44073667526246L145.81875,62.46160736083985L146.513125,58.2186845779419L147.2075,64.38674583435059L147.901875,104.02800884246827L148.59625,62.30343284606934L149.290625,102.93341245651246L149.985,75.72917404174805L150.679375,67.92389430999756L151.37375,63.3682207107544L152.068125,69.89465560913087L152.76250000000002,61.094349288940435L153.456875,55.519804382324224L154.15125,68.0536922454834L154.845625,56.03578605651856L155.54000000000002,70.86273756027222L156.234375,67.57414379119874L156.92874999999998,55.76222743988038L157.623125,98.46059217453003L158.3175,64.23977508544922L159.011875,60.37488498687745L159.70624999999998,64.2665361404419L160.400625,60.89039459228516L161.095,51.65415897369385L161.789375,53.91694202423096L162.48375,46.749720954895025L163.178125,63.834037208557135L163.8725,75.23454561233521L164.566875,67.7362627029419L165.26125,65.12421169281006L165.955625,59.303068542480474L166.65,52.726636314392096L167.344375,60.015441322326666L168.03875,64.21530094146729L168.733125,51.98661079406739L169.4275,49.74221744537354L170.12187500000002,53.259916687011724L170.81625,47.66956272125245L171.510625,64.75690021514893L172.205,46.482519531250006L172.89937500000002,49.69094028472901L173.59375,46.05810871124268L174.28812499999998,47.29805507659913L174.9825,47.82218780517579L175.676875,56.376976394653326L176.37125,60.82696952819825L177.06562499999998,43.9607385635376L177.76,64.18829860687256L178.454375,45.78666915893555L179.14875,42.92544975280762L179.843125,42.993333244323736L180.5375,40.7406629562378L181.231875,45.08262577056885L181.92625,48.40248622894288L182.620625,45.2698377609253L183.315,48.45313396453858L184.009375,48.20613708496094L184.70375,40.83362903594971L185.398125,42.169510269165045L186.0925,46.99110546112061L186.786875,41.87870540618897L187.48125000000002,47.00488986968995L188.175625,47.00156440734864L188.87,43.99998321533204L189.564375,43.8712028503418L190.25875000000002,43.9360336303711L190.953125,46.16175403594971L191.64749999999998,40.17185153961182L192.341875,41.44391956329346L193.03625,41.114782714843756L193.730625,33.49220409393311L194.42499999999998,38.07329597473145L195.119375,44.642259025573736L195.81375,38.34136810302735L196.508125,34.56555213928223L197.2025,36.3861536026001L197.896875,34.076184654235846L198.59125,39.32660713195801L199.285625,34.13899078369141L199.98,37.91259326934815L200.674375,37.54258575439454L201.36875,34.23021545410157L202.063125,35.90945854187012L202.7575,37.67365303039551L203.451875,34.06579914093018L204.14625,34.55747451782227L204.84062500000002,33.59779014587403L205.535,37.88864364624024L206.229375,35.81779327392579L206.92375,32.52533378601075L207.61812500000002,34.69893779754639L208.3125,38.57011165618897L209.00687499999998,36.71194400787354L209.70125,33.02934589385987L210.395625,34.796771430969244L211.09,35.84075679779053L211.78437499999998,33.90486564636231L212.47875,33.216788673400885L213.173125,32.435965919494635L213.8675,32.46044006347657L214.561875,28.96789684295655L215.25625,27.93087711334229L215.950625,32.140534782409674L216.645,27.457801246643072L217.339375,27.355519676208502L218.03375,26.526010894775396L218.728125,31.52816715240479L219.4225,27.080083274841314L220.116875,32.01956977844239L220.81125,31.55116214752198L221.505625,31.661584281921392L222.20000000000002,32.66859092712403L222.894375,27.178315544128424L223.58875,32.7305892944336L224.283125,26.553957366943365L224.97750000000002,27.328894996643072L225.671875,26.957618141174322L226.36624999999998,26.002339744567877L227.060625,25.480368041992193L227.755,26.758226776123053L228.449375,29.677269363403326L229.14374999999998,25.812075042724615L229.838125,26.625785255432135L230.5325,25.922874832153326L231.226875,26.096711540222174L231.92125,26.004563713073736L232.615625,26.084448242187506L233.31,25.74393978118897L234.004375,26.21749820709229L234.69875,25.90080299377442L235.393125,26.123157882690435L236.0875,26.537330055236822L236.781875,26.681783103942877L237.47625,26.501599693298346L238.170625,26.899102592468267L238.865,26.746645355224615L239.55937500000002,26.494602584838873L240.25375,26.197933578491217L240.948125,26.167018318176275L241.6425,26.049955749511724L242.33687500000002,25.841437721252447" style="fill: none;" fill="none"></path></g></g></g></g></g></g><g transform="translate(52, 176)" clip-path="url(#clip_1)"><clipPath id="clip_1"><rect width="277" height="24"></rect></clipPath><g><g><line x1="0" y1="0" x2="0" y2="5" style="visibility: inherit;" fill="rgb(0, 0, 0)" stroke="rgb(204, 204, 204)" stroke-width="1px"></line><line x1="34.71875" y1="0" x2="34.71875" y2="5" style="visibility: inherit;" fill="rgb(0, 0, 0)" stroke="rgb(204, 204, 204)" stroke-width="1px"></line><line x1="69.4375" y1="0" x2="69.4375" y2="5" style="visibility: inherit;" fill="rgb(0, 0, 0)" stroke="rgb(204, 204, 204)" stroke-width="1px"></line><line x1="104.15625" y1="0" x2="104.15625" y2="5" style="visibility: inherit;" fill="rgb(0, 0, 0)" stroke="rgb(204, 204, 204)" stroke-width="1px"></line><line x1="138.875" y1="0" x2="138.875" y2="5" style="visibility: inherit;" fill="rgb(0, 0, 0)" stroke="rgb(204, 204, 204)" stroke-width="1px"></line><line x1="173.59375" y1="0" x2="173.59375" y2="5" style="visibility: inherit;" fill="rgb(0, 0, 0)" stroke="rgb(204, 204, 204)" stroke-width="1px"></line><line x1="208.3125" y1="0" x2="208.3125" y2="5" style="visibility: inherit;" fill="rgb(0, 0, 0)" stroke="rgb(204, 204, 204)" stroke-width="1px"></line><line x1="243.03125" y1="0" x2="243.03125" y2="5" style="visibility: inherit;" fill="rgb(0, 0, 0)" stroke="rgb(204, 204, 204)" stroke-width="1px"></line><line x1="277.75" y1="0" x2="277.75" y2="5" style="visibility: inherit;" fill="rgb(0, 0, 0)" stroke="rgb(204, 204, 204)" stroke-width="1px"></line></g><g transform="translate(0, 8)"><text x="0" y="0" dx="0em" dy="0.95em" style="text-anchor: middle; visibility: hidden; font-family: &quot;Helvetica Neue&quot;, sans-serif; font-size: 12px; font-weight: 200;" fill="rgb(50, 49, 63)" stroke="none" stroke-width="1px">-50</text><text x="34.71875" y="0" dx="0em" dy="0.95em" style="text-anchor: middle; visibility: inherit; font-family: &quot;Helvetica Neue&quot;, sans-serif; font-size: 12px; font-weight: 200;" fill="rgb(50, 49, 63)" stroke="none" stroke-width="1px">0</text><text x="69.4375" y="0" dx="0em" dy="0.95em" style="text-anchor: middle; visibility: inherit; font-family: &quot;Helvetica Neue&quot;, sans-serif; font-size: 12px; font-weight: 200;" fill="rgb(50, 49, 63)" stroke="none" stroke-width="1px">50</text><text x="104.15625" y="0" dx="0em" dy="0.95em" style="text-anchor: middle; visibility: inherit; font-family: &quot;Helvetica Neue&quot;, sans-serif; font-size: 12px; font-weight: 200;" fill="rgb(50, 49, 63)" stroke="none" stroke-width="1px">100</text><text x="138.875" y="0" dx="0em" dy="0.95em" style="text-anchor: middle; visibility: inherit; font-family: &quot;Helvetica Neue&quot;, sans-serif; font-size: 12px; font-weight: 200;" fill="rgb(50, 49, 63)" stroke="none" stroke-width="1px">150</text><text x="173.59375" y="0" dx="0em" dy="0.95em" style="text-anchor: middle; visibility: inherit; font-family: &quot;Helvetica Neue&quot;, sans-serif; font-size: 12px; font-weight: 200;" fill="rgb(50, 49, 63)" stroke="none" stroke-width="1px">200</text><text x="208.3125" y="0" dx="0em" dy="0.95em" style="text-anchor: middle; visibility: inherit; font-family: &quot;Helvetica Neue&quot;, sans-serif; font-size: 12px; font-weight: 200;" fill="rgb(50, 49, 63)" stroke="none" stroke-width="1px">250</text><text x="243.03125" y="0" dx="0em" dy="0.95em" style="text-anchor: middle; visibility: inherit; font-family: &quot;Helvetica Neue&quot;, sans-serif; font-size: 12px; font-weight: 200;" fill="rgb(50, 49, 63)" stroke="none" stroke-width="1px">300</text><text x="277.75" y="0" dx="0em" dy="0.95em" style="text-anchor: middle; visibility: hidden; font-family: &quot;Helvetica Neue&quot;, sans-serif; font-size: 12px; font-weight: 200;" fill="rgb(50, 49, 63)" stroke="none" stroke-width="1px">350</text></g><line x1="0" y1="0" x2="277.75" y2="0" fill="rgb(0, 0, 0)" stroke="rgb(204, 204, 204)" stroke-width="1px"></line></g></g></g></g></svg>