<svg viewBox="0 0 330 200" xmlns="http://www.w3.org/2000/svg"><g><g><g><g><g><line x1="41.6875" y1="176" x2="36.6875" y2="176" style="visibility: inherit;" fill="rgb(0, 0, 0)" stroke="rgb(204, 204, 204)" stroke-width="1px"></line><line x1="41.6875" y1="158.4" x2="36.6875" y2="158.4" style="visibility: inherit;" fill="rgb(0, 0, 0)" stroke="rgb(204, 204, 204)" stroke-width="1px"></line><line x1="41.6875" y1="140.8" x2="36.6875" y2="140.8" style="visibility: inherit;" fill="rgb(0, 0, 0)" stroke="rgb(204, 204, 204)" stroke-width="1px"></line><line x1="41.6875" y1="123.19999999999999" x2="36.6875" y2="123.19999999999999" style="visibility: inherit;" fill="rgb(0, 0, 0)" stroke="rgb(204, 204, 204)" stroke-width="1px"></line><line x1="41.6875" y1="105.6" x2="36.6875" y2="105.6" style="visibility: inherit;" fill="rgb(0, 0, 0)" stroke="rgb(204, 204, 204)" stroke-width="1px"></line><line x1="41.6875" y1="88" x2="36.6875" y2="88" style="visibility: inherit;" fill="rgb(0, 0, 0)" stroke="rgb(204, 204, 204)" stroke-width="1px"></line><line x1="41.6875" y1="70.39999999999998" x2="36.6875" y2="70.39999999999998" style="visibility: inherit;" fill="rgb(0, 0, 0)" stroke="rgb(204, 204, 204)" stroke-width="1px"></line><line x1="41.6875" y1="52.80000000000001" x2="36.6875" y2="52.80000000000001" style="visibility: inherit;" fill="rgb(0, 0, 0)" stroke="rgb(204, 204, 204)" stroke-width="1px"></line><line x1="41.6875" y1="35.19999999999999" x2="36.6875" y2="35.19999999999999" style="visibility: inherit;" fill="rgb(0, 0, 0)" stroke="rgb(204, 204, 204)" stroke-width="1px"></line><line x1="41.6875" y1="17.600000000000023" x2="36.6875" y2="17.600000000000023" style="visibility: inherit;" fill="rgb(0, 0, 0)" stroke="rgb(204, 204, 204)" stroke-width="1px"></line><line x1="41.6875" y1="0" x2="36.6875" y2="0" style="visibility: inherit;" fill="rgb(0, 0, 0)" stroke="rgb(204, 204, 204)" stroke-width="1px"></line></g><g transform="translate(31.6875, 0)"><text x="0" y="176" dx="0em" dy="0.3em" style="text-anchor: end; visibility: hidden; font-family: &quot;Helvetica Neue&quot;, sans-serif; font-size: 12px; font-weight: 200;" fill="rgb(50, 49, 63)" stroke="none" stroke-width="1px">0.5</text><text x="0" y="158.4" dx="0em" dy="0.3em" style="text-anchor: end; visibility: inherit; font-family: &quot;Helvetica Neue&quot;, sans-serif; font-size: 12px; font-weight: 200;" fill="rgb(50, 49, 63)" stroke="none" stroke-width="1px">0.6</text><text x="0" y="140.8" dx="0em" dy="0.3em" style="text-anchor: end; visibility: hidden; font-family: &quot;Helvetica Neue&quot;, sans-serif; font-size: 12px; font-weight: 200;" fill="rgb(50, 49, 63)" stroke="none" stroke-width="1px">0.7</text><text x="0" y="123.19999999999999" dx="0em" dy="0.3em" style="text-anchor: end; visibility: inherit; font-family: &quot;Helvetica Neue&quot;, sans-serif; font-size: 12px; font-weight: 200;" fill="rgb(50, 49, 63)" stroke="none" stroke-width="1px">0.8</text><text x="0" y="105.6" dx="0em" dy="0.3em" style="text-anchor: end; visibility: hidden; font-family: &quot;Helvetica Neue&quot;, sans-serif; font-size: 12px; font-weight: 200;" fill="rgb(50, 49, 63)" stroke="none" stroke-width="1px">0.9</text><text x="0" y="88" dx="0em" dy="0.3em" style="text-anchor: end; visibility: inherit; font-family: &quot;Helvetica Neue&quot;, sans-serif; font-size: 12px; font-weight: 200;" fill="rgb(50, 49, 63)" stroke="none" stroke-width="1px">1</text><text x="0" y="70.39999999999998" dx="0em" dy="0.3em" style="text-anchor: end; visibility: hidden; font-family: &quot;Helvetica Neue&quot;, sans-serif; font-size: 12px; font-weight: 200;" fill="rgb(50, 49, 63)" stroke="none" stroke-width="1px">1.1</text><text x="0" y="52.80000000000001" dx="0em" dy="0.3em" style="text-anchor: end; visibility: inherit; font-family: &quot;Helvetica Neue&quot;, sans-serif; font-size: 12px; font-weight: 200;" fill="rgb(50, 49, 63)" stroke="none" stroke-width="1px">1.2</text><text x="0" y="35.19999999999999" dx="0em" dy="0.3em" style="text-anchor: end; visibility: hidden; font-family: &quot;Helvetica Neue&quot;, sans-serif; font-size: 12px; font-weight: 200;" fill="rgb(50, 49, 63)" stroke="none" stroke-width="1px">1.3</text><text x="0" y="17.600000000000023" dx="0em" dy="0.3em" style="text-anchor: end; visibility: inherit; font-family: &quot;Helvetica Neue&quot;, sans-serif; font-size: 12px; font-weight: 200;" fill="rgb(50, 49, 63)" stroke="none" stroke-width="1px">1.4</text><text x="0" y="0" dx="0em" dy="0.3em" style="text-anchor: end; visibility: hidden; font-family: &quot;Helvetica Neue&quot;, sans-serif; font-size: 12px; font-weight: 200;" fill="rgb(50, 49, 63)" stroke="none" stroke-width="1px">1.5</text></g><line x1="41.6875" y1="0" x2="41.6875" y2="176" fill="rgb(0, 0, 0)" stroke="rgb(204, 204, 204)" stroke-width="1px"></line></g></g><g transform="translate(41, 0)" clip-path="url(#clip_0)"><clipPath id="clip_0"><rect width="288" height="176"></rect></clipPath><g><g><g><line x1="0" y1="0" x2="0" y2="176" fill="rgb(0, 0, 0)" stroke="rgb(60, 60, 60)" stroke-width="1px" opacity="0.25"></line><line x1="36.0390625" y1="0" x2="36.0390625" y2="176" fill="rgb(0, 0, 0)" stroke="rgb(60, 60, 60)" stroke-width="1px" opacity="0.25"></line><line x1="72.078125" y1="0" x2="72.078125" y2="176" fill="rgb(0, 0, 0)" stroke="rgb(60, 60, 60)" stroke-width="1px" opacity="0.25"></line><line x1="108.1171875" y1="0" x2="108.1171875" y2="176" fill="rgb(0, 0, 0)" stroke="rgb(60, 60, 60)" stroke-width="1px" opacity="0.25"></line><line x1="144.15625" y1="0" x2="144.15625" y2="176" fill="rgb(0, 0, 0)" stroke="rgb(60, 60, 60)" stroke-width="1px" opacity="0.25"></line><line x1="180.1953125" y1="0" x2="180.1953125" y2="176" fill="rgb(0, 0, 0)" stroke="rgb(60, 60, 60)" stroke-width="1px" opacity="0.25"></line><line x1="216.234375" y1="0" x2="216.234375" y2="176" fill="rgb(0, 0, 0)" stroke="rgb(60, 60, 60)" stroke-width="1px" opacity="0.25"></line><line x1="252.2734375" y1="0" x2="252.2734375" y2="176" fill="rgb(0, 0, 0)" stroke="rgb(60, 60, 60)" stroke-width="1px" opacity="0.25"></line><line x1="288.3125" y1="0" x2="288.3125" y2="176" fill="rgb(0, 0, 0)" stroke="rgb(60, 60, 60)" stroke-width="1px" opacity="0.25"></line></g><g><line x1="0" y1="176" x2="288.3125" y2="176" fill="rgb(0, 0, 0)" stroke="rgb(60, 60, 60)" stroke-width="1px" opacity="0.25"></line><line x1="0" y1="158.4" x2="288.3125" y2="158.4" fill="rgb(0, 0, 0)" stroke="rgb(60, 60, 60)" stroke-width="1px" opacity="0.25"></line><line x1="0" y1="140.8" x2="288.3125" y2="140.8" fill="rgb(0, 0, 0)" stroke="rgb(60, 60, 60)" stroke-width="1px" opacity="0.25"></line><line x1="0" y1="123.19999999999999" x2="288.3125" y2="123.19999999999999" fill="rgb(0, 0, 0)" stroke="rgb(60, 60, 60)" stroke-width="1px" opacity="0.25"></line><line x1="0" y1="105.6" x2="288.3125" y2="105.6" fill="rgb(0, 0, 0)" stroke="rgb(60, 60, 60)" stroke-width="1px" opacity="0.25"></line><line x1="0" y1="88" x2="288.3125" y2="88" fill="rgb(0, 0, 0)" stroke="rgb(60, 60, 60)" stroke-width="1px" opacity="0.25"></line><line x1="0" y1="70.39999999999998" x2="288.3125" y2="70.39999999999998" fill="rgb(0, 0, 0)" stroke="rgb(60, 60, 60)" stroke-width="1px" opacity="0.25"></line><line x1="0" y1="52.80000000000001" x2="288.3125" y2="52.80000000000001" fill="rgb(0, 0, 0)" stroke="rgb(60, 60, 60)" stroke-width="1px" opacity="0.25"></line><line x1="0" y1="35.19999999999999" x2="288.3125" y2="35.19999999999999" fill="rgb(0, 0, 0)" stroke="rgb(60, 60, 60)" stroke-width="1px" opacity="0.25"></line><line x1="0" y1="17.600000000000023" x2="288.3125" y2="17.600000000000023" fill="rgb(0, 0, 0)" stroke="rgb(60, 60, 60)" stroke-width="1px" opacity="0.25"></line><line x1="0" y1="0" x2="288.3125" y2="0" fill="rgb(0, 0, 0)" stroke="rgb(60, 60, 60)" stroke-width="1px" opacity="0.25"></line></g></g></g><g><g><line x1="0" y1="264" x2="288.3125" y2="264" fill="rgb(0, 0, 0)" stroke="rgb(153, 153, 153)" stroke-width="1.5px"></line></g></g><g><g><line x1="36.0390625" y1="0" x2="36.0390625" y2="176" fill="rgb(0, 0, 0)" stroke="rgb(153, 153, 153)" stroke-width="1.5px"></line></g></g><g><g><g><g><g><path stroke="rgb(0, 119, 187)" stroke-width="2px" d="M39.64296875,-5.540290800508387L40.36375,11.060822509457836L41.08453125,21.467677563235213L41.8053125,27.241309142003274L42.52609375,30.42399241728839L43.246874999999996,34.148267423048964L43.96765625,34.73671507012082L44.6884375,34.064330487607975L45.40921875,33.22107346757801L46.13,37.55672090591369L46.850781250000004,35.72558520442604L47.5715625,36.11190500856631L48.29234375,36.18744105133288L49.013125,35.73348417918896L49.73390625,36.386030350742715L50.4546875,39.58485687049395L51.17546875,41.804330786562076L51.896249999999995,44.17165220156966L52.61703125,45.53633290084477L53.3378125,46.65231896553348L54.05859375,47.8349076483093L54.779375,46.42466293321135L55.50015625,48.38904426653495L56.220937500000005,48.92070702925308L56.94171875,50.8756393714161L57.6625,50.33620966213721L58.38328125,52.67475988842891L59.1040625,53.89754703148688L59.82484375,55.375434694340825L60.545625,55.81378163712827L61.266406249999996,57.00772623946486L61.9871875,58.051503120743945L62.70796875,57.62338157666723L63.42875,59.76792467221374L64.14953125,60.20798991133837L64.8703125,63.82149347362703L65.59109375,63.20616054921217L66.311875,64.34618778493459L67.03265625,65.51664058864397L67.75343749999999,67.52201514563119L68.47421874999999,66.77863801189288L69.195,67.89562518999001L69.91578125,68.0489840007162L70.6365625,70.7882939038846L71.35734375,74.47167019001677L72.078125,75.92850077124368L72.79890625,77.0779264210015L73.5196875,77.3045431755993L74.24046875,75.88021049398117L74.96125,77.95838752685873L75.68203125000001,79.03091783105705L76.40281250000001,80.41024228799L77.12359375,78.64122365038166L77.844375,79.26251739335406L78.56515625,79.13720861716476L79.2859375,78.70117816712502L80.00671875,80.98445964685709L80.7275,81.83503537673734L81.44828125,83.77054179489006L82.1690625,85.01808526980514L82.88984375,85.53766009132644L83.610625,86.04211814952247L84.33140625,87.68213658185212L85.0521875,88.08186915309078L85.77296874999999,89.19795648330955L86.49374999999999,89.84122338339392L87.21453125,89.50407485034884L87.9353125,88.36579711357844L88.65609375,86.8711574978834L89.376875,87.64075136823686L90.09765625,88.78291616823216L90.8184375,87.01700311890804L91.53921875,88.73142799133996L92.26,87.9949778580364L92.98078125,87.78174013279062L93.70156250000001,85.51828419197905L94.42234375000001,87.16994916814153L95.143125,87.17904088150014L95.86390625,90.90805700570672L96.5846875,92.27680975884397L97.30546875,92.7543575685632L98.02625,94.55917696484399L98.74703125,94.16723759370132L99.4678125,97.79230422614265L100.18859375,98.92627517484573L100.909375,97.21611399711935L101.63015625,94.73010785139661L102.3509375,98.18244909499323L103.07171875,98.62869514974497L103.79249999999999,97.00991324158036L104.51328124999999,95.46610648376657L105.2340625,98.28272365893667L105.95484375,97.14848894694893L106.675625,99.28207813989786L107.39640625,99.52125913674634L108.1171875,99.44649571642282L108.83796875,98.21992570438982L109.55875,98.58510826992395L110.27953125,99.44721326212526L111.0003125,99.47198892224098L111.72109375000001,99.59871573798814L112.44187500000001,98.63891541691397L113.16265625,100.98142740566598L113.8834375,99.0911475505773L114.60421875,100.43815219916964L115.325,99.61230042289533L116.04578125,100.31350261396669L116.7665625,101.57769965187612L117.48734375,102.94725531969011L118.208125,105.06183196683848L118.92890625,103.82307864177301L119.6496875,101.18920164673374L120.37046875,102.51331537585763L121.09125,103.75326548589054L121.81203124999999,101.73831030471793L122.53281249999999,100.96500423397822L123.25359375,99.49833809641721L123.974375,99.96233293597534L124.69515625,102.925840313343L125.4159375,104.27370754188765L126.13671875,102.82777280394119L126.8575,104.4610435651772L127.57828125,106.05845521015125L128.2990625,109.89860309435247L129.01984375,110.43272341056655L129.740625,108.89018977143759L130.46140625,106.82345063959595L131.1821875,107.48908381149195L131.90296875,108.17537663272037L132.62375,106.8599806183041L133.34453125000002,107.95648786744243L134.0653125,109.18206647229653L134.78609375000002,109.22074081416403L135.50687499999998,111.20996714780019L136.22765625,109.28539000242523L136.94843749999998,110.78609148436531L137.66921875,113.36973762377347L138.39,112.85106811442523L139.11078125,114.64856620740025L139.8315625,112.81009957856614L140.55234375,112.0046537260215L141.273125,112.29684207081799L141.99390625,113.59751671099666L142.7146875,114.50241337742807L143.43546875,114.91199719027519L144.15625,114.05438634822272L144.87703125,112.75404141586722L145.5978125,112.66530822659553L146.31859375,112.76082662907257L147.039375,112.44609291653047L147.76015625,115.09401683390266L148.4809375,115.65251567590312L149.20171875,112.63009392397447L149.9225,113.03376123414543L150.64328125,113.68461793128314L151.36406250000002,115.64077220835485L152.08484375,117.70282689617989L152.80562500000002,118.11927685670207L153.52640624999998,118.06520586927026L154.2471875,117.95303610395962L154.96796874999998,116.78007361550078L155.68875,117.63637226378287L156.40953125,118.60873795482735L157.1303125,117.07366791327726L157.85109375,118.75613769864995L158.571875,120.70433149919486L159.29265625,120.60885454526885L160.0134375,120.4800153333625L160.73421875,119.94565270892863L161.455,121.41412548155836L162.17578125,119.62178919274359L162.8965625,118.31613534425944L163.61734375,117.79754215321094L164.338125,119.23139585161894L165.05890625,120.68793724241667L165.7796875,120.61532849230059L166.50046875,120.93761864994579L167.22125,121.82251267251142L167.94203125,122.4112890518711L168.6628125,123.17975721102988L169.38359375000002,121.88446527327321L170.104375,124.12937377455964L170.82515625000002,121.41230596639593L171.54593749999998,120.18869064770865L172.26671875,121.81903637959198L172.98749999999998,122.53424066015265L173.70828125,122.72606159274685L174.4290625,123.88448911324089L175.14984375,124.03051074394551L175.870625,122.59728174238782L176.59140625,125.86098478334773L177.3121875,125.68761671839732L178.03296875,125.56217864309892L178.75375,126.29077131244628L179.47453125,125.81486195738964L180.1953125,127.25955125341329L180.91609375,127.45976174264857L181.636875,128.71488826507155L182.35765625,125.81886826177731L183.0784375,124.54705597293551L183.79921875,124.04842782814606L184.52,125.0693608808476L185.24078125,124.57599992084255L185.9615625,127.02484304027409L186.68234375,128.5221876997748L187.40312500000002,127.20539597862954L188.12390625,128.94368360158202L188.84468750000002,128.46764372418164L189.56546874999998,129.40041884559295L190.28625,129.60441260801497L191.00703124999998,132.49889329234804L191.7278125,130.9961575696471L192.44859375,132.37287535843865L193.169375,133.20694169150363L193.89015625,132.772068457285L194.6109375,132.10259310989346L195.33171875,132.04305076950052L196.0525,133.69407959194936L196.77328125,132.9212199414489L197.4940625,131.92446505813106L198.21484375,133.35139419906324L198.935625,133.44998408718698L199.65640625,131.49574576237077L200.3771875,130.39572931777403L201.09796875,131.86613441378452L201.81875,132.61869493049727L202.53953125,131.78386267973391L203.2603125,132.93275771709327L203.98109375,133.89106065137412L204.701875,135.6663979417278L205.42265625000002,134.20903256691656L206.1434375,134.74092094395854L206.86421875000002,135.02038340743957L207.58499999999998,134.08490956411705L208.30578125,134.4566220080015L209.02656249999998,134.557792784879L209.74734375,135.28122947341762L210.468125,136.52045200900176L211.18890625,137.0368554033991L211.9096875,136.3238229893539L212.63046875,136.48007641690336L213.35125,137.43637157951213L214.07203125,136.6516899673606L214.7928125,137.2644949679652L215.51359375,137.95766624957793L216.234375,137.41414900511785L216.95515625,137.5987709277289L217.6759375,136.6193966813932L218.39671875,138.07371091533005L219.1175,137.37713861279667L219.83828125,138.39020986445536L220.5590625,137.7604099457728L221.27984375,137.25255791814726L222.000625,138.09487734122038L222.72140625,138.9155354135213L223.44218750000002,139.48477885919675L224.16296875,139.89105080245653L224.88375000000002,139.10252331899832L225.60453124999998,138.4069973898365L226.3253125,138.9830698175689L227.04609374999998,138.92253689786554L227.766875,139.35672076237657L228.48765625,137.79493646438394L229.2084375,139.3577239788501L229.92921875,139.36464468699268L230.65,141.2488561633919L231.37078125,140.60202098868456L232.0915625,140.47500119794705L232.81234375,140.26368113869012L233.533125,140.7053900034045L234.25390625,140.74436780636398L234.9746875,141.20144093528324L235.69546875,140.25576255616505L236.41625,139.94981869397736L237.13703125,140.9104841729294L237.8578125,141.77116957785432L238.57859375,141.52410082508172L239.299375,140.73831494146015L240.02015625,141.60978049929992L240.7409375,141.72593375978502L241.46171875000002,140.97418826185248L242.1825,142.33651452876677L242.90328125000002,142.03312247763606L243.62406249999998,141.0571850405367L244.34484375,140.90505305923415L245.06562499999998,140.831817388519L245.78640625,141.07557778357528L246.5071875,142.40964720725455L247.22796875,142.10003904151583L247.94875,143.35376083640853L248.66953125,142.2446161972797L249.3903125,140.3688541452477L250.11109375,141.1186555505031L250.831875,141.74753228904208L251.55265625,141.23016419459225" style="fill: none;" fill="none"></path></g></g></g></g><g opacity="0.2"><g><g><g><path stroke="rgb(0, 119, 187)" stroke-width="2px" d="M37.480625,-171.1807861328125L38.201406250000005,26.395023345947266L38.9221875,32.800912857055664L39.64296875,28.474349975585938L40.36375,34.80068016052246L41.08453125,36.64097213745117L41.8053125,35.75629425048828L42.52609375,35.149906158447266L43.246874999999996,39.70090103149414L43.96765625,35.61618423461914L44.6884375,33.05794906616211L45.40921875,31.957839965820312L46.13,44.05509567260742L46.850781250000004,32.980173110961914L47.5715625,36.69122123718262L48.29234375,36.30072593688965L49.013125,35.0526180267334L49.73390625,37.364789962768555L50.4546875,44.38292121887207L51.17546875,45.13346862792969L51.896249999999995,47.72258758544922L52.61703125,47.58333778381348L53.3378125,48.326290130615234L54.05859375,49.60878562927246L54.779375,44.30929946899414L55.50015625,51.33561325073242L56.220937500000005,49.71820068359375L56.94171875,53.80803680419922L57.6625,49.52706527709961L58.38328125,56.18258476257324L59.1040625,55.731727600097656L59.82484375,57.59226608276367L60.545625,56.4713020324707L61.266406249999996,58.79864311218262L61.9871875,59.61716842651367L62.70796875,56.98119926452637L63.42875,62.98473930358887L64.14953125,60.86808776855469L64.8703125,69.24174880981445L65.59109375,62.28316116333008L66.311875,66.05622863769531L67.03265625,67.27231979370117L67.75343749999999,70.53007698059082L68.47421874999999,65.66357231140137L69.195,69.57110595703125L69.91578125,68.27902221679688L70.6365625,74.89725875854492L71.35734375,79.99673461914062L72.078125,78.1137466430664L72.79890625,78.80206489562988L73.5196875,77.64446830749512L74.24046875,73.74371147155762L74.96125,81.07565307617188L75.68203125000001,80.63971328735352L76.40281250000001,82.47922897338867L77.12359375,75.98769569396973L77.844375,80.1944580078125L78.56515625,78.94924545288086L79.2859375,78.04713249206543L80.00671875,84.40938186645508L80.7275,83.11089897155762L81.44828125,86.67380142211914L82.1690625,86.88940048217773L82.88984375,86.3170223236084L83.610625,86.7988052368164L84.33140625,90.14216423034668L85.0521875,88.68146800994873L85.77296874999999,90.8720874786377L86.49374999999999,90.80612373352051L87.21453125,88.99835205078125L87.9353125,86.65838050842285L88.65609375,84.62919807434082L89.376875,88.79514217376709L90.09765625,90.4961633682251L90.8184375,84.36813354492188L91.53921875,91.3030652999878L92.26,86.89030265808105L92.98078125,87.46188354492188L93.70156250000001,82.12310028076172L94.42234375000001,89.64744663238525L95.143125,87.19267845153809L95.86390625,96.5015811920166L96.5846875,94.3299388885498L97.30546875,93.47067928314209L98.02625,97.26640605926514L98.74703125,93.5793285369873L99.4678125,103.22990417480469L100.18859375,100.62723159790039L100.909375,94.65087223052979L101.63015625,91.0010986328125L102.3509375,103.36096096038818L103.07171875,99.29806423187256L103.79249999999999,94.5817403793335L104.51328124999999,93.1503963470459L105.2340625,102.5076494216919L105.95484375,95.44713687896729L106.675625,102.48246192932129L107.39640625,99.88003063201904L108.1171875,99.3343505859375L108.83796875,96.38007068634033L109.55875,99.1328821182251L110.27953125,100.74037075042725L111.0003125,99.50915241241455L111.72109375000001,99.78880596160889L112.44187500000001,97.19921493530273L113.16265625,104.49519538879395L113.8834375,96.25572776794434L114.60421875,102.4586591720581L115.325,98.37352275848389L116.04578125,101.36530590057373L116.7665625,103.47399520874023L117.48734375,105.00158882141113L118.208125,108.23369693756104L118.92890625,101.9649486541748L119.6496875,97.2383861541748L120.37046875,104.49948596954346L121.09125,105.61319065093994L121.81203124999999,98.71587753295898L122.53281249999999,99.80504512786865L123.25359375,97.29833889007568L123.974375,100.6583251953125L124.69515625,107.37110137939453L125.4159375,106.29550838470459L126.13671875,100.65887069702148L126.8575,106.91094970703125L127.57828125,108.4545726776123L128.2990625,115.6588249206543L129.01984375,111.2339038848877L129.740625,106.57638931274414L130.46140625,103.7233419418335L131.1821875,108.48753356933594L131.90296875,109.20481586456299L132.62375,104.88688659667969L133.34453125000002,109.6012487411499L134.0653125,111.02043437957764L134.78609375000002,109.27875232696533L135.50687499999998,114.1938066482544L136.22765625,106.3985242843628L136.94843749999998,113.03714370727539L137.66921875,117.24520683288574L138.39,112.07306385040283L139.11078125,117.3448133468628L139.8315625,110.05239963531494L140.55234375,110.79648494720459L141.273125,112.7351245880127L141.99390625,115.54852867126465L142.7146875,115.8597583770752L143.43546875,115.5263729095459L144.15625,112.76797008514404L144.87703125,110.80352401733398L145.5978125,112.53220844268799L146.31859375,112.90410423278809L147.039375,111.97399234771729L147.76015625,119.06590270996094L148.4809375,116.49026393890381L149.20171875,108.09646129608154L149.9225,113.63926219940186L150.64328125,114.66090297698975L151.36406250000002,118.5750036239624L152.08484375,120.79590892791748L152.80562500000002,118.74395179748535L153.52640624999998,117.98409938812256L154.2471875,117.78478145599365L154.96796874999998,115.0206298828125L155.68875,118.92082023620605L156.40953125,120.06728649139404L157.1303125,114.77106285095215L157.85109375,121.27984237670898L158.571875,123.6266222000122L159.29265625,120.46563911437988L160.0134375,120.28675651550293L160.73421875,119.14410877227783L161.455,123.61683464050293L162.17578125,116.93328475952148L162.8965625,116.3576545715332L163.61734375,117.01965236663818L164.338125,121.38217639923096L165.05890625,122.87274932861328L165.7796875,120.50641536712646L166.50046875,121.42105388641357L167.22125,123.14985370635986L167.94203125,123.29445362091064L168.6628125,124.33245944976807L169.38359375000002,119.94152736663818L170.104375,127.49673652648926L170.82515625000002,117.33670425415039L171.54593749999998,118.35326766967773L172.26671875,124.26455497741699L172.98749999999998,123.60704708099365L173.70828125,123.01379299163818L174.4290625,125.62213039398193L175.14984375,124.24954319000244L175.870625,120.44743824005127L176.59140625,130.7565393447876L177.3121875,125.42756462097168L178.03296875,125.37402153015137L178.75375,127.38366031646729L179.47453125,125.10099792480469L180.1953125,129.42658519744873L180.91609375,127.76007747650146L181.636875,130.59757804870605L182.35765625,121.47483825683594L183.0784375,122.63933753967285L183.79921875,123.30048561096191L184.52,126.6007604598999L185.24078125,123.83595848083496L185.9615625,130.6981077194214L186.68234375,130.76820468902588L187.40312500000002,125.23020839691162L188.12390625,131.55111503601074L188.84468750000002,127.75358390808105L189.56546874999998,130.79958152770996L190.28625,129.91040325164795L191.00703124999998,136.84061431884766L191.7278125,128.7420539855957L192.44859375,134.43795204162598L193.169375,134.45804119110107L193.89015625,132.11975860595703L194.6109375,131.09838008880615L195.33171875,131.95373725891113L196.0525,136.17062282562256L196.77328125,131.76193046569824L197.4940625,130.4293327331543L198.21484375,135.49178791046143L198.935625,133.59786891937256L199.65640625,128.56438827514648L200.3771875,128.7457046508789L201.09796875,134.0717420578003L201.81875,133.7475357055664L202.53953125,130.53161430358887L203.2603125,134.65610027313232L203.98109375,135.3285150527954L204.701875,138.3294038772583L205.42265625000002,132.0229845046997L206.1434375,135.53875350952148L206.86421875000002,135.43957710266113L207.58499999999998,132.6816987991333L208.30578125,135.01419067382812L209.02656249999998,134.7095489501953L209.74734375,136.3663845062256L210.468125,138.37928581237793L211.18890625,137.81146049499512L211.9096875,135.25427436828613L212.63046875,136.71445655822754L213.35125,138.8708143234253L214.07203125,135.4746675491333L214.7928125,138.18370246887207L215.51359375,138.99742317199707L216.234375,136.59887313842773L216.95515625,137.8757038116455L217.6759375,135.15033531188965L218.39671875,140.25518226623535L219.1175,136.33228015899658L219.83828125,139.90981674194336L220.5590625,136.81571006774902L221.27984375,136.49077987670898L222.000625,139.35835647583008L222.72140625,140.14652252197266L223.44218750000002,140.33864402770996L224.16296875,140.5004587173462L224.88375000000002,137.91973209381104L225.60453124999998,137.36370849609375L226.3253125,139.84717845916748L227.04609374999998,138.83173751831055L227.766875,140.00799655914307L228.48765625,135.45226001739502L229.2084375,141.70190525054932L229.92921875,139.37502574920654L230.65,144.07517337799072L231.37078125,139.63176822662354L232.0915625,140.28447151184082L232.81234375,139.9467010498047L233.533125,141.36795330047607L234.25390625,140.80283451080322L234.9746875,141.8870506286621L235.69546875,138.8372449874878L236.41625,139.4909029006958L237.13703125,142.35148239135742L237.8578125,143.0621976852417L238.57859375,141.15349769592285L239.299375,139.55963611602783L240.02015625,142.91697883605957L240.7409375,141.9001636505127L241.46171875000002,139.8465700149536L242.1825,144.38000392913818L242.90328125000002,141.57803440093994L243.62406249999998,139.5932788848877L244.34484375,140.67685508728027L245.06562499999998,140.7219638824463L245.78640625,141.44121837615967L246.5071875,144.41075134277344L247.22796875,141.63562679290771L247.94875,145.23434352874756L248.66953125,140.58089923858643L249.3903125,137.5552110671997L250.11109375,142.24335765838623L250.831875,142.6908473968506L251.55265625,140.45411205291748" style="fill: none;" fill="none"></path></g></g></g></g></g></g><g transform="translate(41, 176)" clip-path="url(#clip_1)"><clipPath id="clip_1"><rect width="288" height="24"></rect></clipPath><g><g><line x1="0" y1="0" x2="0" y2="5" style="visibility: inherit;" fill="rgb(0, 0, 0)" stroke="rgb(204, 204, 204)" stroke-width="1px"></line><line x1="36.0390625" y1="0" x2="36.0390625" y2="5" style="visibility: inherit;" fill="rgb(0, 0, 0)" stroke="rgb(204, 204, 204)" stroke-width="1px"></line><line x1="72.078125" y1="0" x2="72.078125" y2="5" style="visibility: inherit;" fill="rgb(0, 0, 0)" stroke="rgb(204, 204, 204)" stroke-width="1px"></line><line x1="108.1171875" y1="0" x2="108.1171875" y2="5" style="visibility: inherit;" fill="rgb(0, 0, 0)" stroke="rgb(204, 204, 204)" stroke-width="1px"></line><line x1="144.15625" y1="0" x2="144.15625" y2="5" style="visibility: inherit;" fill="rgb(0, 0, 0)" stroke="rgb(204, 204, 204)" stroke-width="1px"></line><line x1="180.1953125" y1="0" x2="180.1953125" y2="5" style="visibility: inherit;" fill="rgb(0, 0, 0)" stroke="rgb(204, 204, 204)" stroke-width="1px"></line><line x1="216.234375" y1="0" x2="216.234375" y2="5" style="visibility: inherit;" fill="rgb(0, 0, 0)" stroke="rgb(204, 204, 204)" stroke-width="1px"></line><line x1="252.2734375" y1="0" x2="252.2734375" y2="5" style="visibility: inherit;" fill="rgb(0, 0, 0)" stroke="rgb(204, 204, 204)" stroke-width="1px"></line><line x1="288.3125" y1="0" x2="288.3125" y2="5" style="visibility: inherit;" fill="rgb(0, 0, 0)" stroke="rgb(204, 204, 204)" stroke-width="1px"></line></g><g transform="translate(0, 8)"><text x="0" y="0" dx="0em" dy="0.95em" style="text-anchor: middle; visibility: hidden; font-family: &quot;Helvetica Neue&quot;, sans-serif; font-size: 12px; font-weight: 200;" fill="rgb(50, 49, 63)" stroke="none" stroke-width="1px">-50</text><text x="36.0390625" y="0" dx="0em" dy="0.95em" style="text-anchor: middle; visibility: inherit; font-family: &quot;Helvetica Neue&quot;, sans-serif; font-size: 12px; font-weight: 200;" fill="rgb(50, 49, 63)" stroke="none" stroke-width="1px">0</text><text x="72.078125" y="0" dx="0em" dy="0.95em" style="text-anchor: middle; visibility: inherit; font-family: &quot;Helvetica Neue&quot;, sans-serif; font-size: 12px; font-weight: 200;" fill="rgb(50, 49, 63)" stroke="none" stroke-width="1px">50</text><text x="108.1171875" y="0" dx="0em" dy="0.95em" style="text-anchor: middle; visibility: inherit; font-family: &quot;Helvetica Neue&quot;, sans-serif; font-size: 12px; font-weight: 200;" fill="rgb(50, 49, 63)" stroke="none" stroke-width="1px">100</text><text x="144.15625" y="0" dx="0em" dy="0.95em" style="text-anchor: middle; visibility: inherit; font-family: &quot;Helvetica Neue&quot;, sans-serif; font-size: 12px; font-weight: 200;" fill="rgb(50, 49, 63)" stroke="none" stroke-width="1px">150</text><text x="180.1953125" y="0" dx="0em" dy="0.95em" style="text-anchor: middle; visibility: inherit; font-family: &quot;Helvetica Neue&quot;, sans-serif; font-size: 12px; font-weight: 200;" fill="rgb(50, 49, 63)" stroke="none" stroke-width="1px">200</text><text x="216.234375" y="0" dx="0em" dy="0.95em" style="text-anchor: middle; visibility: inherit; font-family: &quot;Helvetica Neue&quot;, sans-serif; font-size: 12px; font-weight: 200;" fill="rgb(50, 49, 63)" stroke="none" stroke-width="1px">250</text><text x="252.2734375" y="0" dx="0em" dy="0.95em" style="text-anchor: middle; visibility: inherit; font-family: &quot;Helvetica Neue&quot;, sans-serif; font-size: 12px; font-weight: 200;" fill="rgb(50, 49, 63)" stroke="none" stroke-width="1px">300</text><text x="288.3125" y="0" dx="0em" dy="0.95em" style="text-anchor: middle; visibility: hidden; font-family: &quot;Helvetica Neue&quot;, sans-serif; font-size: 12px; font-weight: 200;" fill="rgb(50, 49, 63)" stroke="none" stroke-width="1px">350</text></g><line x1="0" y1="0" x2="288.3125" y2="0" fill="rgb(0, 0, 0)" stroke="rgb(204, 204, 204)" stroke-width="1px"></line></g></g></g></g></svg>