<svg viewBox="0 0 330 200" xmlns="http://www.w3.org/2000/svg"><g><g><g><g><g><line x1="62.8125" y1="176" x2="57.8125" y2="176" style="visibility: inherit;" fill="rgb(0, 0, 0)" stroke="rgb(204, 204, 204)" stroke-width="1px"></line><line x1="62.8125" y1="162.46153846153845" x2="57.8125" y2="162.46153846153845" style="visibility: inherit;" fill="rgb(0, 0, 0)" stroke="rgb(204, 204, 204)" stroke-width="1px"></line><line x1="62.8125" y1="148.9230769230769" x2="57.8125" y2="148.9230769230769" style="visibility: inherit;" fill="rgb(0, 0, 0)" stroke="rgb(204, 204, 204)" stroke-width="1px"></line><line x1="62.8125" y1="135.3846153846154" x2="57.8125" y2="135.3846153846154" style="visibility: inherit;" fill="rgb(0, 0, 0)" stroke="rgb(204, 204, 204)" stroke-width="1px"></line><line x1="62.8125" y1="121.84615384615384" x2="57.8125" y2="121.84615384615384" style="visibility: inherit;" fill="rgb(0, 0, 0)" stroke="rgb(204, 204, 204)" stroke-width="1px"></line><line x1="62.8125" y1="108.30769230769232" x2="57.8125" y2="108.30769230769232" style="visibility: inherit;" fill="rgb(0, 0, 0)" stroke="rgb(204, 204, 204)" stroke-width="1px"></line><line x1="62.8125" y1="94.76923076923077" x2="57.8125" y2="94.76923076923077" style="visibility: inherit;" fill="rgb(0, 0, 0)" stroke="rgb(204, 204, 204)" stroke-width="1px"></line><line x1="62.8125" y1="81.23076923076924" x2="57.8125" y2="81.23076923076924" style="visibility: inherit;" fill="rgb(0, 0, 0)" stroke="rgb(204, 204, 204)" stroke-width="1px"></line><line x1="62.8125" y1="67.69230769230771" x2="57.8125" y2="67.69230769230771" style="visibility: inherit;" fill="rgb(0, 0, 0)" stroke="rgb(204, 204, 204)" stroke-width="1px"></line><line x1="62.8125" y1="54.15384615384616" x2="57.8125" y2="54.15384615384616" style="visibility: inherit;" fill="rgb(0, 0, 0)" stroke="rgb(204, 204, 204)" stroke-width="1px"></line><line x1="62.8125" y1="40.61538461538464" x2="57.8125" y2="40.61538461538464" style="visibility: inherit;" fill="rgb(0, 0, 0)" stroke="rgb(204, 204, 204)" stroke-width="1px"></line><line x1="62.8125" y1="27.076923076923066" x2="57.8125" y2="27.076923076923066" style="visibility: inherit;" fill="rgb(0, 0, 0)" stroke="rgb(204, 204, 204)" stroke-width="1px"></line><line x1="62.8125" y1="13.538461538461519" x2="57.8125" y2="13.538461538461519" style="visibility: inherit;" fill="rgb(0, 0, 0)" stroke="rgb(204, 204, 204)" stroke-width="1px"></line><line x1="62.8125" y1="0" x2="57.8125" y2="0" style="visibility: inherit;" fill="rgb(0, 0, 0)" stroke="rgb(204, 204, 204)" stroke-width="1px"></line></g><g transform="translate(52.8125, 0)"><text x="0" y="176" dx="0em" dy="0.3em" style="text-anchor: end; visibility: hidden; font-family: &quot;Helvetica Neue&quot;, sans-serif; font-size: 12px; font-weight: 200;" fill="rgb(50, 49, 63)" stroke="none" stroke-width="1px">-0.05</text><text x="0" y="162.46153846153845" dx="0em" dy="0.3em" style="text-anchor: end; visibility: inherit; font-family: &quot;Helvetica Neue&quot;, sans-serif; font-size: 12px; font-weight: 200;" fill="rgb(50, 49, 63)" stroke="none" stroke-width="1px">0</text><text x="0" y="148.9230769230769" dx="0em" dy="0.3em" style="text-anchor: end; visibility: hidden; font-family: &quot;Helvetica Neue&quot;, sans-serif; font-size: 12px; font-weight: 200;" fill="rgb(50, 49, 63)" stroke="none" stroke-width="1px">0.05</text><text x="0" y="135.3846153846154" dx="0em" dy="0.3em" style="text-anchor: end; visibility: inherit; font-family: &quot;Helvetica Neue&quot;, sans-serif; font-size: 12px; font-weight: 200;" fill="rgb(50, 49, 63)" stroke="none" stroke-width="1px">0.1</text><text x="0" y="121.84615384615384" dx="0em" dy="0.3em" style="text-anchor: end; visibility: hidden; font-family: &quot;Helvetica Neue&quot;, sans-serif; font-size: 12px; font-weight: 200;" fill="rgb(50, 49, 63)" stroke="none" stroke-width="1px">0.15</text><text x="0" y="108.30769230769232" dx="0em" dy="0.3em" style="text-anchor: end; visibility: inherit; font-family: &quot;Helvetica Neue&quot;, sans-serif; font-size: 12px; font-weight: 200;" fill="rgb(50, 49, 63)" stroke="none" stroke-width="1px">0.2</text><text x="0" y="94.76923076923077" dx="0em" dy="0.3em" style="text-anchor: end; visibility: hidden; font-family: &quot;Helvetica Neue&quot;, sans-serif; font-size: 12px; font-weight: 200;" fill="rgb(50, 49, 63)" stroke="none" stroke-width="1px">0.25</text><text x="0" y="81.23076923076924" dx="0em" dy="0.3em" style="text-anchor: end; visibility: inherit; font-family: &quot;Helvetica Neue&quot;, sans-serif; font-size: 12px; font-weight: 200;" fill="rgb(50, 49, 63)" stroke="none" stroke-width="1px">0.3</text><text x="0" y="67.69230769230771" dx="0em" dy="0.3em" style="text-anchor: end; visibility: hidden; font-family: &quot;Helvetica Neue&quot;, sans-serif; font-size: 12px; font-weight: 200;" fill="rgb(50, 49, 63)" stroke="none" stroke-width="1px">0.35</text><text x="0" y="54.15384615384616" dx="0em" dy="0.3em" style="text-anchor: end; visibility: inherit; font-family: &quot;Helvetica Neue&quot;, sans-serif; font-size: 12px; font-weight: 200;" fill="rgb(50, 49, 63)" stroke="none" stroke-width="1px">0.4</text><text x="0" y="40.61538461538464" dx="0em" dy="0.3em" style="text-anchor: end; visibility: hidden; font-family: &quot;Helvetica Neue&quot;, sans-serif; font-size: 12px; font-weight: 200;" fill="rgb(50, 49, 63)" stroke="none" stroke-width="1px">0.45</text><text x="0" y="27.076923076923066" dx="0em" dy="0.3em" style="text-anchor: end; visibility: inherit; font-family: &quot;Helvetica Neue&quot;, sans-serif; font-size: 12px; font-weight: 200;" fill="rgb(50, 49, 63)" stroke="none" stroke-width="1px">0.5</text><text x="0" y="13.538461538461519" dx="0em" dy="0.3em" style="text-anchor: end; visibility: hidden; font-family: &quot;Helvetica Neue&quot;, sans-serif; font-size: 12px; font-weight: 200;" fill="rgb(50, 49, 63)" stroke="none" stroke-width="1px">0.55</text><text x="0" y="0" dx="0em" dy="0.3em" style="text-anchor: end; visibility: hidden; font-family: &quot;Helvetica Neue&quot;, sans-serif; font-size: 12px; font-weight: 200;" fill="rgb(50, 49, 63)" stroke="none" stroke-width="1px">0.6</text></g><line x1="62.8125" y1="0" x2="62.8125" y2="176" fill="rgb(0, 0, 0)" stroke="rgb(204, 204, 204)" stroke-width="1px"></line></g></g><g transform="translate(62, 0)" clip-path="url(#clip_0)"><clipPath id="clip_0"><rect width="267" height="176"></rect></clipPath><g><g><g><line x1="0" y1="0" x2="0" y2="176" fill="rgb(0, 0, 0)" stroke="rgb(60, 60, 60)" stroke-width="1px" opacity="0.25"></line><line x1="33.3984375" y1="0" x2="33.3984375" y2="176" fill="rgb(0, 0, 0)" stroke="rgb(60, 60, 60)" stroke-width="1px" opacity="0.25"></line><line x1="66.796875" y1="0" x2="66.796875" y2="176" fill="rgb(0, 0, 0)" stroke="rgb(60, 60, 60)" stroke-width="1px" opacity="0.25"></line><line x1="100.1953125" y1="0" x2="100.1953125" y2="176" fill="rgb(0, 0, 0)" stroke="rgb(60, 60, 60)" stroke-width="1px" opacity="0.25"></line><line x1="133.59375" y1="0" x2="133.59375" y2="176" fill="rgb(0, 0, 0)" stroke="rgb(60, 60, 60)" stroke-width="1px" opacity="0.25"></line><line x1="166.9921875" y1="0" x2="166.9921875" y2="176" fill="rgb(0, 0, 0)" stroke="rgb(60, 60, 60)" stroke-width="1px" opacity="0.25"></line><line x1="200.390625" y1="0" x2="200.390625" y2="176" fill="rgb(0, 0, 0)" stroke="rgb(60, 60, 60)" stroke-width="1px" opacity="0.25"></line><line x1="233.7890625" y1="0" x2="233.7890625" y2="176" fill="rgb(0, 0, 0)" stroke="rgb(60, 60, 60)" stroke-width="1px" opacity="0.25"></line><line x1="267.1875" y1="0" x2="267.1875" y2="176" fill="rgb(0, 0, 0)" stroke="rgb(60, 60, 60)" stroke-width="1px" opacity="0.25"></line></g><g><line x1="0" y1="176" x2="267.1875" y2="176" fill="rgb(0, 0, 0)" stroke="rgb(60, 60, 60)" stroke-width="1px" opacity="0.25"></line><line x1="0" y1="162.46153846153845" x2="267.1875" y2="162.46153846153845" fill="rgb(0, 0, 0)" stroke="rgb(60, 60, 60)" stroke-width="1px" opacity="0.25"></line><line x1="0" y1="148.9230769230769" x2="267.1875" y2="148.9230769230769" fill="rgb(0, 0, 0)" stroke="rgb(60, 60, 60)" stroke-width="1px" opacity="0.25"></line><line x1="0" y1="135.3846153846154" x2="267.1875" y2="135.3846153846154" fill="rgb(0, 0, 0)" stroke="rgb(60, 60, 60)" stroke-width="1px" opacity="0.25"></line><line x1="0" y1="121.84615384615384" x2="267.1875" y2="121.84615384615384" fill="rgb(0, 0, 0)" stroke="rgb(60, 60, 60)" stroke-width="1px" opacity="0.25"></line><line x1="0" y1="108.30769230769232" x2="267.1875" y2="108.30769230769232" fill="rgb(0, 0, 0)" stroke="rgb(60, 60, 60)" stroke-width="1px" opacity="0.25"></line><line x1="0" y1="94.76923076923077" x2="267.1875" y2="94.76923076923077" fill="rgb(0, 0, 0)" stroke="rgb(60, 60, 60)" stroke-width="1px" opacity="0.25"></line><line x1="0" y1="81.23076923076924" x2="267.1875" y2="81.23076923076924" fill="rgb(0, 0, 0)" stroke="rgb(60, 60, 60)" stroke-width="1px" opacity="0.25"></line><line x1="0" y1="67.69230769230771" x2="267.1875" y2="67.69230769230771" fill="rgb(0, 0, 0)" stroke="rgb(60, 60, 60)" stroke-width="1px" opacity="0.25"></line><line x1="0" y1="54.15384615384616" x2="267.1875" y2="54.15384615384616" fill="rgb(0, 0, 0)" stroke="rgb(60, 60, 60)" stroke-width="1px" opacity="0.25"></line><line x1="0" y1="40.61538461538464" x2="267.1875" y2="40.61538461538464" fill="rgb(0, 0, 0)" stroke="rgb(60, 60, 60)" stroke-width="1px" opacity="0.25"></line><line x1="0" y1="27.076923076923066" x2="267.1875" y2="27.076923076923066" fill="rgb(0, 0, 0)" stroke="rgb(60, 60, 60)" stroke-width="1px" opacity="0.25"></line><line x1="0" y1="13.538461538461519" x2="267.1875" y2="13.538461538461519" fill="rgb(0, 0, 0)" stroke="rgb(60, 60, 60)" stroke-width="1px" opacity="0.25"></line><line x1="0" y1="0" x2="267.1875" y2="0" fill="rgb(0, 0, 0)" stroke="rgb(60, 60, 60)" stroke-width="1px" opacity="0.25"></line></g></g></g><g><g><line x1="0" y1="162.46153846153845" x2="267.1875" y2="162.46153846153845" fill="rgb(0, 0, 0)" stroke="rgb(153, 153, 153)" stroke-width="1.5px"></line></g></g><g><g><line x1="33.3984375" y1="0" x2="33.3984375" y2="176" fill="rgb(0, 0, 0)" stroke="rgb(153, 153, 153)" stroke-width="1.5px"></line></g></g><g><g><g><g><g><path stroke="rgb(0, 119, 187)" stroke-width="2px" d="M33.3984375,162.46153846153845L34.06640625,162.46153846153845L34.734375,162.46153846153845L35.40234375,162.46153846153845L36.0703125,162.46153846153845L36.73828125,162.46153846153845L37.40625000000001,162.46153846153845L38.07421875,162.46153846153845L38.7421875,162.46153846153845L39.41015625,162.46153846153845L40.078125,162.46153846153845L40.74609375,140.75274435767676L41.4140625,125.59079271706455L42.08203125,118.67213047870388L42.75,108.60875752856934L43.41796875,82.89650982623859L44.0859375,114.72790927293937L44.75390625,126.79001990525552L45.421875,141.05949685224493L46.08984374999999,148.21309549991076L46.7578125,149.16382974852877L47.42578125,132.8211593443997L48.09375,141.81791937671073L48.76171875,128.41376471232496L49.4296875,113.39589943617818L50.09765625,117.4474700383814L50.765625,135.45311583624928L51.43359375,133.67451269897654L52.1015625,136.94195488183374L52.76953125,110.78744879374958L53.4375,88.13400408737256L54.10546875000001,63.43919999594952L54.7734375,82.86793485284844L55.44140625,90.52665721526571L56.109375,58.83550191143185L56.77734375,57.31110144053709L57.4453125,50.155824744037844L58.11328125,73.44003617621456L58.78125,73.30580930778095L59.44921875,71.4698680519785L60.1171875,18.578790624252605L60.78515625,31.28308587828019L61.453125,48.470857966444854L62.12109375,56.45303785253883L62.78906249999999,49.243554747657925L63.45703125,70.4804768334961L64.125,53.53733893947641L64.79296875,59.20390413614257L65.4609375,53.5194225362589L66.12890625,37.104192325896975L66.796875,21.479792100690787L67.46484375,53.22719308112924L68.1328125,66.09432301563585L68.80078125,72.07160035892957L69.46875,73.64258003676046L70.13671875,77.13537542167825L70.8046875,60.73491987533647L71.47265625,59.7347373725425L72.140625,58.40932686190804L72.80859375,88.86664733327183L73.4765625,78.3983584795902L74.14453125,77.05899154226881L74.81250000000001,76.76393068022531L75.48046874999999,68.53345876401704L76.1484375,88.40486931757684L76.81640625,59.091635626753984L77.484375,59.5676778623054L78.15234375,48.619780054879485L78.8203125,26.85358002211035L79.48828125,31.2567060248347L80.15625,46.20028104475736L80.82421875,36.80690756540608L81.4921875,45.406560756754175L82.16015625,62.58480436223685L82.828125,61.5481457774608L83.49609375,45.69374166287824L84.1640625,62.76655750946449L84.83203125,70.9176992339314L85.5,76.80666853515677L86.16796875,78.63760383856703L86.8359375,61.4072527257852L87.50390625,76.13957434336625L88.171875,70.52004103968862L88.83984375,33.05656232945469L89.5078125,23.567406612479004L90.17578125,33.17876735522026L90.84375,32.87173214211731L91.51171875000001,41.69811147108018L92.17968749999999,36.97539670536443L92.84765625,36.14495663941085L93.515625,52.61585634777286L94.18359375,62.032395689203824L94.8515625,36.46223326970468L95.51953125,35.74712826373084L96.1875,54.81503228238215L96.85546875,41.032479335061794L97.5234375,59.546887808556605L98.19140625,43.311901441706965L98.859375,27.106727281415402L99.52734375,60.64102872654347L100.1953125,58.22639333549789L100.86328125,62.921549431850124L101.53125,50.85716602714268L102.19921875,47.251670972956276L102.8671875,29.59308479812924L103.53515625,61.03962069182829L104.203125,65.03790481208841L104.87109375,50.35611286124268L105.5390625,56.46039916675315L106.20703125,44.55035613354045L106.875,59.67327556742519L107.54296875,41.12933765490823L108.21093750000001,32.91337823240556L108.87890624999999,55.09077021149113L109.546875,38.49581649701187L110.21484375,45.23021853355493L110.8828125,62.09522405085336L111.55078125,44.11067329582153L112.21875,59.98828513969619L112.88671875,53.28424616691943L113.5546875,48.49281385334052L114.22265625,46.49709986736792L114.890625,22.744279723981435L115.55859375,34.87237889771518L116.2265625,61.06288818105514L116.89453125,58.218091032412374L117.5625,36.701628052252374L118.23046875,29.93416406373575L118.8984375,31.747393075129224L119.56640625,33.372414034399185L120.234375,58.618359907925424L120.90234375,65.70497121068074L121.5703125,53.70517354812945L122.23828125,39.93038221913457L122.90625,50.72744812843088L123.57421875,46.53025796303359L124.2421875,50.60738230749263L124.91015625000001,75.92271214863696L125.57812499999999,66.62838602425204L126.24609375,53.83936042267548L126.9140625,41.53581370703077L127.58203125,32.07633770213312L128.25,35.9797718548661L128.91796875,42.16563751289715L129.5859375,59.9919910329411L130.25390625,62.25788764344631L130.921875,56.54257508719462L131.58984375,51.59089228366817L132.2578125,38.213520801578596L132.92578125,58.6443533491488L133.59375,60.5235143931469L134.26171874999997,65.48711783341669L134.9296875,39.842133840449634L135.59765625,37.506123352365506L136.265625,47.606620718337865L136.93359375,42.464586421199556L137.6015625,46.192891996480995L138.26953125,44.462873940188786L138.9375,39.930333969168856L139.60546875,32.647943188742886L140.2734375,19.641977184091616L140.94140625,5.922964137791212L141.609375,15.116523855740382L142.27734375,43.03327420489558L142.9453125,39.63767193683083L143.61328125,29.459833762308847L144.28125,41.212140233534654L144.94921875,51.88932872395493L145.6171875,41.90151433924075L146.28515625,48.548226190589986L146.953125,45.43961821651368L147.62109375,45.5187280409734L148.2890625,54.8226381330839L148.95703125,55.76233534473167L149.62500000000003,51.93567186958691L150.29296875,41.92436229392763L150.96093749999997,40.09727519918559L151.62890625,59.6143575981021L152.296875,51.06310161706064L152.96484375,54.07967750559922L153.6328125,48.43895411688494L154.30078125,44.20266913385541L154.96875,37.21290948718672L155.63671875,45.944058218134614L156.3046875,55.61975183949704L156.97265625,50.21906197312056L157.640625,53.27519029431781L158.30859375,58.53270714956619L158.9765625,57.07618169565167L159.64453125,54.52971622188694L160.3125,52.786244333211044L160.98046875,50.398236679366235L161.6484375,46.75670212302316L162.31640625,32.954012001165154L162.984375,44.781369450454974L163.65234375,31.370182989007958L164.3203125,30.96961363157709L164.98828125,49.27682720698489L165.65625,48.84125460478364L166.32421875000003,47.97824848101922L166.9921875,47.112030605757724L167.66015624999997,44.68041645305425L168.328125,47.01334008648851L168.99609375,49.39282501934727L169.6640625,46.516846416355975L170.33203125,46.30642414338328L171,39.7452647737403L171.66796875,35.27986179440117L172.3359375,33.99246277554019L173.00390625,35.35843848075382L173.671875,39.22957014740285L174.33984375,34.49202388071561L175.0078125,38.03869618455545L175.67578125,33.17499770716503L176.34375,44.22689017421641L177.01171875,38.11681002193518L177.6796875,38.61421495931873L178.34765625,29.985251317275413L179.015625,32.644366697535474L179.68359375,33.47781845555181L180.3515625,33.45112852872845L181.01953125,40.09234641702301L181.6875,49.519999595443664L182.35546875,49.480059179685824L183.02343750000003,48.931064060527106L183.69140625,42.320863602050196L184.35937499999997,40.10496457940542L185.02734375,35.055055093233705L185.6953125,38.41800209233594L186.36328125,39.579719947183435L187.03125,41.68125294186774L187.69921875,37.35656447639619L188.3671875,32.243405637648124L189.03515625,37.19516658909424L189.703125,36.34965111735002L190.37109375,41.421843059701644L191.0390625,35.95579314332545L191.70703125,35.94504829247066L192.375,25.914326409188817L193.04296875,27.495539040562875L193.7109375,27.700037669473687L194.37890625,30.721377992966524L195.046875,28.951853097237233L195.71484375,34.08509765358346L196.3828125,36.29449789972972L197.05078125,37.47000564807851L197.71875,39.67321280046821L198.38671875,39.48289338087062L199.0546875,40.176376723947556L199.72265625000003,34.227617345779294L200.390625,34.00591203766962L201.05859374999997,31.45881138745304L201.7265625,29.60139074717287L202.39453125,26.533641995066006L203.0625,30.262326333795926L203.73046875,30.120513605171624L204.3984375,31.711765630989078L205.06640625,32.30989106945509L205.734375,35.488506627944844L206.40234375,31.216720004598898L207.0703125,29.352438947621124L207.73828125,33.47526376952669L208.40625,33.31429838200225L209.07421875,32.31131157314664L209.7421875,30.291850925164283L210.41015625,30.531961164511102L211.078125,30.696220554813948L211.74609375,28.962955627659994L212.4140625,31.22117747158549L213.08203125,31.01787687667499L213.75,30.194804166494777L214.41796875,31.101553931218206L215.0859375,32.81888435927553L215.75390625,32.04512125089437L216.42187500000003,31.248717401509424L217.08984375,29.777219520307682L217.75781249999997,27.669795339926537L218.42578125,28.0059525917639L219.09375,28.590650471167862L219.76171875,28.683314549809353L220.4296875,27.813364443527433L221.09765625,29.263166793745683L221.765625,30.337601661283458L222.43359375,29.462591655198565L223.1015625,29.039200676994597L223.76953125,29.378152270304327L224.4375,28.006643653348476L225.10546875,28.204155916693594L225.7734375,28.447860758643685L226.44140625,28.85005630597874L227.109375,29.253578083373128L227.77734375,28.69518514488942L228.4453125,28.204429624719097L229.11328125,27.672479716500646L229.78125,28.252884051354727L230.44921875,27.990600494007708L231.1171875,27.385851173996258L231.78515625,27.60855409100384L232.453125,27.817438937944416L233.12109375000003,27.649093029608593" style="fill: none;" fill="none"></path></g></g></g></g><g opacity="0.2"><g><g><g><path stroke="rgb(0, 119, 187)" stroke-width="2px" d="M33.3984375,162.46153846153845L34.06640625,162.46153846153845L34.734375,162.46153846153845L35.40234375,162.46153846153845L36.0703125,162.46153846153845L36.73828125,162.46153846153845L37.40625000000001,162.46153846153845L38.07421875,162.46153846153845L38.7421875,162.46153846153845L39.41015625,162.46153846153845L40.078125,162.46153846153845L40.74609375,108.30769150073712L41.4140625,102.89737165891208L42.08203125,108.30769150073712L42.75,93.52552722050594L43.41796875,44.34627254192645L44.0859375,162.46153846153845L44.75390625,144.88012328514685L45.421875,162.46153846153845L46.08984374999999,158.94283960415765L46.7578125,150.58987898093005L47.42578125,108.30769150073712L48.09375,155.3128817998446L48.76171875,108.30769150073712L49.4296875,90.8692082625169L50.09765625,123.52480866358832L50.765625,162.46153846153845L51.43359375,131.0066107236422L52.1015625,141.84311514634354L52.76953125,71.55570411682129L53.4375,54.153844539935776L54.10546875000001,26.396998772254335L54.7734375,112.01103481879602L55.44140625,102.01474021031306L56.109375,11.29877031766452L56.77734375,55.02450077350325L57.4453125,39.42290980999286L58.11328125,108.36635310833272L58.78125,73.10446900587816L59.44921875,68.71595617441031L60.1171875,-60.75782541128308L60.78515625,50.33952874403734L61.453125,74.25251608628493L62.12109375,68.42630767822266L62.78906249999999,38.42933009221002L63.45703125,102.33585995894212L64.125,28.12263210003192L64.79296875,67.7037519308237L65.4609375,44.992700136624876L66.12890625,12.481347010685852L66.796875,-1.9568082369291062L67.46484375,100.84829455155594L68.1328125,85.39501791733962L68.80078125,81.03751637385443L69.46875,75.99904955350436L70.13671875,82.37456849905162L70.8046875,36.13423655583307L71.47265625,58.23446361835188L72.140625,56.421211095956664L72.80859375,134.55262804031372L73.4765625,62.69592519906851L74.14453125,75.04994113628682L74.81250000000001,76.3213393871601L75.48046874999999,56.18775088970479L76.1484375,118.21198514791635L76.81640625,15.121785090519836L77.484375,60.28174121563252L78.15234375,32.1979333437406L78.8203125,-5.795720027043274L79.48828125,37.861395028921265L80.15625,68.61564357464131L80.82421875,22.71684734637921L81.4921875,58.306040543776305L82.16015625,88.35216977046088L82.828125,59.99315790029674L83.49609375,21.912135491004364L84.1640625,88.37578127934383L84.83203125,83.14441182063177L85.5,85.64012248699483L86.16796875,81.38400679368239L86.8359375,35.56172605661243L87.50390625,98.23805676973784L88.171875,62.090741084172194L88.83984375,-23.138655735896208L89.5078125,9.333673037015473L90.17578125,47.595808469332184L90.84375,32.4111793224628L91.51171875000001,54.937680464524504L92.17968749999999,29.891324556790863L92.84765625,34.89929654048038L93.515625,77.32220591031589L94.18359375,76.1572047013503L94.8515625,-1.8930103595440073L95.51953125,34.67447075477011L96.1875,83.41688831035908L96.85546875,20.35864991408127L97.5234375,87.31850051879883L98.19140625,18.959421891432527L98.859375,2.7989660409780583L99.52734375,110.94248089423546L100.1953125,54.60444024892955L100.86328125,69.96428357637845L101.53125,32.76059092008148L102.19921875,41.843428391676696L102.8671875,3.105205535888672L103.53515625,108.2094245323768L104.203125,71.0353309924786L104.87109375,28.33342493497406L105.5390625,65.61682862501878L106.20703125,26.685291583721465L106.875,82.35765471825233L107.54296875,13.313430786132812L108.21093750000001,20.58943909865158L108.87890624999999,88.35685818011945L109.546875,13.603385925292969L110.21484375,55.33182158836952L110.8828125,87.39273232680101L111.55078125,17.133847163273742L112.21875,83.8047029055082L112.88671875,43.2281877077543L113.5546875,41.30566538297214L114.22265625,43.503528888408965L114.890625,-12.884950491098238L115.55859375,53.06452765831581L116.2265625,100.34865210606502L116.89453125,53.95089530944824L117.5625,4.426933582012481L118.23046875,19.782968080960785L118.8984375,34.46723659221942L119.56640625,35.80994547330414L120.234375,96.48727871821478L120.90234375,76.3348881648137L121.5703125,35.70547705430252L122.23828125,19.268195225642273L122.90625,66.92304699237532L123.57421875,40.234472714937624L124.2421875,56.72306882418121L124.91015625000001,113.89570691035345L125.57812499999999,52.68689683767467L126.24609375,34.65582202031061L126.9140625,23.08049363356369L127.58203125,17.887123694786652L128.25,41.834923083965606L128.91796875,51.44443599994368L129.5859375,86.73152131300706L130.25390625,65.6567325592041L130.921875,47.969606252817016L131.58984375,44.16336807837854L132.2578125,18.147463578444246L132.92578125,89.29060217050406L133.59375,63.34225595914401L134.26171874999997,72.93252299382138L134.9296875,1.3746578509990854L135.59765625,34.00210762023926L136.265625,62.757366767296446L136.93359375,34.751534975492035L137.6015625,51.78535035940318L138.26953125,41.86784685575046L138.9375,33.13152401263898L139.60546875,21.724357018103973L140.2734375,0.13302817711462467L140.94140625,-14.655555431659423L141.609375,28.906863432664125L142.27734375,84.90839972862831L142.9453125,34.5442685347337L143.61328125,14.193076500525848L144.28125,58.840599940373366L144.94921875,67.90511145958534L145.6171875,26.919792762169465L146.28515625,58.51829396761383L146.953125,40.77670625539929L147.62109375,45.637392777663024L148.2890625,68.77850327124963L148.95703125,57.17188116220328L149.62500000000003,46.19567665686975L150.29296875,26.90739793043869L150.96093749999997,37.35664455707257L151.62890625,88.88998119647687L152.296875,38.236217645498414L152.96484375,58.60454133840709L153.6328125,39.97786903381348L154.30078125,37.84824165931113L154.96875,26.728270017183718L155.63671875,59.04078131455641L156.3046875,70.13329227154072L156.97265625,42.11802717355582L157.640625,57.85938277611366L158.30859375,66.4189824324388L158.9765625,54.89139351477991L159.64453125,50.71001801123987L160.3125,50.171036500197204L160.98046875,46.81622519859903L161.6484375,41.294400288508484L162.31640625,12.249976818378144L162.984375,62.52240562438965L163.65234375,11.253403296837433L164.3203125,30.368759595430788L164.98828125,76.73764757009654L165.65625,48.187895701481764L166.32421875000003,46.68373929537262L166.9921875,45.81270379286545L167.66015624999997,41.03299522399902L168.328125,50.51272553663988L168.99609375,52.96205241863545L169.6640625,42.20287851186902L170.33203125,45.990790733924285L171,29.90352571927582L171.66796875,28.581757325392488L172.3359375,32.06136424724872L173.00390625,37.40740203857422L173.671875,45.036267647376434L174.33984375,27.385704480684694L175.0078125,43.358704640315125L175.67578125,25.87944999107947L176.34375,60.804728874793426L177.01171875,28.951689793513367L177.6796875,39.36032236539398L178.34765625,17.04180585421048L179.015625,36.63303976792557L179.68359375,34.727996092576234L180.3515625,33.41109363849347L181.01953125,50.05417324946478L181.6875,63.661479363074676L182.35546875,49.42014855604906L183.02343750000003,48.107571381789L183.69140625,32.40556291433481L184.35937499999997,36.781116045438324L185.02734375,27.480190863976105L185.6953125,43.46242259098935L186.36328125,41.32229672945465L187.03125,44.833552433894226L187.69921875,30.869531778188843L188.3671875,24.573667379525972L189.03515625,44.62280801626355L189.703125,35.0813779097337L190.37109375,49.03013097322906L191.0390625,27.75671826876126L191.70703125,35.928931016188386L192.375,10.868243584266082L193.04296875,29.867357987623933L193.7109375,28.006785612839906L194.37890625,35.25338847820575L195.046875,26.29756575364334L195.71484375,41.784964488102844L196.3828125,39.608598268949066L197.05078125,39.23326727060169L197.71875,42.978023529052734L198.38671875,39.197414251474214L199.0546875,41.21660173856296L199.72265625000003,25.304478278526886L200.390625,33.67335407550519L201.05859374999997,27.638160412128144L201.7265625,26.815259786752534L202.39453125,21.932018866905793L203.0625,35.85535284189075L203.73046875,29.9077945122352L204.3984375,34.09864366971527L205.06640625,33.20707922715408L205.734375,40.25642996567947L206.40234375,24.809040069580078L207.0703125,26.55601736215442L207.73828125,39.65950100238507L208.40625,33.072850300715515L209.07421875,30.80683135986328L209.7421875,27.262659953190735L210.41015625,30.892126523531374L211.078125,30.94260964026816L211.74609375,26.363058236929078L212.4140625,34.608510237473695L213.08203125,30.712925984309265L213.75,28.960195101224457L214.41796875,32.461678578303406L215.0859375,35.39488000136154L215.75390625,30.88447658832257L216.42187500000003,30.054111627432007L217.08984375,27.569972698505097L217.75781249999997,24.508659069354707L218.42578125,28.51018846951996L219.09375,29.467697290273804L219.76171875,28.822310667771546L220.4296875,26.508439284104554L221.09765625,31.437870319073028L221.765625,31.94925396259015L222.43359375,28.1500766460712L223.1015625,28.4041142096886L223.76953125,29.88657966026892L224.4375,25.949380727914644L225.10546875,28.500424311711242L225.7734375,28.81341802156888L226.44140625,29.453349626981293L227.109375,29.858860749464753L227.77734375,27.857595737163848L228.4453125,27.468296344463653L229.11328125,26.874554854172914L229.78125,29.123490553635804L230.44921875,27.597175157987152L231.1171875,26.478727193979097L231.78515625,27.942608466515168L232.453125,28.130766208355254L233.12109375000003,27.39657416710486" style="fill: none;" fill="none"></path></g></g></g></g></g></g><g transform="translate(62, 176)" clip-path="url(#clip_1)"><clipPath id="clip_1"><rect width="267" height="24"></rect></clipPath><g><g><line x1="0" y1="0" x2="0" y2="5" style="visibility: inherit;" fill="rgb(0, 0, 0)" stroke="rgb(204, 204, 204)" stroke-width="1px"></line><line x1="33.3984375" y1="0" x2="33.3984375" y2="5" style="visibility: inherit;" fill="rgb(0, 0, 0)" stroke="rgb(204, 204, 204)" stroke-width="1px"></line><line x1="66.796875" y1="0" x2="66.796875" y2="5" style="visibility: inherit;" fill="rgb(0, 0, 0)" stroke="rgb(204, 204, 204)" stroke-width="1px"></line><line x1="100.1953125" y1="0" x2="100.1953125" y2="5" style="visibility: inherit;" fill="rgb(0, 0, 0)" stroke="rgb(204, 204, 204)" stroke-width="1px"></line><line x1="133.59375" y1="0" x2="133.59375" y2="5" style="visibility: inherit;" fill="rgb(0, 0, 0)" stroke="rgb(204, 204, 204)" stroke-width="1px"></line><line x1="166.9921875" y1="0" x2="166.9921875" y2="5" style="visibility: inherit;" fill="rgb(0, 0, 0)" stroke="rgb(204, 204, 204)" stroke-width="1px"></line><line x1="200.390625" y1="0" x2="200.390625" y2="5" style="visibility: inherit;" fill="rgb(0, 0, 0)" stroke="rgb(204, 204, 204)" stroke-width="1px"></line><line x1="233.7890625" y1="0" x2="233.7890625" y2="5" style="visibility: inherit;" fill="rgb(0, 0, 0)" stroke="rgb(204, 204, 204)" stroke-width="1px"></line><line x1="267.1875" y1="0" x2="267.1875" y2="5" style="visibility: inherit;" fill="rgb(0, 0, 0)" stroke="rgb(204, 204, 204)" stroke-width="1px"></line></g><g transform="translate(0, 8)"><text x="0" y="0" dx="0em" dy="0.95em" style="text-anchor: middle; visibility: hidden; font-family: &quot;Helvetica Neue&quot;, sans-serif; font-size: 12px; font-weight: 200;" fill="rgb(50, 49, 63)" stroke="none" stroke-width="1px">-50</text><text x="33.3984375" y="0" dx="0em" dy="0.95em" style="text-anchor: middle; visibility: inherit; font-family: &quot;Helvetica Neue&quot;, sans-serif; font-size: 12px; font-weight: 200;" fill="rgb(50, 49, 63)" stroke="none" stroke-width="1px">0</text><text x="66.796875" y="0" dx="0em" dy="0.95em" style="text-anchor: middle; visibility: inherit; font-family: &quot;Helvetica Neue&quot;, sans-serif; font-size: 12px; font-weight: 200;" fill="rgb(50, 49, 63)" stroke="none" stroke-width="1px">50</text><text x="100.1953125" y="0" dx="0em" dy="0.95em" style="text-anchor: middle; visibility: inherit; font-family: &quot;Helvetica Neue&quot;, sans-serif; font-size: 12px; font-weight: 200;" fill="rgb(50, 49, 63)" stroke="none" stroke-width="1px">100</text><text x="133.59375" y="0" dx="0em" dy="0.95em" style="text-anchor: middle; visibility: inherit; font-family: &quot;Helvetica Neue&quot;, sans-serif; font-size: 12px; font-weight: 200;" fill="rgb(50, 49, 63)" stroke="none" stroke-width="1px">150</text><text x="166.9921875" y="0" dx="0em" dy="0.95em" style="text-anchor: middle; visibility: inherit; font-family: &quot;Helvetica Neue&quot;, sans-serif; font-size: 12px; font-weight: 200;" fill="rgb(50, 49, 63)" stroke="none" stroke-width="1px">200</text><text x="200.390625" y="0" dx="0em" dy="0.95em" style="text-anchor: middle; visibility: inherit; font-family: &quot;Helvetica Neue&quot;, sans-serif; font-size: 12px; font-weight: 200;" fill="rgb(50, 49, 63)" stroke="none" stroke-width="1px">250</text><text x="233.7890625" y="0" dx="0em" dy="0.95em" style="text-anchor: middle; visibility: inherit; font-family: &quot;Helvetica Neue&quot;, sans-serif; font-size: 12px; font-weight: 200;" fill="rgb(50, 49, 63)" stroke="none" stroke-width="1px">300</text><text x="267.1875" y="0" dx="0em" dy="0.95em" style="text-anchor: middle; visibility: hidden; font-family: &quot;Helvetica Neue&quot;, sans-serif; font-size: 12px; font-weight: 200;" fill="rgb(50, 49, 63)" stroke="none" stroke-width="1px">350</text></g><line x1="0" y1="0" x2="267.1875" y2="0" fill="rgb(0, 0, 0)" stroke="rgb(204, 204, 204)" stroke-width="1px"></line></g></g></g></g></svg>