<svg viewBox="0 0 330 200" xmlns="http://www.w3.org/2000/svg"><g><g><g><g><g><line x1="52.25" y1="176" x2="47.25" y2="176" style="visibility: inherit;" fill="rgb(0, 0, 0)" stroke="rgb(204, 204, 204)" stroke-width="1px"></line><line x1="52.25" y1="160" x2="47.25" y2="160" style="visibility: inherit;" fill="rgb(0, 0, 0)" stroke="rgb(204, 204, 204)" stroke-width="1px"></line><line x1="52.25" y1="144" x2="47.25" y2="144" style="visibility: inherit;" fill="rgb(0, 0, 0)" stroke="rgb(204, 204, 204)" stroke-width="1px"></line><line x1="52.25" y1="128" x2="47.25" y2="128" style="visibility: inherit;" fill="rgb(0, 0, 0)" stroke="rgb(204, 204, 204)" stroke-width="1px"></line><line x1="52.25" y1="112" x2="47.25" y2="112" style="visibility: inherit;" fill="rgb(0, 0, 0)" stroke="rgb(204, 204, 204)" stroke-width="1px"></line><line x1="52.25" y1="96" x2="47.25" y2="96" style="visibility: inherit;" fill="rgb(0, 0, 0)" stroke="rgb(204, 204, 204)" stroke-width="1px"></line><line x1="52.25" y1="80" x2="47.25" y2="80" style="visibility: inherit;" fill="rgb(0, 0, 0)" stroke="rgb(204, 204, 204)" stroke-width="1px"></line><line x1="52.25" y1="64.00000000000003" x2="47.25" y2="64.00000000000003" style="visibility: inherit;" fill="rgb(0, 0, 0)" stroke="rgb(204, 204, 204)" stroke-width="1px"></line><line x1="52.25" y1="48.000000000000014" x2="47.25" y2="48.000000000000014" style="visibility: inherit;" fill="rgb(0, 0, 0)" stroke="rgb(204, 204, 204)" stroke-width="1px"></line><line x1="52.25" y1="32" x2="47.25" y2="32" style="visibility: inherit;" fill="rgb(0, 0, 0)" stroke="rgb(204, 204, 204)" stroke-width="1px"></line><line x1="52.25" y1="16" x2="47.25" y2="16" style="visibility: inherit;" fill="rgb(0, 0, 0)" stroke="rgb(204, 204, 204)" stroke-width="1px"></line><line x1="52.25" y1="0" x2="47.25" y2="0" style="visibility: inherit;" fill="rgb(0, 0, 0)" stroke="rgb(204, 204, 204)" stroke-width="1px"></line></g><g transform="translate(42.25, 0)"><text x="0" y="176" dx="0em" dy="0.3em" style="text-anchor: end; visibility: hidden; font-family: &quot;Helvetica Neue&quot;, sans-serif; font-size: 12px; font-weight: 200;" fill="rgb(50, 49, 63)" stroke="none" stroke-width="1px">-0.1</text><text x="0" y="160" dx="0em" dy="0.3em" style="text-anchor: end; visibility: inherit; font-family: &quot;Helvetica Neue&quot;, sans-serif; font-size: 12px; font-weight: 200;" fill="rgb(50, 49, 63)" stroke="none" stroke-width="1px">0</text><text x="0" y="144" dx="0em" dy="0.3em" style="text-anchor: end; visibility: hidden; font-family: &quot;Helvetica Neue&quot;, sans-serif; font-size: 12px; font-weight: 200;" fill="rgb(50, 49, 63)" stroke="none" stroke-width="1px">0.1</text><text x="0" y="128" dx="0em" dy="0.3em" style="text-anchor: end; visibility: inherit; font-family: &quot;Helvetica Neue&quot;, sans-serif; font-size: 12px; font-weight: 200;" fill="rgb(50, 49, 63)" stroke="none" stroke-width="1px">0.2</text><text x="0" y="112" dx="0em" dy="0.3em" style="text-anchor: end; visibility: hidden; font-family: &quot;Helvetica Neue&quot;, sans-serif; font-size: 12px; font-weight: 200;" fill="rgb(50, 49, 63)" stroke="none" stroke-width="1px">0.3</text><text x="0" y="96" dx="0em" dy="0.3em" style="text-anchor: end; visibility: inherit; font-family: &quot;Helvetica Neue&quot;, sans-serif; font-size: 12px; font-weight: 200;" fill="rgb(50, 49, 63)" stroke="none" stroke-width="1px">0.4</text><text x="0" y="80" dx="0em" dy="0.3em" style="text-anchor: end; visibility: hidden; font-family: &quot;Helvetica Neue&quot;, sans-serif; font-size: 12px; font-weight: 200;" fill="rgb(50, 49, 63)" stroke="none" stroke-width="1px">0.5</text><text x="0" y="64.00000000000003" dx="0em" dy="0.3em" style="text-anchor: end; visibility: inherit; font-family: &quot;Helvetica Neue&quot;, sans-serif; font-size: 12px; font-weight: 200;" fill="rgb(50, 49, 63)" stroke="none" stroke-width="1px">0.6</text><text x="0" y="48.000000000000014" dx="0em" dy="0.3em" style="text-anchor: end; visibility: hidden; font-family: &quot;Helvetica Neue&quot;, sans-serif; font-size: 12px; font-weight: 200;" fill="rgb(50, 49, 63)" stroke="none" stroke-width="1px">0.7</text><text x="0" y="32" dx="0em" dy="0.3em" style="text-anchor: end; visibility: inherit; font-family: &quot;Helvetica Neue&quot;, sans-serif; font-size: 12px; font-weight: 200;" fill="rgb(50, 49, 63)" stroke="none" stroke-width="1px">0.8</text><text x="0" y="16" dx="0em" dy="0.3em" style="text-anchor: end; visibility: hidden; font-family: &quot;Helvetica Neue&quot;, sans-serif; font-size: 12px; font-weight: 200;" fill="rgb(50, 49, 63)" stroke="none" stroke-width="1px">0.9</text><text x="0" y="0" dx="0em" dy="0.3em" style="text-anchor: end; visibility: hidden; font-family: &quot;Helvetica Neue&quot;, sans-serif; font-size: 12px; font-weight: 200;" fill="rgb(50, 49, 63)" stroke="none" stroke-width="1px">1</text></g><line x1="52.25" y1="0" x2="52.25" y2="176" fill="rgb(0, 0, 0)" stroke="rgb(204, 204, 204)" stroke-width="1px"></line></g></g><g transform="translate(52, 0)" clip-path="url(#clip_0)"><clipPath id="clip_0"><rect width="277" height="176"></rect></clipPath><g><g><g><line x1="0" y1="0" x2="0" y2="176" fill="rgb(0, 0, 0)" stroke="rgb(60, 60, 60)" stroke-width="1px" opacity="0.25"></line><line x1="34.71875" y1="0" x2="34.71875" y2="176" fill="rgb(0, 0, 0)" stroke="rgb(60, 60, 60)" stroke-width="1px" opacity="0.25"></line><line x1="69.4375" y1="0" x2="69.4375" y2="176" fill="rgb(0, 0, 0)" stroke="rgb(60, 60, 60)" stroke-width="1px" opacity="0.25"></line><line x1="104.15625" y1="0" x2="104.15625" y2="176" fill="rgb(0, 0, 0)" stroke="rgb(60, 60, 60)" stroke-width="1px" opacity="0.25"></line><line x1="138.875" y1="0" x2="138.875" y2="176" fill="rgb(0, 0, 0)" stroke="rgb(60, 60, 60)" stroke-width="1px" opacity="0.25"></line><line x1="173.59375" y1="0" x2="173.59375" y2="176" fill="rgb(0, 0, 0)" stroke="rgb(60, 60, 60)" stroke-width="1px" opacity="0.25"></line><line x1="208.3125" y1="0" x2="208.3125" y2="176" fill="rgb(0, 0, 0)" stroke="rgb(60, 60, 60)" stroke-width="1px" opacity="0.25"></line><line x1="243.03125" y1="0" x2="243.03125" y2="176" fill="rgb(0, 0, 0)" stroke="rgb(60, 60, 60)" stroke-width="1px" opacity="0.25"></line><line x1="277.75" y1="0" x2="277.75" y2="176" fill="rgb(0, 0, 0)" stroke="rgb(60, 60, 60)" stroke-width="1px" opacity="0.25"></line></g><g><line x1="0" y1="176" x2="277.75" y2="176" fill="rgb(0, 0, 0)" stroke="rgb(60, 60, 60)" stroke-width="1px" opacity="0.25"></line><line x1="0" y1="160" x2="277.75" y2="160" fill="rgb(0, 0, 0)" stroke="rgb(60, 60, 60)" stroke-width="1px" opacity="0.25"></line><line x1="0" y1="144" x2="277.75" y2="144" fill="rgb(0, 0, 0)" stroke="rgb(60, 60, 60)" stroke-width="1px" opacity="0.25"></line><line x1="0" y1="128" x2="277.75" y2="128" fill="rgb(0, 0, 0)" stroke="rgb(60, 60, 60)" stroke-width="1px" opacity="0.25"></line><line x1="0" y1="112" x2="277.75" y2="112" fill="rgb(0, 0, 0)" stroke="rgb(60, 60, 60)" stroke-width="1px" opacity="0.25"></line><line x1="0" y1="96" x2="277.75" y2="96" fill="rgb(0, 0, 0)" stroke="rgb(60, 60, 60)" stroke-width="1px" opacity="0.25"></line><line x1="0" y1="80" x2="277.75" y2="80" fill="rgb(0, 0, 0)" stroke="rgb(60, 60, 60)" stroke-width="1px" opacity="0.25"></line><line x1="0" y1="64.00000000000003" x2="277.75" y2="64.00000000000003" fill="rgb(0, 0, 0)" stroke="rgb(60, 60, 60)" stroke-width="1px" opacity="0.25"></line><line x1="0" y1="48.000000000000014" x2="277.75" y2="48.000000000000014" fill="rgb(0, 0, 0)" stroke="rgb(60, 60, 60)" stroke-width="1px" opacity="0.25"></line><line x1="0" y1="32" x2="277.75" y2="32" fill="rgb(0, 0, 0)" stroke="rgb(60, 60, 60)" stroke-width="1px" opacity="0.25"></line><line x1="0" y1="16" x2="277.75" y2="16" fill="rgb(0, 0, 0)" stroke="rgb(60, 60, 60)" stroke-width="1px" opacity="0.25"></line><line x1="0" y1="0" x2="277.75" y2="0" fill="rgb(0, 0, 0)" stroke="rgb(60, 60, 60)" stroke-width="1px" opacity="0.25"></line></g></g></g><g><g><line x1="0" y1="160" x2="277.75" y2="160" fill="rgb(0, 0, 0)" stroke="rgb(153, 153, 153)" stroke-width="1.5px"></line></g></g><g><g><line x1="34.71875" y1="0" x2="34.71875" y2="176" fill="rgb(0, 0, 0)" stroke="rgb(153, 153, 153)" stroke-width="1.5px"></line></g></g><g><g><g><g><g><path stroke="rgb(0, 119, 187)" stroke-width="2px" d="M34.71875,160L35.413125,160L36.1075,160L36.801875,160L37.49625,160L38.190625000000004,160L38.885000000000005,160L39.579375,160L40.27375,160L40.968125,160L41.6625,160L42.356875,159.9321273874407L43.05125,159.82029438931926L43.745625,159.824455025384L44.44,159.31356503509423L45.134375,158.7310382290692L45.82875,159.23870886912187L46.523125,159.26373685598634L47.2175,159.55826006065016L47.911874999999995,158.81048425949504L48.606249999999996,159.21596977722453L49.300625,158.6762414083417L49.995,158.85253501316976L50.689375,159.24041173297664L51.38375,158.78989926905976L52.078125,159.2062154029399L52.7725,159.52372956673662L53.466875,157.38079540502028L54.16125,157.89680948537176L54.855625,153.78077410470027L55.550000000000004,155.3474064926771L56.244375000000005,154.08719984160587L56.93875,154.94095751229858L57.633125,156.51054564791167L58.3275,151.77845388668368L59.021875,150.28869764470818L59.71625,153.04117142749794L60.410625,148.73693714685174L61.105,152.06521207923285L61.799375,152.17088231359892L62.49375,151.42645507344486L63.188125,150.6988686873325L63.8825,150.6672307582888L64.576875,148.0248229935475L65.27125,141.22968585627422L65.965625,133.84046310937302L66.66,140.69986578702307L67.354375,134.86175106082788L68.04875,141.29005531149483L68.743125,138.77772295280676L69.4375,142.22508838061802L70.131875,132.3652215616673L70.82625,129.94552396635407L71.520625,133.9388014251047L72.215,129.31925924861463L72.909375,131.98262686874986L73.60375,133.56694027988064L74.298125,129.32598474745663L74.9925,127.50566126778534L75.686875,128.1630208604027L76.38125000000001,126.088855416327L77.075625,127.64498576566537L77.77000000000001,117.63905254033173L78.46437499999999,116.67365483657696L79.15875,116.6930833590995L79.85312499999999,119.16401857930248L80.5475,119.79389092205658L81.241875,126.56536329316316L81.93625,129.83300726727973L82.630625,118.45482373902995L83.325,123.31754508417725L84.019375,121.11259164096046L84.71375,121.72779477644639L85.408125,113.69655273561881L86.1025,110.79878414991622L86.796875,110.12164452864602L87.49125,105.31524097438975L88.185625,101.14202544400885L88.88,105.32063892668364L89.574375,110.36194664946721L90.26875,116.03873647875503L90.963125,111.72071312443563L91.6575,101.8723364745149L92.351875,120.16098905054146L93.04625,123.14451365737565L93.74062500000001,120.54207127731112L94.435,124.62076354885738L95.12937500000001,110.31424813785935L95.82374999999999,116.49678500484696L96.518125,116.7944237708525L97.21249999999999,116.2119482230828L97.906875,113.18435086439166L98.60125,109.2152808524973L99.295625,103.85473384963315L99.99,100.40234645907188L100.684375,111.05633402290407L101.37875,100.43193998588599L102.073125,100.05057253034995L102.7675,104.3477511262422L103.461875,95.53066300484689L104.15625,96.63806752641887L104.850625,90.59770486521657L105.545,99.06134356121977L106.239375,106.83957904017424L106.93375,102.27225404641901L107.628125,95.88431800402329L108.3225,90.7863300144501L109.016875,101.18515784143374L109.71125,98.6458366787372L110.405625,112.24825010752308L111.10000000000001,99.96175066265837L111.794375,103.45374259730205L112.48875000000001,104.32968231070058L113.18312499999999,108.86454446332465L113.8775,110.53728022108561L114.57187499999999,101.61373089510253L115.26625,84.49097031806737L115.960625,91.42095395597715L116.655,86.2550153057152L117.349375,84.9081529212221L118.04375,95.57720834208874L118.738125,100.36336144324152L119.4325,101.65198636362558L120.126875,100.18457789605621L120.82125,108.45583092800237L121.515625,100.93376810331023L122.21,100.5897179542713L122.904375,96.4255795060833L123.59875,86.18199260111092L124.293125,92.52394623205328L124.9875,84.81070868161478L125.681875,76.54577655784583L126.37625,79.86314250941453L127.070625,81.83176108548273L127.765,91.75958483427303L128.459375,91.47982507353746L129.15375,79.69009917620255L129.848125,91.77922559764049L130.5425,88.39897151581086L131.236875,87.60371014947675L131.93125,81.41861799642433L132.62562499999999,85.78457953503722L133.32,78.68047596198912L134.014375,77.62550664652942L134.70875,69.27247424548601L135.403125,63.290237782154904L136.0975,65.44353353843356L136.791875,65.65097348609727L137.48625,67.931450943465L138.180625,75.71990534085928L138.875,69.51278808366597L139.56937499999998,82.81120945603453L140.26375,80.51414876932385L140.958125,77.92328876110604L141.6525,71.49019457014018L142.34687499999998,80.28456817335851L143.04125,78.06096154610496L143.735625,74.91113900041688L144.43,77.41143941221304L145.124375,79.43533944688838L145.81875,78.68007497550607L146.513125,77.81752298212983L147.2075,72.19789141378962L147.901875,71.85084315515854L148.59625,67.9766329072553L149.290625,81.53423070565688L149.985,78.39588022026913L150.679375,67.17082128401695L151.37375,67.73169580385746L152.068125,68.2178405719141L152.76250000000002,65.88189147693753L153.456875,60.47397817839885L154.15125,59.46463135284009L154.845625,56.15680997015133L155.54000000000002,62.71193495059666L156.234375,65.9892100731412L156.92874999999998,62.841862835876924L157.623125,67.52460622691676L158.3175,69.56903924884537L159.011875,64.68592733348692L159.70624999999998,62.968176425726924L160.400625,63.56000436617835L161.095,59.90921505256833L161.789375,55.6338072297832L162.48375,49.60479071604375L163.178125,56.47118741790753L163.8725,59.17417821002188L164.566875,59.260301451159606L165.26125,55.56611434237547L165.955625,52.54177126655809L166.65,49.20013447624348L167.344375,53.174873471390626L168.03875,54.52749412067618L168.733125,53.55688190941743L169.4275,49.344292262105554L170.12187500000002,55.91347919637467L170.81625,53.64126912793222L171.510625,52.24459118867341L172.205,49.0165507031943L172.89937500000002,46.2615577717701L173.59375,43.94827987790583L174.28812499999998,46.287093079331385L174.9825,45.45314116254025L175.676875,49.88074089869605L176.37125,51.05472627749887L177.06562499999998,47.852150341694625L177.76,56.05637534905975L178.454375,51.9083804157347L179.14875,48.65619386833731L179.843125,46.40809849263326L180.5375,43.09157845593154L181.231875,44.17635057697689L181.92625,46.45036753612757L182.620625,47.92676959394217L183.315,45.269226276628956L184.009375,46.33469250425861L184.70375,42.78388969078759L185.398125,43.81042857155262L186.0925,45.22133862486518L186.786875,44.42556593126676L187.48125000000002,47.39083989445342L188.175625,44.88133850088107L188.87,42.11739791864386L189.564375,41.47190435787576L190.25875000000002,41.749891424539925L190.953125,45.656517496325506L191.64749999999998,43.10836514867424L192.341875,42.90070939682175L193.03625,41.51018576992897L193.730625,38.41645692094178L194.42499999999998,36.761696662330706L195.119375,40.217483237876934L195.81375,41.05399763315586L196.508125,37.656286214170876L197.2025,35.65988424681311L197.896875,33.144919653312485L198.59125,34.81654392455587L199.285625,34.93056432470422L199.98,37.16557583847489L200.674375,38.293879041903296L201.36875,36.25721121420449L202.063125,36.52136316651098L202.7575,36.53261846753355L203.451875,35.107696690871705L204.14625,35.082657717892175L204.84062500000002,34.390472163694284L205.535,33.79827331896854L206.229375,34.307776399828384L206.92375,32.88716751836384L207.61812500000002,33.74069665969995L208.3125,34.03504452169889L209.00687499999998,34.70279169715019L209.70125,34.549889282206124L210.395625,35.92479974974361L211.09,35.46461266844969L211.78437499999998,34.794213310298346L212.47875,33.402143678317685L213.173125,33.226684308797246L213.8675,31.904077754467806L214.561875,31.95092596176272L215.25625,31.13191650845411L215.950625,30.439220705853728L216.645,30.360914015309135L217.339375,30.038184609136636L218.03375,29.106673888040604L218.728125,30.465976531310673L219.4225,28.991374096276644L220.116875,30.47577614843982L220.81125,30.386761160255276L221.505625,30.972962457871915L222.20000000000002,31.816672372184115L222.894375,29.926669530488198L223.58875,30.217537362824174L224.283125,29.17271678414957L224.97750000000002,29.16841354827295L225.671875,29.11290649688371L226.36624999999998,28.726254487729847L227.060625,28.359207740245324L227.755,28.444281358014393L228.449375,28.839292966419947L229.14374999999998,28.327093388494546L229.838125,28.40597359291118L230.5325,28.06004838914515L231.226875,28.28227231961992L231.92125,28.382865131273917L232.615625,28.296438896879607L233.31,27.96152880443637L234.004375,27.898808304390343L234.69875,27.861565103483827L235.393125,27.764725774736775L236.0875,27.87095933569168L236.781875,27.981090005711906L237.47625,28.19237867383731L238.170625,28.470660206011388L238.865,28.337526891429093L239.55937500000002,28.186533316253986L240.25375,28.241155066656688L240.948125,28.044931840042864L241.6425,27.913163632834312L242.33687500000002,27.9119797531869" style="fill: none;" fill="none"></path></g></g></g></g><g opacity="0.2"><g><g><g><path stroke="rgb(0, 119, 187)" stroke-width="2px" d="M34.71875,160L35.413125,160L36.1075,160L36.801875,160L37.49625,160L38.190625000000004,160L38.885000000000005,160L39.579375,160L40.27375,160L40.968125,160L41.6625,160L42.356875,159.830687828362L43.05125,159.65291004627943L43.745625,159.830687828362L44.44,158.54783058166504L45.134375,157.85765886306763L45.82875,160L46.523125,159.30127248167992L47.2175,160L47.911874999999995,157.68888890743256L48.606249999999996,159.8241758160293L49.300625,157.8666666150093L49.995,159.11697193980217L50.689375,159.82222221791744L51.38375,158.11413377523422L52.078125,159.830687828362L52.7725,160L53.466875,154.16639745235443L54.16125,158.6708301305771L54.855625,147.60672330856323L55.550000000000004,157.69735455513L56.244375000000005,152.19689011573792L56.93875,156.22159391641617L57.633125,158.86492773890495L58.3275,144.68031644821167L59.021875,148.0540633201599L59.71625,157.1698820590973L60.410625,142.28058576583862L61.105,157.05762445926666L61.799375,152.32938766479492L62.49375,150.30981421470642L63.188125,149.6074891090393L63.8825,150.6197738647461L64.576875,144.06121134757996L65.27125,131.03698015213013L65.965625,122.75662899017335L66.66,150.98896980285645L67.354375,126.1045789718628L68.04875,150.93251168727875L68.743125,135.00922441482544L69.4375,147.3961365222931L70.131875,117.575421333313L70.82625,126.31597757339478L71.520625,139.92871761322021L72.215,122.38994598388673L72.909375,135.9776782989502L73.60375,135.94341039657593L74.298125,122.96455144882202L74.9925,124.77517604827881L75.686875,129.1490602493286L76.38125000000001,122.97760725021362L77.075625,129.97918128967285L77.77000000000001,102.63015270233156L78.46437499999999,115.22555828094484L79.15875,116.72222614288331L79.85312499999999,122.87042140960693L80.5475,120.73869943618774L81.241875,136.722571849823L81.93625,134.7344732284546L82.630625,101.38754844665527L83.325,130.6116271018982L84.019375,117.80516147613527L84.71375,122.6505994796753L85.408125,101.64968967437746L86.1025,106.45213127136232L86.796875,109.10593509674074L87.49125,98.10563564300539L88.185625,94.88220214843751L88.88,111.5885591506958L89.574375,117.92390823364258L90.26875,124.55392122268677L90.963125,105.24367809295656L91.6575,87.09977149963379L92.351875,147.5939679145813L93.04625,127.61980056762695L93.74062500000001,116.63840770721437L94.435,130.73880195617676L95.12937500000001,88.85447502136232L95.82374999999999,125.77059030532837L96.518125,117.24088191986085L97.21249999999999,115.33823490142824L97.906875,108.64295482635498L98.60125,103.26167583465578L99.295625,95.81391334533693L99.99,95.22376537323L100.684375,127.03731536865234L101.37875,84.49534893035889L102.073125,99.47852134704591L102.7675,110.79351902008057L103.461875,82.30503082275392L104.15625,98.29917430877687L104.850625,81.53716087341309L105.545,111.75680160522461L106.239375,118.50693225860596L106.93375,95.42126655578615L107.628125,86.30241394042969L108.3225,83.13934803009035L109.016875,116.78339958190918L109.71125,94.8368549346924L110.405625,132.6518702507019L111.10000000000001,81.53200149536133L111.794375,108.69173049926759L112.48875000000001,105.64359188079835L113.18312499999999,115.66683769226076L113.8775,113.04638385772706L114.57187499999999,88.22840690612794L115.26625,58.80682945251466L115.960625,101.81592941284181L116.655,78.50610733032227L117.349375,82.88785934448244L118.04375,111.58079147338869L118.738125,107.5425910949707L119.4325,103.58492374420166L120.126875,97.98346519470216L120.82125,120.86271047592163L121.515625,89.65067386627199L122.21,100.0736427307129L122.904375,90.17937183380128L123.59875,70.81661224365236L124.293125,102.03687667846681L124.9875,73.24085235595705L125.681875,64.1483783721924L126.37625,84.83919143676758L127.070625,84.78468894958498L127.765,106.65132045745851L128.459375,91.0601854324341L129.15375,62.00551033020021L129.848125,109.91291522979738L130.5425,83.3285903930664L131.236875,86.4108180999756L131.93125,72.1409797668457L132.62562499999999,92.33352184295654L133.32,68.024320602417L134.014375,76.04305267333986L134.70875,56.74292564392091L135.403125,54.31688308715823L136.0975,68.67347717285156L136.791875,65.96213340759279L137.48625,71.35216712951663L138.180625,87.4025869369507L138.875,60.202112197876005L139.56937499999998,102.75884151458742L140.26375,77.06855773925781L140.958125,74.0369987487793L141.6525,61.84055328369142L142.34687499999998,93.47612857818605L143.04125,74.72555160522462L143.735625,70.18640518188477L144.43,81.16189002990724L145.124375,82.47118949890137L145.81875,77.54717826843262L146.513125,76.52369499206544L147.2075,63.76844406127931L147.901875,71.33027076721193L148.59625,62.165317535400405L149.290625,101.87062740325929L149.985,73.68835449218751L150.679375,50.333232879638686L151.37375,68.57300758361818L152.068125,68.94705772399904L152.76250000000002,62.377967834472656L153.456875,52.362108230590835L154.15125,57.95061111450195L154.845625,51.195077896118164L155.54000000000002,72.54462242126466L156.234375,70.90512275695801L156.92874999999998,58.12084197998048L157.623125,74.54872131347656L158.3175,72.63568878173828L159.011875,57.36125946044922L159.70624999999998,60.39155006408693L160.400625,64.44774627685547L161.095,54.43303108215335L161.789375,49.22069549560547L162.48375,40.5612659454346L163.178125,66.77078247070314L163.8725,63.228664398193374L164.566875,59.389486312866225L165.26125,50.02483367919925L165.955625,48.00525665283203L166.65,44.187679290771484L167.344375,59.13698196411134L168.03875,56.556425094604506L168.733125,52.10096359252931L169.4275,43.025407791137695L170.12187500000002,65.76725959777833L170.81625,50.23295402526857L171.510625,50.14957427978517L172.205,44.174489974975586L172.89937500000002,42.12906837463379L173.59375,40.4783630371094L174.28812499999998,49.79531288146974L174.9825,44.202213287353544L175.676875,56.5221405029297L176.37125,52.81570434570315L177.06562499999998,43.04828643798831L177.76,68.36271286010745L178.454375,45.68638801574707L179.14875,43.77791404724124L179.843125,43.03595542907718L180.5375,38.116798400878906L181.231875,45.80350875854495L181.92625,49.861392974853544L182.620625,50.14137268066408L183.315,41.28291130065918L184.009375,47.932891845703125L184.70375,37.457685470581055L185.398125,45.350236892700195L186.0925,47.337703704833984L186.786875,43.23190689086914L187.48125000000002,51.83875083923343L188.175625,41.11708641052249L188.87,37.971487045288086L189.564375,40.50366401672363L190.25875000000002,42.16687202453613L190.953125,51.51645660400392L191.64749999999998,39.286136627197266L192.341875,42.589225769043L193.03625,39.424400329589844L193.730625,33.77586364746094L194.42499999999998,34.27955627441409L195.119375,45.40116310119632L195.81375,42.30876922607422L196.508125,32.55971908569339L197.2025,32.66528129577637L197.896875,29.372472763061552L198.59125,37.32398033142093L199.285625,35.10159492492676L199.98,40.51809310913086L200.674375,39.9863338470459L201.36875,33.20220947265628L202.063125,36.9175910949707L202.7575,36.54950141906738L203.451875,32.970314025878935L204.14625,35.04509925842285L204.84062500000002,33.35219383239746L205.535,32.90997505187991L206.229375,35.072031021118164L206.92375,30.756254196166992L207.61812500000002,35.0209903717041L208.3125,34.476566314697294L209.00687499999998,35.70441246032718L209.70125,34.32053565979007L210.395625,37.98716545104983L211.09,34.77433204650882L211.78437499999998,33.78861427307129L212.47875,31.314039230346708L213.173125,32.96349525451663L213.8675,29.920167922973633L214.561875,32.02119827270511L215.25625,29.90340232849121L215.950625,29.400177001953125L216.645,30.243453979492216L217.339375,29.554090499877958L218.03375,27.709407806396513L218.728125,32.50493049621585L219.4225,26.779470443725614L220.116875,32.70237922668457L220.81125,30.253238677978516L221.505625,31.852264404296903L222.20000000000002,33.082237243652344L222.894375,27.091665267944364L223.58875,30.653839111328153L224.283125,27.605485916137724L224.97750000000002,29.161958694458036L225.671875,29.029645919799833L226.36624999999998,28.146276473999052L227.060625,27.808637619018555L227.755,28.571891784667997L228.449375,29.43181037902835L229.14374999999998,27.558794021606445L229.838125,28.524293899536133L230.5325,27.541160583496122L231.226875,28.61560821533206L231.92125,28.533754348754883L232.615625,28.166799545288086L233.31,27.459163665771484L234.004375,27.804727554321317L234.69875,27.805700302124023L235.393125,27.61946678161624L236.0875,28.030309677124052L236.781875,28.146286010742188L237.47625,28.50931167602539L238.170625,28.88808250427246L238.865,28.137826919555664L239.55937500000002,27.96004295349124L240.25375,28.323087692260742L240.948125,27.7505970001221L241.6425,27.715511322021513L242.33687500000002,27.91020393371582" style="fill: none;" fill="none"></path></g></g></g></g></g></g><g transform="translate(52, 176)" clip-path="url(#clip_1)"><clipPath id="clip_1"><rect width="277" height="24"></rect></clipPath><g><g><line x1="0" y1="0" x2="0" y2="5" style="visibility: inherit;" fill="rgb(0, 0, 0)" stroke="rgb(204, 204, 204)" stroke-width="1px"></line><line x1="34.71875" y1="0" x2="34.71875" y2="5" style="visibility: inherit;" fill="rgb(0, 0, 0)" stroke="rgb(204, 204, 204)" stroke-width="1px"></line><line x1="69.4375" y1="0" x2="69.4375" y2="5" style="visibility: inherit;" fill="rgb(0, 0, 0)" stroke="rgb(204, 204, 204)" stroke-width="1px"></line><line x1="104.15625" y1="0" x2="104.15625" y2="5" style="visibility: inherit;" fill="rgb(0, 0, 0)" stroke="rgb(204, 204, 204)" stroke-width="1px"></line><line x1="138.875" y1="0" x2="138.875" y2="5" style="visibility: inherit;" fill="rgb(0, 0, 0)" stroke="rgb(204, 204, 204)" stroke-width="1px"></line><line x1="173.59375" y1="0" x2="173.59375" y2="5" style="visibility: inherit;" fill="rgb(0, 0, 0)" stroke="rgb(204, 204, 204)" stroke-width="1px"></line><line x1="208.3125" y1="0" x2="208.3125" y2="5" style="visibility: inherit;" fill="rgb(0, 0, 0)" stroke="rgb(204, 204, 204)" stroke-width="1px"></line><line x1="243.03125" y1="0" x2="243.03125" y2="5" style="visibility: inherit;" fill="rgb(0, 0, 0)" stroke="rgb(204, 204, 204)" stroke-width="1px"></line><line x1="277.75" y1="0" x2="277.75" y2="5" style="visibility: inherit;" fill="rgb(0, 0, 0)" stroke="rgb(204, 204, 204)" stroke-width="1px"></line></g><g transform="translate(0, 8)"><text x="0" y="0" dx="0em" dy="0.95em" style="text-anchor: middle; visibility: hidden; font-family: &quot;Helvetica Neue&quot;, sans-serif; font-size: 12px; font-weight: 200;" fill="rgb(50, 49, 63)" stroke="none" stroke-width="1px">-50</text><text x="34.71875" y="0" dx="0em" dy="0.95em" style="text-anchor: middle; visibility: inherit; font-family: &quot;Helvetica Neue&quot;, sans-serif; font-size: 12px; font-weight: 200;" fill="rgb(50, 49, 63)" stroke="none" stroke-width="1px">0</text><text x="69.4375" y="0" dx="0em" dy="0.95em" style="text-anchor: middle; visibility: inherit; font-family: &quot;Helvetica Neue&quot;, sans-serif; font-size: 12px; font-weight: 200;" fill="rgb(50, 49, 63)" stroke="none" stroke-width="1px">50</text><text x="104.15625" y="0" dx="0em" dy="0.95em" style="text-anchor: middle; visibility: inherit; font-family: &quot;Helvetica Neue&quot;, sans-serif; font-size: 12px; font-weight: 200;" fill="rgb(50, 49, 63)" stroke="none" stroke-width="1px">100</text><text x="138.875" y="0" dx="0em" dy="0.95em" style="text-anchor: middle; visibility: inherit; font-family: &quot;Helvetica Neue&quot;, sans-serif; font-size: 12px; font-weight: 200;" fill="rgb(50, 49, 63)" stroke="none" stroke-width="1px">150</text><text x="173.59375" y="0" dx="0em" dy="0.95em" style="text-anchor: middle; visibility: inherit; font-family: &quot;Helvetica Neue&quot;, sans-serif; font-size: 12px; font-weight: 200;" fill="rgb(50, 49, 63)" stroke="none" stroke-width="1px">200</text><text x="208.3125" y="0" dx="0em" dy="0.95em" style="text-anchor: middle; visibility: inherit; font-family: &quot;Helvetica Neue&quot;, sans-serif; font-size: 12px; font-weight: 200;" fill="rgb(50, 49, 63)" stroke="none" stroke-width="1px">250</text><text x="243.03125" y="0" dx="0em" dy="0.95em" style="text-anchor: middle; visibility: inherit; font-family: &quot;Helvetica Neue&quot;, sans-serif; font-size: 12px; font-weight: 200;" fill="rgb(50, 49, 63)" stroke="none" stroke-width="1px">300</text><text x="277.75" y="0" dx="0em" dy="0.95em" style="text-anchor: middle; visibility: hidden; font-family: &quot;Helvetica Neue&quot;, sans-serif; font-size: 12px; font-weight: 200;" fill="rgb(50, 49, 63)" stroke="none" stroke-width="1px">350</text></g><line x1="0" y1="0" x2="277.75" y2="0" fill="rgb(0, 0, 0)" stroke="rgb(204, 204, 204)" stroke-width="1px"></line></g></g></g></g></svg>