<svg viewBox="0 0 330 200" xmlns="http://www.w3.org/2000/svg"><g><g><g><g><g><line x1="31.125" y1="176" x2="26.125" y2="176" style="visibility: inherit;" fill="rgb(0, 0, 0)" stroke="rgb(204, 204, 204)" stroke-width="1px"></line><line x1="31.125" y1="156.44444444444446" x2="26.125" y2="156.44444444444446" style="visibility: inherit;" fill="rgb(0, 0, 0)" stroke="rgb(204, 204, 204)" stroke-width="1px"></line><line x1="31.125" y1="136.88888888888889" x2="26.125" y2="136.88888888888889" style="visibility: inherit;" fill="rgb(0, 0, 0)" stroke="rgb(204, 204, 204)" stroke-width="1px"></line><line x1="31.125" y1="117.33333333333334" x2="26.125" y2="117.33333333333334" style="visibility: inherit;" fill="rgb(0, 0, 0)" stroke="rgb(204, 204, 204)" stroke-width="1px"></line><line x1="31.125" y1="97.77777777777779" x2="26.125" y2="97.77777777777779" style="visibility: inherit;" fill="rgb(0, 0, 0)" stroke="rgb(204, 204, 204)" stroke-width="1px"></line><line x1="31.125" y1="78.22222222222221" x2="26.125" y2="78.22222222222221" style="visibility: inherit;" fill="rgb(0, 0, 0)" stroke="rgb(204, 204, 204)" stroke-width="1px"></line><line x1="31.125" y1="58.66666666666667" x2="26.125" y2="58.66666666666667" style="visibility: inherit;" fill="rgb(0, 0, 0)" stroke="rgb(204, 204, 204)" stroke-width="1px"></line><line x1="31.125" y1="39.111111111111114" x2="26.125" y2="39.111111111111114" style="visibility: inherit;" fill="rgb(0, 0, 0)" stroke="rgb(204, 204, 204)" stroke-width="1px"></line><line x1="31.125" y1="19.55555555555557" x2="26.125" y2="19.55555555555557" style="visibility: inherit;" fill="rgb(0, 0, 0)" stroke="rgb(204, 204, 204)" stroke-width="1px"></line><line x1="31.125" y1="0" x2="26.125" y2="0" style="visibility: inherit;" fill="rgb(0, 0, 0)" stroke="rgb(204, 204, 204)" stroke-width="1px"></line></g><g transform="translate(21.125, 0)"><text x="0" y="176" dx="0em" dy="0.3em" style="text-anchor: end; visibility: hidden; font-family: &quot;Helvetica Neue&quot;, sans-serif; font-size: 12px; font-weight: 200;" fill="rgb(50, 49, 63)" stroke="none" stroke-width="1px">-5</text><text x="0" y="156.44444444444446" dx="0em" dy="0.3em" style="text-anchor: end; visibility: inherit; font-family: &quot;Helvetica Neue&quot;, sans-serif; font-size: 12px; font-weight: 200;" fill="rgb(50, 49, 63)" stroke="none" stroke-width="1px">0</text><text x="0" y="136.88888888888889" dx="0em" dy="0.3em" style="text-anchor: end; visibility: hidden; font-family: &quot;Helvetica Neue&quot;, sans-serif; font-size: 12px; font-weight: 200;" fill="rgb(50, 49, 63)" stroke="none" stroke-width="1px">5</text><text x="0" y="117.33333333333334" dx="0em" dy="0.3em" style="text-anchor: end; visibility: inherit; font-family: &quot;Helvetica Neue&quot;, sans-serif; font-size: 12px; font-weight: 200;" fill="rgb(50, 49, 63)" stroke="none" stroke-width="1px">10</text><text x="0" y="97.77777777777779" dx="0em" dy="0.3em" style="text-anchor: end; visibility: hidden; font-family: &quot;Helvetica Neue&quot;, sans-serif; font-size: 12px; font-weight: 200;" fill="rgb(50, 49, 63)" stroke="none" stroke-width="1px">15</text><text x="0" y="78.22222222222221" dx="0em" dy="0.3em" style="text-anchor: end; visibility: inherit; font-family: &quot;Helvetica Neue&quot;, sans-serif; font-size: 12px; font-weight: 200;" fill="rgb(50, 49, 63)" stroke="none" stroke-width="1px">20</text><text x="0" y="58.66666666666667" dx="0em" dy="0.3em" style="text-anchor: end; visibility: hidden; font-family: &quot;Helvetica Neue&quot;, sans-serif; font-size: 12px; font-weight: 200;" fill="rgb(50, 49, 63)" stroke="none" stroke-width="1px">25</text><text x="0" y="39.111111111111114" dx="0em" dy="0.3em" style="text-anchor: end; visibility: inherit; font-family: &quot;Helvetica Neue&quot;, sans-serif; font-size: 12px; font-weight: 200;" fill="rgb(50, 49, 63)" stroke="none" stroke-width="1px">30</text><text x="0" y="19.55555555555557" dx="0em" dy="0.3em" style="text-anchor: end; visibility: hidden; font-family: &quot;Helvetica Neue&quot;, sans-serif; font-size: 12px; font-weight: 200;" fill="rgb(50, 49, 63)" stroke="none" stroke-width="1px">35</text><text x="0" y="0" dx="0em" dy="0.3em" style="text-anchor: end; visibility: hidden; font-family: &quot;Helvetica Neue&quot;, sans-serif; font-size: 12px; font-weight: 200;" fill="rgb(50, 49, 63)" stroke="none" stroke-width="1px">40</text></g><line x1="31.125" y1="0" x2="31.125" y2="176" fill="rgb(0, 0, 0)" stroke="rgb(204, 204, 204)" stroke-width="1px"></line></g></g><g transform="translate(31, 0)" clip-path="url(#clip_0)"><clipPath id="clip_0"><rect width="298" height="176"></rect></clipPath><g><g><g><line x1="0" y1="0" x2="0" y2="176" fill="rgb(0, 0, 0)" stroke="rgb(60, 60, 60)" stroke-width="1px" opacity="0.25"></line><line x1="37.359375" y1="0" x2="37.359375" y2="176" fill="rgb(0, 0, 0)" stroke="rgb(60, 60, 60)" stroke-width="1px" opacity="0.25"></line><line x1="74.71875" y1="0" x2="74.71875" y2="176" fill="rgb(0, 0, 0)" stroke="rgb(60, 60, 60)" stroke-width="1px" opacity="0.25"></line><line x1="112.078125" y1="0" x2="112.078125" y2="176" fill="rgb(0, 0, 0)" stroke="rgb(60, 60, 60)" stroke-width="1px" opacity="0.25"></line><line x1="149.4375" y1="0" x2="149.4375" y2="176" fill="rgb(0, 0, 0)" stroke="rgb(60, 60, 60)" stroke-width="1px" opacity="0.25"></line><line x1="186.796875" y1="0" x2="186.796875" y2="176" fill="rgb(0, 0, 0)" stroke="rgb(60, 60, 60)" stroke-width="1px" opacity="0.25"></line><line x1="224.15625" y1="0" x2="224.15625" y2="176" fill="rgb(0, 0, 0)" stroke="rgb(60, 60, 60)" stroke-width="1px" opacity="0.25"></line><line x1="261.515625" y1="0" x2="261.515625" y2="176" fill="rgb(0, 0, 0)" stroke="rgb(60, 60, 60)" stroke-width="1px" opacity="0.25"></line><line x1="298.875" y1="0" x2="298.875" y2="176" fill="rgb(0, 0, 0)" stroke="rgb(60, 60, 60)" stroke-width="1px" opacity="0.25"></line></g><g><line x1="0" y1="176" x2="298.875" y2="176" fill="rgb(0, 0, 0)" stroke="rgb(60, 60, 60)" stroke-width="1px" opacity="0.25"></line><line x1="0" y1="156.44444444444446" x2="298.875" y2="156.44444444444446" fill="rgb(0, 0, 0)" stroke="rgb(60, 60, 60)" stroke-width="1px" opacity="0.25"></line><line x1="0" y1="136.88888888888889" x2="298.875" y2="136.88888888888889" fill="rgb(0, 0, 0)" stroke="rgb(60, 60, 60)" stroke-width="1px" opacity="0.25"></line><line x1="0" y1="117.33333333333334" x2="298.875" y2="117.33333333333334" fill="rgb(0, 0, 0)" stroke="rgb(60, 60, 60)" stroke-width="1px" opacity="0.25"></line><line x1="0" y1="97.77777777777779" x2="298.875" y2="97.77777777777779" fill="rgb(0, 0, 0)" stroke="rgb(60, 60, 60)" stroke-width="1px" opacity="0.25"></line><line x1="0" y1="78.22222222222221" x2="298.875" y2="78.22222222222221" fill="rgb(0, 0, 0)" stroke="rgb(60, 60, 60)" stroke-width="1px" opacity="0.25"></line><line x1="0" y1="58.66666666666667" x2="298.875" y2="58.66666666666667" fill="rgb(0, 0, 0)" stroke="rgb(60, 60, 60)" stroke-width="1px" opacity="0.25"></line><line x1="0" y1="39.111111111111114" x2="298.875" y2="39.111111111111114" fill="rgb(0, 0, 0)" stroke="rgb(60, 60, 60)" stroke-width="1px" opacity="0.25"></line><line x1="0" y1="19.55555555555557" x2="298.875" y2="19.55555555555557" fill="rgb(0, 0, 0)" stroke="rgb(60, 60, 60)" stroke-width="1px" opacity="0.25"></line><line x1="0" y1="0" x2="298.875" y2="0" fill="rgb(0, 0, 0)" stroke="rgb(60, 60, 60)" stroke-width="1px" opacity="0.25"></line></g></g></g><g><g><line x1="0" y1="156.44444444444446" x2="298.875" y2="156.44444444444446" fill="rgb(0, 0, 0)" stroke="rgb(153, 153, 153)" stroke-width="1.5px"></line></g></g><g><g><line x1="37.359375" y1="0" x2="37.359375" y2="176" fill="rgb(0, 0, 0)" stroke="rgb(153, 153, 153)" stroke-width="1.5px"></line></g></g><g><g><g><g><g><path stroke="rgb(0, 119, 187)" stroke-width="2px" d="M45.5784375,-1.9381877428995722L46.325625,3.316107489079968L47.0728125,7.371826013298119L47.82,14.334975261964843L48.5671875,18.63780124522171L49.314375000000005,19.458081637472333L50.0615625,24.69582824768065L50.80875,28.75829598558198L51.5559375,31.023098319287925L52.303124999999994,35.21098265351944L53.0503125,38.83632697965024L53.7975,40.606316459334835L54.5446875,43.22647183299688L55.291875,46.0119174945948L56.0390625,47.79348138951201L56.78625,47.446840703316155L57.5334375,47.423165713874624L58.280625,49.422444273044945L59.0278125,50.335743512695416L59.775000000000006,52.406690794209055L60.5221875,54.12414129506915L61.269375,55.26866072145148L62.0165625,56.994207550018174L62.763749999999995,57.50911242948749L63.5109375,59.28038636702121L64.25812499999999,60.24394959961336L65.0053125,59.75747707132969L65.7525,61.0483116580001L66.49968750000001,61.63110315226312L67.246875,63.053877821318466L67.9940625,64.0014412765804L68.74125000000001,64.08212588793334L69.4884375,63.55383635081084L70.235625,64.65919688438612L70.9828125,65.32225505558623L71.73,65.5356167594882L72.4771875,65.46904502313934L73.224375,66.74550931641816L73.9715625,67.85890959376614L74.71875,67.83655235348179L75.4659375,68.7475509867445L76.213125,69.5080927665272L76.9603125,69.98926511087167L77.7075,70.10000926183558L78.4546875,71.03589856925447L79.201875,72.30179142019881L79.94906250000001,71.20821325272678L80.69625,71.79122840736528L81.4434375,70.80909278443649L82.19062500000001,70.86475146059243L82.9378125,71.15550859119921L83.685,71.42851647199382L84.4321875,72.24821828163381L85.179375,73.32439944771292L85.92656249999999,73.80436216211733L86.67375,74.63226600603775L87.4209375,75.6367378045775L88.16812499999999,75.78402076434374L88.9153125,75.8541139017486L89.6625,76.25515280285472L90.4096875,76.30644807277186L91.156875,75.8054272746527L91.9040625,75.88844516687497L92.65125,76.61236397512498L93.3984375,76.75154680304374L94.145625,76.69264194901373L94.8928125,77.41239425143948L95.64,76.7718679744748L96.3871875,76.41988022478907L97.134375,75.34031300900538L97.8815625,77.4667396174692L98.62875000000001,77.49925601006484L99.3759375,78.21655447409448L100.123125,79.79472435112335L100.87031250000001,81.154090470049L101.6175,81.36056246345301L102.3646875,81.24762518423499L103.111875,81.28471253458613L103.8590625,81.3058937099878L104.60624999999999,80.12556611965589L105.3534375,79.03060008846019L106.100625,79.95934936514207L106.84781249999999,80.24981073670678L107.595,79.14594628360393L108.3421875,79.85339676321793L109.089375,80.34233211175018L109.8365625,81.70913923015775L110.58375,81.79396850988284L111.3309375,80.77726869273528L112.078125,80.54180202510298L112.8253125,81.10108273415901L113.5725,82.1134984903218L114.3196875,83.05488973004378L115.066875,84.14632142483183L115.8140625,82.5317053440484L116.56125,82.23948463221028L117.30843750000001,82.96500995250325L118.055625,82.57616064815126L118.8028125,82.9261369270852L119.55000000000001,82.63081914626848L120.2971875,83.61223009453192L121.044375,84.13697265958373L121.7915625,84.68571142778148L122.53875,84.54774413097445L123.28593749999999,84.77688405453954L124.033125,84.68825092968552L124.7803125,85.26873777569327L125.52749999999999,85.135770931475L126.2746875,85.0455082403086L127.021875,83.59475882873379L127.7690625,83.76107052076456L128.51624999999999,83.47740321740665L129.2634375,84.22237454763149L130.010625,83.8571405488914L130.7578125,83.17032409712998L131.505,84.85114058458007L132.2521875,85.71166281211957L132.99937500000001,86.06209290211548L133.7465625,86.60278661149499L134.49375,86.0317848141192L135.2409375,85.34725393968681L135.988125,85.16959015678083L136.7353125,85.9579921583046L137.48250000000002,85.03960378022585L138.2296875,85.18399908454177L138.976875,85.9510374715584L139.7240625,85.78445087920238L140.47125,86.88505475061172L141.2184375,87.22536851659966L141.965625,88.16533992506398L142.71281249999998,88.57251070417031L143.46,89.43692384871747L144.2071875,89.35780182442146L144.954375,88.4073462964758L145.7015625,88.1315044033195L146.44875,88.83429923487364L147.19593749999999,88.48497651358043L147.943125,88.72155367073506L148.6903125,89.08082336997576L149.4375,89.53155256148197L150.1846875,88.71917459244474L150.931875,88.50086347942519L151.6790625,89.65822018183914L152.42625,89.36311461778403L153.17343749999998,89.77302230799681L153.920625,90.2964137537217L154.6678125,88.53772862332677L155.415,88.2614037213051L156.1621875,88.82370529701917L156.909375,89.55117684574621L157.65656249999998,90.46884711222204L158.40375,91.58301725170824L159.1509375,91.63443139052147L159.89812500000002,92.11917907085802L160.6453125,91.5363387142162L161.3925,91.4747936799186L162.1396875,91.85869483859354L162.886875,91.3438141796318L163.6340625,91.73575980769229L164.38125000000002,91.96307643583064L165.1284375,92.7396426008647L165.875625,92.63945559090077L166.6228125,92.49655095870712L167.37,92.63884094848817L168.1171875,92.71987629218317L168.864375,92.20196646541407L169.6115625,91.82451456891859L170.35875,92.3870332313685L171.1059375,92.52755658161624L171.85312499999998,93.55981940361386L172.6003125,94.0855052218124L173.3475,93.7720407090423L174.0946875,93.84730374400178L174.841875,94.25035395321531L175.5890625,93.45070363712014L176.33624999999998,94.01077360913841L177.0834375,93.20882256392055L177.830625,93.15996530484537L178.57781250000002,93.06756745330654L179.325,92.89577294811238L180.0721875,93.45848509048201L180.819375,93.56872115411561L181.5665625,93.35381136000409L182.31375,92.87151614542954L183.06093750000002,93.85907478057369L183.808125,94.51581840350046L184.5553125,93.96345697091972L185.3025,93.87551477499976L186.0496875,93.84503352862832L186.796875,94.61572861327073L187.5440625,94.8675868532923L188.29125,95.71077617881566L189.0384375,95.43736794253246L189.785625,94.36979164225558L190.53281249999998,94.2794353423412L191.28,94.80189053483181L192.0271875,95.10274008804318L192.774375,96.45287262270438L193.5215625,95.97432231494207L194.26875,96.12041709230725L195.01593749999998,97.49026891857879L195.763125,96.66862234290075L196.5103125,96.23533708846614L197.25750000000002,97.37779581319253L198.0046875,97.60623274507698L198.751875,97.572188269008L199.4990625,98.19417274330584L200.24625,98.39130941855294L200.9934375,98.51682300464739L201.74062500000002,98.7380264742294L202.4878125,98.66265000454634L203.235,99.34896261557502L203.9821875,98.60348387902383L204.729375,98.58209602402887L205.4765625,98.85437737895727L206.22375,98.87321751895422L206.9709375,98.05026840199753L207.718125,97.64041033590337L208.4653125,99.03175108435454L209.21249999999998,98.74887866710579L209.9596875,98.74561436389193L210.706875,98.9469770438994L211.4540625,99.54525952278061L212.20125,99.01004186275692L212.9484375,99.19390746899963L213.69562499999998,99.42657438048832L214.4428125,99.80153436353605L215.19,100.02762037940634L215.93718750000002,99.62040808376359L216.684375,99.41825423610885L217.4315625,100.17051512304552L218.17875,101.29805804301134L218.9259375,101.01419940914015L219.673125,100.99997119713339L220.42031250000002,101.0487050490092L221.1675,100.97528436295588L221.9146875,100.7465498766711L222.661875,100.9658349281728L223.4090625,100.53825719605298L224.15625,99.89387730482795L224.9034375,99.85140817000615L225.650625,100.2649151331235L226.3978125,100.93647932618485L227.145,100.85328462262062L227.89218749999998,101.31667427834668L228.639375,101.2313670073292L229.3865625,101.45695062974474L230.13375,101.51886601586769L230.8809375,101.65225331177754L231.628125,102.10577066111168L232.37531249999998,102.01745382461839L233.1225,101.73228029173285L233.8696875,101.4337529406647L234.61687500000002,101.0517613672634L235.3640625,101.5574961649761L236.11125,102.06904007094748L236.8584375,102.04178143731676L237.605625,102.3328378239786L238.3528125,102.73423475818923L239.10000000000002,102.96234790243957L239.8471875,102.38705351685438L240.594375,102.41082626701368L241.3415625,102.06569660656237L242.08875,102.46953894918047L242.8359375,102.76122857784162L243.583125,103.09709169314594L244.3303125,103.02621006688584L245.0775,102.44602863887282L245.8246875,102.4896888521605L246.57187499999998,102.63161414679976L247.3190625,102.33787148287152L248.06625,102.78636465404583L248.8134375,103.54666796777472L249.560625,102.73850791499643L250.3078125,103.11643184318187L251.05499999999998,103.04883235894732L251.8021875,102.80994204774687L252.549375,102.91623093502831L253.29656250000002,102.55511792842151L254.04375,102.69764201898866L254.7909375,102.93111817037756L255.538125,103.307523034388L256.28531250000003,103.10477803504253L257.03249999999997,103.51841125461927L257.7796875,103.62142693397816L258.526875,103.01167506229662L259.2740625,102.83763912483458L260.02125,103.43280252329484L260.7684375,103.42456771731891" style="fill: none;" fill="none"></path></g></g></g></g><g opacity="0.2"><g><g><g><path stroke="rgb(0, 119, 187)" stroke-width="2px" d="M44.084062499999995,-4.805801052517381L44.83125,5.008694118923614L45.5784375,4.38360324435763L46.325625,11.180394151475696L47.0728125,13.447458224826391L47.82,24.771514214409734L48.5671875,25.089005533854163L49.314375000000005,20.688155110677087L50.0615625,32.551118299696185L50.80875,34.85137871636286L51.5559375,34.42009480794269L52.303124999999994,41.492579481336804L53.0503125,44.27422417534723L53.7975,43.261265733506946L54.5446875,47.15667385525174L55.291875,50.19006618923612L56.0390625,50.465819634331595L56.78625,46.92688056098089L57.5334375,47.38765326605903L58.280625,52.42136027018229L59.0278125,51.70569186740451L59.775000000000006,55.513111029730894L60.5221875,56.700316704644095L61.269375,56.985439724392364L62.0165625,59.58252766927083L62.763749999999995,58.281469726562506L63.5109375,61.937297227647576L64.25812499999999,61.689294433593744L65.0053125,59.02776828342013L65.7525,62.984563530815976L66.49968750000001,62.505290391710076L67.246875,65.18803982204861L67.9940625,65.42278645833333L68.74125000000001,64.2031528049045L69.4884375,62.761402045355894L70.235625,66.31723768446182L70.9828125,66.31684231228299L71.73,65.85565931532119L72.4771875,65.36918741861979L73.224375,68.6602057562934L73.9715625,69.52901000976561L74.71875,67.80301649305557L75.4659375,70.11404893663195L76.213125,70.64890543619792L76.9603125,70.71102362738715L77.7075,70.26612548828126L78.4546875,72.43973253038195L79.201875,74.20063069661458L79.94906250000001,69.5678460015191L80.69625,72.66575113932292L81.4434375,69.33588935004342L82.19062500000001,70.94823947482638L82.9378125,71.59164428710938L83.685,71.83802829318576L84.4321875,73.47777099609374L85.179375,74.9386711968316L85.92656249999999,74.52430623372396L86.67375,75.87412177191841L87.4209375,77.14344550238717L88.16812499999999,76.00494520399306L88.9153125,75.9592536078559L89.6625,76.85671115451389L90.4096875,76.38339097764757L91.156875,75.05389607747396L91.9040625,76.01297200520834L92.65125,77.6982421875L93.3984375,76.96032104492187L94.145625,76.60428466796876L94.8928125,78.49202270507811L95.64,75.81107855902779L96.3871875,75.89189860026042L97.134375,73.72096218532987L97.8815625,80.65637953016494L98.62875000000001,77.54803059895833L99.3759375,79.29250217013889L100.123125,82.16197916666667L100.87031250000001,83.1931396484375L101.6175,81.67027045355904L102.3646875,81.078219265408L103.111875,81.34034356011286L103.8590625,81.33766547309027L104.60624999999999,78.355074734158L105.3534375,77.38815104166666L106.100625,81.35247328016493L106.84781249999999,80.6855027940538L107.595,77.49014960394966L108.3421875,80.91457248263889L109.089375,81.07573513454861L109.8365625,83.7593499077691L110.58375,81.92121242947049L111.3309375,79.25221896701389L112.078125,80.18860202365451L112.8253125,81.94000379774306L113.5725,83.63212212456598L114.3196875,84.46697658962674L115.066875,85.78346896701389L115.8140625,80.10978122287327L116.56125,81.80115356445313L117.30843750000001,84.05329793294271L118.055625,81.99288669162326L118.8028125,83.45110134548611L119.55000000000001,82.18784247504341L120.2971875,85.08434651692708L121.044375,84.92408650716146L121.7915625,85.50881958007812L122.53875,84.34079318576389L123.28593749999999,85.12059393988714L124.033125,84.55530124240451L124.7803125,86.13946804470487L125.52749999999999,84.93632066514758L126.2746875,84.91011420355902L127.021875,81.41863471137152L127.7690625,84.01053805881077L128.51624999999999,83.0519022623698L129.2634375,85.33983154296874L130.010625,83.30928955078124L130.7578125,82.14009941948784L131.505,87.3723653157552L132.2521875,87.00244615342882L132.99937500000001,86.58773803710938L133.7465625,87.41382717556424L134.49375,85.17528211805555L135.2409375,84.32045762803818L135.988125,84.90309448242186L136.7353125,87.14059516059028L137.48250000000002,83.66202121310764L138.2296875,85.40059204101561L138.976875,87.10159505208334L139.7240625,85.5345709906684L140.47125,88.53596055772569L141.2184375,87.7358391655816L141.965625,89.57529703776041L142.71281249999998,89.18326687282986L143.46,90.73354356553818L144.2071875,89.23911878797743L144.954375,86.98166300455729L145.7015625,87.71774156358507L146.44875,89.88849148220487L147.19593749999999,87.96099243164062L147.943125,89.07641940646701L148.6903125,89.61972791883682L149.4375,90.20764634874132L150.1846875,87.50060763888888L150.931875,88.17339680989583L151.6790625,91.39425523546007L152.42625,88.92045627170138L153.17343749999998,90.38788384331598L153.920625,91.08150092230903L154.6678125,85.89970092773439L155.415,87.84691636827256L156.1621875,89.66715766059028L156.909375,90.64238416883681L157.65656249999998,91.84535251193576L158.40375,93.2542724609375L159.1509375,91.71155259874132L159.89812500000002,92.84630059136285L160.6453125,90.66207817925347L161.3925,91.38247612847222L162.1396875,92.43454657660591L162.886875,90.57149319118923L163.6340625,92.32367824978299L164.38125000000002,92.3040513780382L165.1284375,93.9044918484158L165.875625,92.48917507595486L166.6228125,92.28219401041666L167.37,92.85227593315972L168.1171875,92.84142930772569L168.864375,91.42510172526042L169.6115625,91.25833672417535L170.35875,93.23081122504341L171.1059375,92.73834160698785L171.85312499999998,95.10821363661024L172.6003125,94.87403394911024L173.3475,93.30184393988715L174.0946875,93.96019829644096L174.841875,94.85492926703559L175.5890625,92.25122816297744L176.33624999999998,94.85087856716581L177.0834375,92.00589599609376L177.830625,93.08667941623264L178.57781250000002,92.92897067599826L179.325,92.63808119032119L180.0721875,94.30255330403646L180.819375,93.73407524956598L181.5665625,93.03144666883681L182.31375,92.14807332356771L183.06093750000002,95.34041273328994L183.808125,95.50093383789063L184.5553125,93.13491482204861L185.3025,93.74360148111978L186.0496875,93.79931165907118L186.796875,95.77177124023437L187.5440625,95.24537421332465L188.29125,96.9755601671007L189.0384375,95.02725558810764L189.785625,92.76842719184027L190.53281249999998,94.14390089246962L191.28,95.58557332356771L192.0271875,95.55401441786024L192.774375,98.47807142469618L193.5215625,95.25649685329861L194.26875,96.33955925835504L195.01593749999998,99.54504665798612L195.763125,95.43615247938368L196.5103125,95.58540920681423L197.25750000000002,99.09148390028213L198.0046875,97.94888814290366L198.751875,97.52112155490451L199.4990625,99.1271494547526L200.24625,98.68701443142362L200.9934375,98.70509338378906L201.74062500000002,99.06983167860244L202.4878125,98.5495853000217L203.235,100.37843153211806L203.9821875,97.48526577419705L204.729375,98.55001424153646L205.4765625,99.26279941134982L206.22375,98.90147772894966L206.9709375,96.8158447265625L207.718125,97.02562323676216L208.4653125,101.11876220703125L209.21249999999998,98.32457004123263L209.9596875,98.74071790907118L210.706875,99.24902106391059L211.4540625,100.44268324110243L212.20125,98.20721537272135L212.9484375,99.46970587836371L213.69562499999998,99.77557474772135L214.4428125,100.36397433810764L215.19,100.36674940321181L215.93718750000002,99.00958964029948L216.684375,99.11502346462674L217.4315625,101.29890645345053L218.17875,102.98937242296006L218.9259375,100.58841145833334L219.673125,100.97862887912326L220.42031250000002,101.12180582682291L221.1675,100.86515333387587L221.9146875,100.40344814724392L222.661875,101.29476250542534L223.4090625,99.89689059787327L224.15625,98.92730746799045L224.9034375,99.78770446777344L225.650625,100.88517557779947L226.3978125,101.9438256157769L227.145,100.72849256727432L227.89218749999998,102.01175876193577L228.639375,101.10340610080294L229.3865625,101.79532606336807L230.13375,101.61173909505209L230.8809375,101.85233425564236L231.628125,102.78604668511285L232.37531249999998,101.88497856987847L233.1225,101.30451999240451L233.8696875,100.9859619140625L234.61687500000002,100.47877400716146L235.3640625,102.31609836154513L236.11125,102.83635592990451L236.8584375,102.00089348687065L237.605625,102.76942240397135L238.3528125,103.33633015950521L239.10000000000002,103.3045176188151L239.8471875,101.52411193847657L240.594375,102.4464853922526L241.3415625,101.54800211588541L242.08875,103.07530246310763L242.8359375,103.19876302083334L243.583125,103.60088636610243L244.3303125,102.91988762749565L245.0775,101.5757564968533L245.8246875,102.55517917209201L246.57187499999998,102.84450208875869L247.3190625,101.89725748697916L248.06625,103.45910441080729L248.8134375,104.68712293836806L249.560625,101.526267835829L250.3078125,103.68331773546007L251.05499999999998,102.94743313259549L251.8021875,102.45160658094619L252.549375,103.07566426595052L253.29656250000002,102.01344841851129L254.04375,102.91142815483941L254.7909375,103.28133239746094L255.538125,103.87213033040365L256.28531250000003,102.80066053602431L257.03249999999997,104.13886108398438L257.7796875,103.77595045301649L258.526875,102.09704725477431L259.2740625,102.5765852186415L260.02125,104.32554762098525L260.7684375,103.41221550835503" style="fill: none;" fill="none"></path></g></g></g></g></g></g><g transform="translate(31, 176)" clip-path="url(#clip_1)"><clipPath id="clip_1"><rect width="298" height="24"></rect></clipPath><g><g><line x1="0" y1="0" x2="0" y2="5" style="visibility: inherit;" fill="rgb(0, 0, 0)" stroke="rgb(204, 204, 204)" stroke-width="1px"></line><line x1="37.359375" y1="0" x2="37.359375" y2="5" style="visibility: inherit;" fill="rgb(0, 0, 0)" stroke="rgb(204, 204, 204)" stroke-width="1px"></line><line x1="74.71875" y1="0" x2="74.71875" y2="5" style="visibility: inherit;" fill="rgb(0, 0, 0)" stroke="rgb(204, 204, 204)" stroke-width="1px"></line><line x1="112.078125" y1="0" x2="112.078125" y2="5" style="visibility: inherit;" fill="rgb(0, 0, 0)" stroke="rgb(204, 204, 204)" stroke-width="1px"></line><line x1="149.4375" y1="0" x2="149.4375" y2="5" style="visibility: inherit;" fill="rgb(0, 0, 0)" stroke="rgb(204, 204, 204)" stroke-width="1px"></line><line x1="186.796875" y1="0" x2="186.796875" y2="5" style="visibility: inherit;" fill="rgb(0, 0, 0)" stroke="rgb(204, 204, 204)" stroke-width="1px"></line><line x1="224.15625" y1="0" x2="224.15625" y2="5" style="visibility: inherit;" fill="rgb(0, 0, 0)" stroke="rgb(204, 204, 204)" stroke-width="1px"></line><line x1="261.515625" y1="0" x2="261.515625" y2="5" style="visibility: inherit;" fill="rgb(0, 0, 0)" stroke="rgb(204, 204, 204)" stroke-width="1px"></line><line x1="298.875" y1="0" x2="298.875" y2="5" style="visibility: inherit;" fill="rgb(0, 0, 0)" stroke="rgb(204, 204, 204)" stroke-width="1px"></line></g><g transform="translate(0, 8)"><text x="0" y="0" dx="0em" dy="0.95em" style="text-anchor: middle; visibility: hidden; font-family: &quot;Helvetica Neue&quot;, sans-serif; font-size: 12px; font-weight: 200;" fill="rgb(50, 49, 63)" stroke="none" stroke-width="1px">-50</text><text x="37.359375" y="0" dx="0em" dy="0.95em" style="text-anchor: middle; visibility: inherit; font-family: &quot;Helvetica Neue&quot;, sans-serif; font-size: 12px; font-weight: 200;" fill="rgb(50, 49, 63)" stroke="none" stroke-width="1px">0</text><text x="74.71875" y="0" dx="0em" dy="0.95em" style="text-anchor: middle; visibility: inherit; font-family: &quot;Helvetica Neue&quot;, sans-serif; font-size: 12px; font-weight: 200;" fill="rgb(50, 49, 63)" stroke="none" stroke-width="1px">50</text><text x="112.078125" y="0" dx="0em" dy="0.95em" style="text-anchor: middle; visibility: inherit; font-family: &quot;Helvetica Neue&quot;, sans-serif; font-size: 12px; font-weight: 200;" fill="rgb(50, 49, 63)" stroke="none" stroke-width="1px">100</text><text x="149.4375" y="0" dx="0em" dy="0.95em" style="text-anchor: middle; visibility: inherit; font-family: &quot;Helvetica Neue&quot;, sans-serif; font-size: 12px; font-weight: 200;" fill="rgb(50, 49, 63)" stroke="none" stroke-width="1px">150</text><text x="186.796875" y="0" dx="0em" dy="0.95em" style="text-anchor: middle; visibility: inherit; font-family: &quot;Helvetica Neue&quot;, sans-serif; font-size: 12px; font-weight: 200;" fill="rgb(50, 49, 63)" stroke="none" stroke-width="1px">200</text><text x="224.15625" y="0" dx="0em" dy="0.95em" style="text-anchor: middle; visibility: inherit; font-family: &quot;Helvetica Neue&quot;, sans-serif; font-size: 12px; font-weight: 200;" fill="rgb(50, 49, 63)" stroke="none" stroke-width="1px">250</text><text x="261.515625" y="0" dx="0em" dy="0.95em" style="text-anchor: middle; visibility: inherit; font-family: &quot;Helvetica Neue&quot;, sans-serif; font-size: 12px; font-weight: 200;" fill="rgb(50, 49, 63)" stroke="none" stroke-width="1px">300</text><text x="298.875" y="0" dx="0em" dy="0.95em" style="text-anchor: middle; visibility: hidden; font-family: &quot;Helvetica Neue&quot;, sans-serif; font-size: 12px; font-weight: 200;" fill="rgb(50, 49, 63)" stroke="none" stroke-width="1px">350</text></g><line x1="0" y1="0" x2="298.875" y2="0" fill="rgb(0, 0, 0)" stroke="rgb(204, 204, 204)" stroke-width="1px"></line></g></g></g></g></svg>